<svg xmlns="http://www.w3.org/2000/svg" width="140" height="52" viewBox="0 0 140 52" fill="none"><mask id="mask0_332_50" style="mask-type:luminance" maskUnits="userSpaceOnUse" x="0" y="0" width="140" height="52"><path d="M140 0.5H0V51.0072H140V0.5Z" fill="white"></path></mask><g mask="url(#mask0_332_50)"><path d="M135.157 49.7445H5.00106C2.23917 49.7445 0 47.8114 0 45.4264V14.5484C0 12.2341 2.11425 10.3305 4.79297 10.2341L134.948 5.55459C137.79 5.45249 140.157 7.41364 140.157 9.86896V45.4272C140.158 47.8112 137.919 49.7445 135.157 49.7445Z" fill="white"></path><path d="M21.8492 33.409V39.7795C21.8497 39.8326 21.8371 39.885 21.8126 39.9321C21.7881 39.9792 21.7523 40.0196 21.7086 40.0496C19.8182 41.3313 16.9353 42.2412 14.5309 42.2412C9.17333 42.2412 5.12354 38.3675 5.12354 33.2367C5.12354 28.1314 9.27352 24.2832 14.8318 24.2832C17.3324 24.2832 19.972 25.2033 21.7811 26.691C21.8464 26.7465 21.8871 26.8256 21.8943 26.911C21.9016 26.9964 21.8747 27.0812 21.8196 27.1469L19.7184 29.6891C19.6911 29.7217 19.6576 29.7486 19.6199 29.7681C19.5822 29.7876 19.5409 29.7994 19.4985 29.8028C19.4562 29.8062 19.4136 29.8011 19.3732 29.7878C19.3328 29.7746 19.2955 29.7534 19.2634 29.7255C18.0048 28.6722 16.3385 28.0303 14.8063 28.0303C11.9144 28.0303 9.70137 30.2943 9.70137 33.2367C9.70137 36.2301 11.939 38.4932 14.8564 38.4932C15.7103 38.4932 16.7856 38.2035 17.7913 37.728C17.8467 37.7013 17.8934 37.6594 17.9259 37.6073C17.9585 37.5551 17.9757 37.4948 17.9755 37.4333V33.409C17.9755 33.3666 17.9839 33.3247 18.0001 33.2855C18.0164 33.2463 18.0401 33.2107 18.0701 33.1808C18.1001 33.1508 18.1358 33.127 18.1749 33.1108C18.2141 33.0946 18.2561 33.0863 18.2985 33.0864H21.5262C21.5686 33.0863 21.6106 33.0946 21.6498 33.1108C21.689 33.127 21.7246 33.1508 21.7546 33.1808C21.7846 33.2107 21.8084 33.2463 21.8246 33.2855C21.8408 33.3247 21.8492 33.3666 21.8492 33.409Z" fill="#300034"></path><path d="M33.9757 37.0848H30.4536V42.0404H25.9775V24.4336H33.85C38.5019 24.4336 41.1679 26.6478 41.1679 30.5706C41.1679 33.2622 40.0368 35.1992 37.9745 36.2301L41.6711 42.0404H36.5907L33.9757 37.0848ZM33.8512 33.564C35.787 33.564 36.9193 32.5832 36.9193 30.7219C36.9193 28.886 35.787 27.9547 33.8512 27.9547H30.4536V33.564H33.8512Z" fill="#300034"></path><path d="M49.1947 38.7947L47.9121 42.0404H43.3091L50.9061 24.4336H55.5083L62.9267 42.0404H58.1488L56.8911 38.7953L49.1947 38.7947ZM53.0687 28.8854L50.5016 35.3996H55.5829L53.0687 28.8854Z" fill="#300034"></path><path d="M73.1412 24.4336C78.6747 24.4336 82.4973 28.0057 82.4973 33.2367C82.4973 38.4431 78.6236 42.0398 72.9651 42.0398H65.5703V24.4336H73.1412ZM70.0476 38.4686H73.2414C75.9831 38.4686 77.9447 36.3558 77.9447 33.2622C77.9447 30.1431 75.8829 28.0057 73.041 28.0057H70.0476V38.4686Z" fill="#300034"></path><path d="M90.3475 27.9547V31.4512H98.7489V34.972H90.3475V38.5193H99.9313V42.0404H85.8711V24.4336H99.6535V27.9547H90.3475Z" fill="#300034"></path><path d="M115.779 38.2928V42.0404H103.832V24.4336H108.308V38.2928H115.779Z" fill="#300034"></path><path d="M128.004 42.0404H123.552V36.4815L117.038 24.4336H121.514L125.765 32.1047L129.915 24.4336H134.391L128.004 36.3558V42.0404Z" fill="#300034"></path></g></svg>