<?xml version="1.0" encoding="UTF-8"?> <svg xmlns="http://www.w3.org/2000/svg" width="114" height="44" viewBox="0 0 114 44" fill="none"><path fill-rule="evenodd" clip-rule="evenodd" d="M82.959 4.57266V34.5963H85.5034V14.7502H90.7193L90.8524 34.5963H101.024V11.4602H93.2637V7.07116L114 6.93627V0.247223C114 0.247223 93.1588 3.09249 82.959 4.57266ZM85.4867 11.0998L85.4855 6.35373H90.5921V11.0998H85.4867Z" fill="#369494"></path><path d="M106.367 34.3973L114 29.1234V11.5894H106.367V34.3973Z" fill="#369494"></path><path d="M0.163386 29.0229C0.163386 31.0652 0.0816932 33.2709 0 34.6189H4.28889L4.53397 31.6371H4.61566C6.04529 34.0879 8.3327 35.0682 10.906 35.0682C15.3992 35.0682 19.9331 31.5145 19.9331 24.3664C19.974 18.3211 16.502 14.2773 11.6413 14.2773C8.65948 14.2773 6.49461 15.5435 5.26921 17.4633H5.18752V5.61781H0.163386V29.0229ZM5.18752 23.1818C5.18752 22.6917 5.26921 22.2424 5.3509 21.8748C5.88191 19.669 7.76085 18.1986 9.80318 18.1986C13.1526 18.1986 14.8273 21.0578 14.8273 24.5706C14.8273 28.6144 12.9075 31.1061 9.76233 31.1061C7.59746 31.1061 5.84106 29.6356 5.31006 27.5933C5.22836 27.2257 5.18752 26.8172 5.18752 26.4087V23.1818Z" fill="#1C4E63"></path><path d="M38.8027 14.7266H33.7785V26.7355C33.7785 27.3073 33.6968 27.8792 33.4926 28.2877C33.0024 29.5948 31.6953 30.9835 29.653 30.9835C26.998 30.9835 25.936 28.8595 25.936 25.5509V14.7266H20.9119V26.4087C20.9119 32.9033 24.2204 35.0682 27.8149 35.0682C31.4094 35.0682 33.3701 33.0259 34.2278 31.6371H34.3504L34.5955 34.6189H38.966C38.8843 32.985 38.8027 31.0244 38.8027 28.6553V14.7266Z" fill="#1C4E63"></path><path d="M54.5015 5.61781V16.8506H54.4198C53.5211 15.3801 51.5605 14.2773 48.8238 14.2773C44.0447 14.2773 39.8784 18.2394 39.9192 24.8974C39.9192 31.0244 43.6771 35.0682 48.4562 35.0682C51.3154 35.0682 53.7254 33.6794 54.9099 31.4737H54.9916L55.2367 34.6189H59.689C59.6073 33.2709 59.5256 31.0652 59.5256 29.0229V5.61781H54.5015ZM54.5015 26.0003C54.5015 26.5313 54.4606 27.0214 54.3381 27.4707C53.8479 29.6356 52.0507 31.0244 50.0083 31.0244C46.8223 31.0244 45.0251 28.3694 45.0251 24.6932C45.0251 21.017 46.8223 18.1577 50.0492 18.1577C52.3366 18.1577 53.9296 19.7507 54.3789 21.6705C54.4606 22.079 54.5015 22.61 54.5015 23.0185V26.0003Z" fill="#1C4E63"></path><path d="M79.8694 20.4451C79.8694 17.7084 79.9511 16.0745 80.0328 14.7266H75.6622L75.458 17.3816H75.3763C74.4368 15.7478 72.6804 14.2773 69.6169 14.2773C64.8379 14.2773 60.5898 18.2394 60.5898 24.7749C60.5898 30.4117 64.1026 34.4963 69.0451 34.4963C71.7001 34.4963 73.7016 33.3118 74.8453 31.5554H74.927V33.2709C74.927 37.5598 72.4762 39.2754 69.2085 39.2754C66.7985 39.2754 64.6745 38.4993 63.4082 37.7641L62.3054 41.5628C64.0209 42.584 66.7168 43.1558 69.2493 43.1558C71.986 43.1558 74.8861 42.584 76.9285 40.7459C79.0116 38.8669 79.8694 35.8851 79.8694 31.7188V20.4451ZM74.8453 25.9186C74.8453 26.4904 74.8044 27.1848 74.6411 27.675C74.0692 29.5131 72.4353 30.7385 70.5564 30.7385C67.4112 30.7385 65.6957 28.0017 65.6957 24.6115C65.6957 20.5677 67.7788 18.1169 70.5972 18.1169C72.7213 18.1169 74.1509 19.5057 74.6819 21.3437C74.8044 21.7522 74.8453 22.2015 74.8453 22.6917V25.9186Z" fill="#1C4E63"></path></svg> 