<svg xmlns="http://www.w3.org/2000/svg" width="141" height="33" viewBox="0 0 141 33" fill="none"><g clip-path="url(#clip0_332_63)"><mask id="mask0_332_63" style="mask-type:luminance" maskUnits="userSpaceOnUse" x="0" y="0" width="141" height="33"><path d="M141 0.5H0V32.4961H141V0.5Z" fill="white"></path></mask><g mask="url(#mask0_332_63)"><path d="M56.4948 11.3736L55.0978 10.6648L51.011 18.8173L46.9243 10.6648L45.5273 11.3736L51.011 22.2786L56.4948 11.3736ZM69.1707 14.7932L69.1498 14.689C68.8788 13.8341 68.4201 13.0626 67.7737 12.4162C66.8771 11.5196 65.7304 10.9775 64.4793 10.8316H64.3959C64.229 10.8107 64.0623 10.7899 63.8746 10.7899C62.3942 10.7899 61.0181 11.3736 59.9756 12.4162C58.9331 13.4587 58.3701 14.8349 58.3701 16.3152C58.3701 17.7748 58.9331 19.151 59.9756 20.1935C61.0181 21.236 62.3942 21.799 63.8538 21.8199H63.9372C64.5418 21.799 65.1673 21.6947 65.7512 21.4654C67.1482 20.965 68.2325 19.9433 68.858 18.6089C68.9622 18.3587 69.0664 18.1084 69.1498 17.8582L67.6278 17.4412C67.4192 18.1501 67.0022 18.7757 66.4601 19.2552C66.0848 19.568 65.6678 19.8182 65.2091 20.0059C63.3117 20.6939 61.2058 19.8391 60.3301 18.0459L60.2883 17.9625C60.3091 17.9834 60.3301 18.0042 60.3301 18.0459L66.7521 15.6689L67.6278 15.3561L69.0038 14.8558L69.1707 14.7932ZM59.9339 16.4821V16.5655L59.913 16.4821C59.8504 14.814 60.8513 13.2294 62.4776 12.6247C63.2074 12.3537 63.958 12.3119 64.667 12.4579C65.5844 12.6664 66.3975 13.1668 66.9605 13.8967L59.9339 16.4821ZM80.2778 17.1493C80.0067 16.7323 79.6105 16.3778 79.1101 16.1276C78.2761 15.6689 77.2336 15.4813 76.2327 15.2936C75.4196 15.1477 74.6481 15.0017 74.1268 14.7514C73.7515 14.5846 73.543 14.3762 73.543 13.9591V13.9175C73.543 13.292 74.0851 13.0418 74.2728 12.9374C74.7941 12.6247 75.5654 12.4579 76.3579 12.4579C77.1502 12.4579 77.9007 12.6247 78.4012 12.9374C78.5888 13.0418 78.985 13.3545 79.1309 14.0009L80.653 13.5839C80.528 12.7707 80.0067 12.0617 79.1935 11.5822C78.422 11.1443 77.4212 10.915 76.3579 10.915C75.2736 10.915 74.2728 11.1443 73.5013 11.5822C72.6672 12.0617 72.0834 12.9792 72.0834 13.9383C72.0834 14.4804 72.2086 14.9392 72.5004 15.3353C72.7506 15.6689 72.98 15.94 73.4387 16.1484C74.1476 16.503 75.0651 16.6697 75.9617 16.8365C78.1718 17.2327 79.2143 17.5663 79.2143 18.8173C79.1727 19.4012 78.6722 19.6931 78.4846 19.7973C77.9633 20.0893 77.1918 20.2561 76.3995 20.2561C75.628 20.2561 74.8775 20.0893 74.3562 19.7973C74.1685 19.6931 73.7724 19.422 73.5847 18.7339L72.1043 19.1301C72.2294 19.9433 72.7298 20.6522 73.5847 21.1318C74.3353 21.5697 75.3362 21.8199 76.3995 21.8199C77.4838 21.8199 78.4846 21.5697 79.2561 21.1318C80.236 20.5897 80.7573 19.7556 80.7573 18.7757V18.7548C80.7573 18.1293 80.5905 17.5872 80.2778 17.1493ZM84.1804 21.3611L84.2013 21.8407L85.7233 21.5071V12.1243L84.1804 11.7698V21.3611ZM86.0569 7.55801C86.0569 6.97419 85.5774 6.49463 84.9727 6.49463C84.3681 6.49463 83.8885 6.97419 83.8885 7.55801C83.8885 8.16268 84.3681 8.64224 84.9727 8.64224C85.5774 8.64224 86.0569 8.16268 86.0569 7.55801Z" fill="white"></path><path d="M98.1756 17.4426C97.696 19.0482 96.1948 20.2158 94.4434 20.2158C92.2957 20.2158 90.5443 18.4643 90.5443 16.3167C90.5443 14.1691 92.2957 12.4176 94.4434 12.4176C96.174 12.4176 97.6544 13.5645 98.1547 15.1283L99.6768 14.7112C99.4266 13.8772 98.9679 13.0849 98.3215 12.4385C97.279 11.4168 95.9029 10.833 94.4434 10.833C92.9838 10.833 91.6076 11.4168 90.5859 12.4385C89.5434 13.4811 88.9805 14.8572 88.9805 16.3167C88.9805 17.7762 89.5434 19.1524 90.5859 20.1741C91.6076 21.2167 92.9838 21.7796 94.4434 21.7796C95.9029 21.7796 97.279 21.2167 98.3215 20.1741C98.9679 19.5277 99.4474 18.7354 99.6977 17.8597L98.1756 17.4426ZM112.155 10.979V12.7722L111.841 12.4176C110.799 11.3751 109.402 10.8122 107.943 10.8122C106.462 10.8122 105.086 11.3751 104.044 12.4176C103.001 13.4601 102.438 14.8363 102.438 16.3167C102.438 17.7762 103.001 19.1732 104.044 20.2158C105.086 21.2375 106.462 21.8213 107.943 21.8213C109.402 21.8213 110.799 21.2375 111.841 20.2158L112.155 19.8613V21.9464L113.74 21.7379V11.396L112.155 10.979ZM107.943 20.2366C105.774 20.2366 104.023 18.4643 104.023 16.3167C104.023 14.1482 105.774 12.3968 107.943 12.3968C110.091 12.3968 111.863 14.1482 111.863 16.3167C111.863 18.4643 110.091 20.2366 107.943 20.2366ZM125.666 17.1508C125.395 16.7337 124.999 16.3793 124.499 16.129C123.665 15.6704 122.621 15.4827 121.621 15.2951C120.808 15.1491 120.037 15.0031 119.515 14.7529C119.14 14.5861 118.932 14.3776 118.932 13.9606V13.9189C118.932 13.2934 119.474 13.0432 119.662 12.9389C120.182 12.6262 120.953 12.4594 121.746 12.4594C122.538 12.4594 123.29 12.6262 123.79 12.9389C123.977 13.0432 124.373 13.3559 124.52 14.0023L126.041 13.5853C125.917 12.7722 125.395 12.0631 124.581 11.5836C123.81 11.1458 122.809 10.9164 121.746 10.9164C120.662 10.9164 119.662 11.1458 118.889 11.5836C118.055 12.0631 117.472 12.9806 117.472 13.9397C117.472 14.4818 117.596 14.9406 117.889 15.3367C118.139 15.6704 118.369 15.9414 118.827 16.1499C119.536 16.5044 120.453 16.6711 121.35 16.8379C123.56 17.2342 124.603 17.5678 124.603 18.8188C124.561 19.4026 124.061 19.6945 123.873 19.7987C123.351 20.0907 122.58 20.2575 121.787 20.2575C121.016 20.2575 120.266 20.0907 119.744 19.7987C119.556 19.6945 119.16 19.4235 118.973 18.7354L117.492 19.1316C117.618 19.9447 118.118 20.6536 118.973 21.1332C119.723 21.5711 120.724 21.8213 121.787 21.8213C122.872 21.8213 123.873 21.5711 124.644 21.1332C125.625 20.5912 126.145 19.7571 126.145 18.7771V18.7562C126.145 18.1307 125.978 17.5886 125.666 17.1508ZM130.904 16.2125C130.986 14.1066 132.301 12.6262 134.426 12.6262C136.533 12.6262 137.846 14.1274 137.93 16.2125V21.9881L139.557 21.7796V16.3793C139.557 14.8989 138.994 13.5019 137.95 12.4594C136.887 11.4168 135.907 11.0207 134.426 11.0207C132.78 11.0207 130.986 12.2717 130.904 12.3551V6.1416L129.277 6.55861V21.7796L130.904 21.9881V16.2125Z" fill="white"></path><path d="M37.5259 10.7644C33.4041 9.52248 29.9359 10.2868 27.6698 14.1472C26.1858 16.677 26.4974 20.1945 28.9543 22.6679L27.5164 24.6856C25.5225 23.0243 24.1882 19.3032 25.1612 15.9327C26.2539 12.1525 29.3482 9.84443 32.6381 9.5435C34.9838 9.32855 37.2038 9.95812 37.5259 10.7644Z" fill="white"></path><path d="M41.6477 2.95335C41.5587 3.03073 41.5587 3.01735 41.4821 3.00589C41.3378 2.97958 41.1979 2.93295 41.0667 2.86738C38.8115 1.8453 36.4376 1.32183 33.9756 1.44124C27.8245 1.73735 23.1016 4.48171 20.0001 9.86534C18.6438 12.2191 17.9493 14.8945 17.99 17.6093C18.0206 21.3213 19.0152 24.8538 21.3871 27.7672C22.0572 28.5916 22.7905 29.455 23.6386 30.1495C23.0843 31.0445 22.6679 31.5441 21.9701 32.4946C20.429 29.9155 18.4284 27.8369 17.3611 25.1527C16.243 22.3875 15.8309 19.3884 16.1617 16.4249C16.4937 13.1628 17.7523 10.0632 19.7896 7.49066C22.419 4.13878 25.8125 1.98666 30.0136 1.11837C31.2686 0.857593 32.5408 0.678012 33.8195 0.721952C36.3744 0.809832 38.8354 1.34571 41.1318 2.51013C41.3328 2.61234 41.6477 2.85496 41.6477 2.95335Z" fill="white"></path><path d="M39.1872 8.22853C39.7597 8.7399 38.8228 8.27832 38.8228 8.27832C37.1015 7.47984 35.1999 7.15434 33.3122 7.33507C31.3489 7.49538 29.4744 8.22462 27.9162 9.43419C26.0033 10.9118 24.7373 12.8261 24.1726 15.18C23.435 18.2559 24.0276 21.0722 25.8726 23.631C26.2619 24.1711 26.7494 24.6211 27.2274 25.1632C26.6855 25.8585 26.301 26.5795 25.7524 27.18C21.6921 23.6367 20.2619 16.5178 24.3757 11.1273C28.3379 5.93981 35.2966 5.49259 39.1872 8.22853Z" fill="white"></path><path d="M35.8628 13.0633C36.5935 13.7937 35.5429 13.3007 35.2975 13.274C34.136 13.1453 33.0197 13.2054 31.9443 13.7955C29.9968 14.8662 29.0218 17.5644 30.2719 19.7021C30.3827 19.8928 30.5059 20.0739 30.6482 20.297L29.2309 22.2992C28.2595 21.1758 27.738 19.7337 27.7668 18.2498C27.7955 16.7659 28.3724 15.345 29.3866 14.2598C31.1429 12.3444 34.1475 11.9087 35.8628 13.0633Z" fill="white"></path><path d="M40.4566 5.57149C41.0807 6.18745 40.1698 5.66699 40.0227 5.59441C37.9445 4.6269 35.653 4.20769 33.3667 4.37681C30.6637 4.5764 28.2055 5.49318 26.0655 7.1644C23.6436 9.05526 22.0208 11.4981 21.3249 14.4967C20.3596 18.6471 21.2025 22.4097 23.8769 25.7522C24.37 26.3691 24.9377 26.9076 25.558 27.4883C25.0285 28.2246 24.543 28.8931 24.0555 29.5663C18.6201 24.9709 16.9083 15.9197 22.1229 9.24816C27.1694 2.7925 35.651 2.42005 40.4566 5.57149Z" fill="white"></path><path d="M10.8522 11.674C12.0807 13.4546 13.3015 15.241 14.5425 17.0129C14.7973 17.3442 14.9271 17.7541 14.9091 18.171C14.8468 19.573 15.0157 20.9605 15.2931 22.3375L15.1529 22.4092C10.1314 15.154 5.11273 7.89871 0 0.50765C1.03752 0.50765 1.92531 0.522951 2.81215 0.5" fill="white"></path><path d="M15.7174 7.20669L17.1372 9.27447C16.6665 10.156 16.3094 11.0653 15.8856 12.1054C13.2178 8.2191 10.6085 4.4178 7.91797 0.5C9.00068 0.5 9.94971 0.5 10.8978 0.5" fill="white"></path><path d="M18.9827 6.34479C18.0883 7.52118 17.9604 7.83031 17.4088 8.63461L11.8242 0.508587C12.8809 0.508587 13.7894 0.527669 14.6952 0.5" fill="white"></path><path d="M19.0582 0.608887C19.4843 1.19778 19.8225 1.60541 20.1807 2.13004C20.5811 2.71318 20.9748 3.30112 21.3684 3.88426C20.648 4.42136 20.1005 5.08028 19.4346 5.70658L15.9453 0.621355" fill="white"></path><path d="M12.5965 8.59571C13.4959 9.9125 14.3839 11.2369 15.2975 12.5423C15.4955 12.8289 15.5678 13.0487 15.465 13.4108C15.1891 14.3922 14.9702 15.3908 14.7741 16.4438L3.90625 0.554553C4.96172 0.458995 5.92868 0.518241 6.89184 0.517285" fill="white"></path></g></g><defs><clipPath id="clip0_332_63"><rect width="141" height="32" fill="white" transform="translate(0 0.5)"></rect></clipPath></defs></svg>