<svg width="140" height="51" viewBox="0 0 140 51" fill="none" xmlns="http://www.w3.org/2000/svg">
<g clip-path="url(#clip0_38756_26139)">
<path d="M135.157 49.2445H5.00106C2.23917 49.2445 0 47.3114 0 44.9264V14.0484C0 11.7341 2.11425 9.83045 4.79297 9.73407L134.948 5.05459C137.79 4.95249 140.157 6.91364 140.157 9.36896V44.9272C140.158 47.3112 137.919 49.2445 135.157 49.2445Z" fill="#11BDCF"/>
<path d="M21.8492 32.909V39.2795C21.8497 39.3326 21.8371 39.385 21.8126 39.4321C21.7881 39.4792 21.7523 39.5196 21.7086 39.5496C19.8182 40.8313 16.9353 41.7412 14.5309 41.7412C9.17333 41.7412 5.12354 37.8675 5.12354 32.7367C5.12354 27.6314 9.27352 23.7832 14.8318 23.7832C17.3324 23.7832 19.972 24.7033 21.7811 26.191C21.8464 26.2465 21.8871 26.3256 21.8943 26.411C21.9016 26.4964 21.8747 26.5812 21.8196 26.6469L19.7184 29.1891C19.6911 29.2217 19.6576 29.2486 19.6199 29.2681C19.5822 29.2876 19.5409 29.2994 19.4985 29.3028C19.4562 29.3062 19.4136 29.3011 19.3732 29.2878C19.3328 29.2746 19.2955 29.2534 19.2634 29.2255C18.0048 28.1722 16.3385 27.5303 14.8063 27.5303C11.9144 27.5303 9.70137 29.7943 9.70137 32.7367C9.70137 35.7301 11.939 37.9932 14.8564 37.9932C15.7103 37.9932 16.7856 37.7035 17.7913 37.228C17.8467 37.2013 17.8934 37.1594 17.9259 37.1073C17.9585 37.0551 17.9757 36.9948 17.9755 36.9333V32.909C17.9755 32.8666 17.9839 32.8247 18.0001 32.7855C18.0164 32.7463 18.0401 32.7107 18.0701 32.6808C18.1001 32.6508 18.1358 32.627 18.1749 32.6108C18.2141 32.5946 18.2561 32.5863 18.2985 32.5864H21.5262C21.5686 32.5863 21.6106 32.5946 21.6498 32.6108C21.689 32.627 21.7246 32.6508 21.7546 32.6808C21.7846 32.7107 21.8084 32.7463 21.8246 32.7855C21.8408 32.8247 21.8492 32.8666 21.8492 32.909Z" fill="#113255"/>
<path d="M33.9757 36.5848H30.4536V41.5404H25.9775V23.9336H33.85C38.5019 23.9336 41.1679 26.1478 41.1679 30.0706C41.1679 32.7622 40.0368 34.6992 37.9745 35.7301L41.6711 41.5404H36.5907L33.9757 36.5848ZM33.8512 33.064C35.787 33.064 36.9193 32.0832 36.9193 30.2219C36.9193 28.386 35.787 27.4547 33.8512 27.4547H30.4536V33.064H33.8512Z" fill="#113255"/>
<path d="M49.1947 38.2947L47.9121 41.5404H43.3091L50.9061 23.9336H55.5083L62.9267 41.5404H58.1488L56.8911 38.2953L49.1947 38.2947ZM53.0687 28.3854L50.5016 34.8996H55.5829L53.0687 28.3854Z" fill="#113255"/>
<path d="M73.1412 23.9336C78.6747 23.9336 82.4973 27.5057 82.4973 32.7367C82.4973 37.9431 78.6236 41.5398 72.9651 41.5398H65.5703V23.9336H73.1412ZM70.0476 37.9686H73.2414C75.9831 37.9686 77.9447 35.8558 77.9447 32.7622C77.9447 29.6431 75.8829 27.5057 73.041 27.5057H70.0476V37.9686Z" fill="#113255"/>
<path d="M90.3475 27.4547V30.9512H98.7489V34.472H90.3475V38.0193H99.9313V41.5404H85.8711V23.9336H99.6535V27.4547H90.3475Z" fill="#113255"/>
<path d="M115.779 37.7928V41.5404H103.832V23.9336H108.308V37.7928H115.779Z" fill="#113255"/>
<path d="M128.004 41.5404H123.552V35.9815L117.038 23.9336H121.514L125.765 31.6047L129.915 23.9336H134.391L128.004 35.8558V41.5404Z" fill="#113255"/>
</g>
<defs>
<clipPath id="clip0_38756_26139">
<rect width="140" height="50.5072" fill="white"/>
</clipPath>
</defs>
</svg>
