<svg width="141" height="32" viewBox="0 0 141 32" fill="none" xmlns="http://www.w3.org/2000/svg">
<g clip-path="url(#clip0_5091_367)">
<path d="M56.4948 10.8736L55.0978 10.1648L51.011 18.3173L46.9243 10.1648L45.5273 10.8736L51.011 21.7786L56.4948 10.8736ZM69.1707 14.2932L69.1498 14.189C68.8788 13.3341 68.4201 12.5626 67.7737 11.9162C66.8771 11.0196 65.7304 10.4775 64.4793 10.3316H64.3959C64.229 10.3107 64.0623 10.2899 63.8746 10.2899C62.3942 10.2899 61.0181 10.8736 59.9756 11.9162C58.9331 12.9587 58.3701 14.3349 58.3701 15.8152C58.3701 17.2748 58.9331 18.651 59.9756 19.6935C61.0181 20.736 62.3942 21.299 63.8538 21.3199H63.9372C64.5418 21.299 65.1673 21.1947 65.7512 20.9654C67.1482 20.465 68.2325 19.4433 68.858 18.1089C68.9622 17.8587 69.0664 17.6084 69.1498 17.3582L67.6278 16.9412C67.4192 17.6501 67.0022 18.2757 66.4601 18.7552C66.0848 19.068 65.6678 19.3182 65.2091 19.5059C63.3117 20.1939 61.2058 19.3391 60.3301 17.5459L60.2883 17.4625C60.3091 17.4834 60.3301 17.5042 60.3301 17.5459L66.7521 15.1689L67.6278 14.8561L69.0038 14.3558L69.1707 14.2932ZM59.9339 15.9821V16.0655L59.913 15.9821C59.8504 14.314 60.8513 12.7294 62.4776 12.1247C63.2074 11.8537 63.958 11.8119 64.667 11.9579C65.5844 12.1664 66.3975 12.6668 66.9605 13.3967L59.9339 15.9821ZM80.2778 16.6493C80.0067 16.2323 79.6105 15.8778 79.1101 15.6276C78.2761 15.1689 77.2336 14.9813 76.2327 14.7936C75.4196 14.6477 74.6481 14.5017 74.1268 14.2514C73.7515 14.0846 73.543 13.8762 73.543 13.4591V13.4175C73.543 12.792 74.0851 12.5418 74.2728 12.4374C74.7941 12.1247 75.5654 11.9579 76.3579 11.9579C77.1502 11.9579 77.9007 12.1247 78.4012 12.4374C78.5888 12.5418 78.985 12.8545 79.1309 13.5009L80.653 13.0839C80.528 12.2707 80.0067 11.5617 79.1935 11.0822C78.422 10.6443 77.4212 10.415 76.3579 10.415C75.2736 10.415 74.2728 10.6443 73.5013 11.0822C72.6672 11.5617 72.0834 12.4792 72.0834 13.4383C72.0834 13.9804 72.2086 14.4392 72.5004 14.8353C72.7506 15.1689 72.98 15.44 73.4387 15.6484C74.1476 16.003 75.0651 16.1697 75.9617 16.3365C78.1718 16.7327 79.2143 17.0663 79.2143 18.3173C79.1727 18.9012 78.6722 19.1931 78.4846 19.2973C77.9633 19.5893 77.1918 19.7561 76.3995 19.7561C75.628 19.7561 74.8775 19.5893 74.3562 19.2973C74.1685 19.1931 73.7724 18.922 73.5847 18.2339L72.1043 18.6301C72.2294 19.4433 72.7298 20.1522 73.5847 20.6318C74.3353 21.0697 75.3362 21.3199 76.3995 21.3199C77.4838 21.3199 78.4846 21.0697 79.2561 20.6318C80.236 20.0897 80.7573 19.2556 80.7573 18.2757V18.2548C80.7573 17.6293 80.5905 17.0872 80.2778 16.6493ZM84.1804 20.8611L84.2013 21.3407L85.7233 21.0071V11.6243L84.1804 11.2698V20.8611ZM86.0569 7.05801C86.0569 6.47419 85.5774 5.99463 84.9727 5.99463C84.3681 5.99463 83.8885 6.47419 83.8885 7.05801C83.8885 7.66268 84.3681 8.14224 84.9727 8.14224C85.5774 8.14224 86.0569 7.66268 86.0569 7.05801Z" fill="#3BB75E"/>
<path d="M98.1756 16.9426C97.696 18.5482 96.1948 19.7158 94.4434 19.7158C92.2957 19.7158 90.5443 17.9643 90.5443 15.8167C90.5443 13.6691 92.2957 11.9176 94.4434 11.9176C96.174 11.9176 97.6544 13.0645 98.1547 14.6283L99.6768 14.2112C99.4266 13.3772 98.9679 12.5849 98.3215 11.9385C97.279 10.9168 95.9029 10.333 94.4434 10.333C92.9838 10.333 91.6076 10.9168 90.5859 11.9385C89.5434 12.9811 88.9805 14.3572 88.9805 15.8167C88.9805 17.2762 89.5434 18.6524 90.5859 19.6741C91.6076 20.7167 92.9838 21.2796 94.4434 21.2796C95.9029 21.2796 97.279 20.7167 98.3215 19.6741C98.9679 19.0277 99.4474 18.2354 99.6977 17.3597L98.1756 16.9426ZM112.155 10.479V12.2722L111.841 11.9176C110.799 10.8751 109.402 10.3122 107.943 10.3122C106.462 10.3122 105.086 10.8751 104.044 11.9176C103.001 12.9601 102.438 14.3363 102.438 15.8167C102.438 17.2762 103.001 18.6732 104.044 19.7158C105.086 20.7375 106.462 21.3213 107.943 21.3213C109.402 21.3213 110.799 20.7375 111.841 19.7158L112.155 19.3613V21.4464L113.74 21.2379V10.896L112.155 10.479ZM107.943 19.7366C105.774 19.7366 104.023 17.9643 104.023 15.8167C104.023 13.6482 105.774 11.8968 107.943 11.8968C110.091 11.8968 111.863 13.6482 111.863 15.8167C111.863 17.9643 110.091 19.7366 107.943 19.7366ZM125.666 16.6508C125.395 16.2337 124.999 15.8793 124.499 15.629C123.665 15.1704 122.621 14.9827 121.621 14.7951C120.808 14.6491 120.037 14.5031 119.515 14.2529C119.14 14.0861 118.932 13.8776 118.932 13.4606V13.4189C118.932 12.7934 119.474 12.5432 119.662 12.4389C120.182 12.1262 120.953 11.9594 121.746 11.9594C122.538 11.9594 123.29 12.1262 123.79 12.4389C123.977 12.5432 124.373 12.8559 124.52 13.5023L126.041 13.0853C125.917 12.2722 125.395 11.5631 124.581 11.0836C123.81 10.6458 122.809 10.4164 121.746 10.4164C120.662 10.4164 119.662 10.6458 118.889 11.0836C118.055 11.5631 117.472 12.4806 117.472 13.4397C117.472 13.9818 117.596 14.4406 117.889 14.8367C118.139 15.1704 118.369 15.4414 118.827 15.6499C119.536 16.0044 120.453 16.1711 121.35 16.3379C123.56 16.7342 124.603 17.0678 124.603 18.3188C124.561 18.9026 124.061 19.1945 123.873 19.2987C123.351 19.5907 122.58 19.7575 121.787 19.7575C121.016 19.7575 120.266 19.5907 119.744 19.2987C119.556 19.1945 119.16 18.9235 118.973 18.2354L117.492 18.6316C117.618 19.4447 118.118 20.1536 118.973 20.6332C119.723 21.0711 120.724 21.3213 121.787 21.3213C122.872 21.3213 123.873 21.0711 124.644 20.6332C125.625 20.0912 126.145 19.2571 126.145 18.2771V18.2562C126.145 17.6307 125.978 17.0886 125.666 16.6508ZM130.904 15.7125C130.986 13.6066 132.301 12.1262 134.426 12.1262C136.533 12.1262 137.846 13.6274 137.93 15.7125V21.4881L139.557 21.2796V15.8793C139.557 14.3989 138.994 13.0019 137.95 11.9594C136.887 10.9168 135.907 10.5207 134.426 10.5207C132.78 10.5207 130.986 11.7717 130.904 11.8551V5.6416L129.277 6.05861V21.2796L130.904 21.4881V15.7125Z" fill="#043B56"/>
<path d="M37.5259 10.2644C33.4041 9.02248 29.9359 9.78676 27.6698 13.6472C26.1858 16.177 26.4974 19.6945 28.9543 22.1679L27.5164 24.1856C25.5225 22.5243 24.1882 18.8032 25.1612 15.4327C26.2539 11.6525 29.3482 9.34443 32.6381 9.0435C34.9838 8.82855 37.2038 9.45812 37.5259 10.2644Z" fill="#043B56"/>
<path d="M41.6477 2.45335C41.5587 2.53073 41.5587 2.51735 41.4821 2.50589C41.3378 2.47958 41.1979 2.43295 41.0667 2.36738C38.8115 1.3453 36.4376 0.821832 33.9756 0.941235C27.8245 1.23735 23.1016 3.98171 20.0001 9.36534C18.6438 11.7191 17.9493 14.3945 17.99 17.1093C18.0206 20.8213 19.0152 24.3538 21.3871 27.2672C22.0572 28.0916 22.7905 28.955 23.6386 29.6495C23.0843 30.5445 22.6679 31.0441 21.9701 31.9946C20.429 29.4155 18.4284 27.3369 17.3611 24.6527C16.243 21.8875 15.8309 18.8884 16.1617 15.9249C16.4937 12.6628 17.7523 9.56316 19.7896 6.99066C22.419 3.63878 25.8125 1.48666 30.0136 0.61837C31.2686 0.357593 32.5408 0.178012 33.8195 0.221952C36.3744 0.309832 38.8354 0.845713 41.1318 2.01013C41.3328 2.11234 41.6477 2.35496 41.6477 2.45335Z" fill="#043B56"/>
<path d="M39.1872 7.72853C39.7597 8.2399 38.8228 7.77832 38.8228 7.77832C37.1015 6.97984 35.1999 6.65434 33.3122 6.83507C31.3489 6.99538 29.4744 7.72462 27.9162 8.93419C26.0033 10.4118 24.7373 12.3261 24.1726 14.68C23.435 17.7559 24.0276 20.5722 25.8726 23.131C26.2619 23.6711 26.7494 24.1211 27.2274 24.6632C26.6855 25.3585 26.301 26.0795 25.7524 26.68C21.6921 23.1367 20.2619 16.0178 24.3757 10.6273C28.3379 5.43981 35.2966 4.99259 39.1872 7.72853Z" fill="#043B56"/>
<path d="M35.8628 12.5633C36.5935 13.2937 35.5429 12.8007 35.2975 12.774C34.136 12.6453 33.0197 12.7054 31.9443 13.2955C29.9968 14.3662 29.0218 17.0644 30.2719 19.2021C30.3827 19.3928 30.5059 19.5739 30.6482 19.797L29.2309 21.7992C28.2595 20.6758 27.738 19.2337 27.7668 17.7498C27.7955 16.2659 28.3724 14.845 29.3866 13.7598C31.1429 11.8444 34.1475 11.4087 35.8628 12.5633Z" fill="#043B56"/>
<path d="M40.4566 5.07149C41.0807 5.68745 40.1698 5.16699 40.0227 5.09441C37.9445 4.1269 35.653 3.70769 33.3667 3.87681C30.6637 4.0764 28.2055 4.99318 26.0655 6.6644C23.6436 8.55526 22.0208 10.9981 21.3249 13.9967C20.3596 18.1471 21.2025 21.9097 23.8769 25.2522C24.37 25.8691 24.9377 26.4076 25.558 26.9883C25.0285 27.7246 24.543 28.3931 24.0555 29.0663C18.6201 24.4709 16.9083 15.4197 22.1229 8.74816C27.1694 2.2925 35.651 1.92005 40.4566 5.07149Z" fill="#043B56"/>
<path d="M10.8522 11.174C12.0807 12.9546 13.3015 14.741 14.5425 16.5129C14.7973 16.8442 14.9271 17.2541 14.9091 17.671C14.8468 19.073 15.0157 20.4605 15.2931 21.8375L15.1529 21.9092C10.1314 14.654 5.11273 7.39871 0 0.00765021C1.03752 0.00765021 1.92531 0.0229506 2.81215 0" fill="#3BB75E"/>
<path d="M15.7174 6.70669L17.1372 8.77447C16.6665 9.65603 16.3094 10.5653 15.8856 11.6054C13.2178 7.7191 10.6085 3.9178 7.91797 0C9.00068 0 9.94971 0 10.8978 0" fill="#3BB75E"/>
<path d="M18.9827 5.84479C18.0883 7.02118 17.9604 7.33031 17.4088 8.13461L11.8242 0.00858686C12.8809 0.00858686 13.7894 0.0276688 14.6952 0" fill="#3BB75E"/>
<path d="M19.0582 0.108887C19.4843 0.697783 19.8225 1.10541 20.1807 1.63004C20.5811 2.21318 20.9748 2.80112 21.3684 3.38426C20.648 3.92136 20.1005 4.58028 19.4346 5.20658L15.9453 0.121355" fill="#3BB75E"/>
<path d="M12.5965 8.09571C13.4959 9.4125 14.3839 10.7369 15.2975 12.0423C15.4955 12.3289 15.5678 12.5487 15.465 12.9108C15.1891 13.8922 14.9702 14.8908 14.7741 15.9438L3.90625 0.0545526C4.96172 -0.0410049 5.92868 0.0182409 6.89184 0.0172852" fill="#3BB75E"/>
</g>
<defs>
<clipPath id="clip0_5091_367">
<rect width="141" height="31.9961" fill="white"/>
</clipPath>
</defs>
</svg>
