<svg xmlns="http://www.w3.org/2000/svg" width="114" height="45" viewBox="0 0 114 45" fill="none"><g clip-path="url(#clip0_332_80)"><path fill-rule="evenodd" clip-rule="evenodd" d="M82.959 5.07251V35.0961H85.5034V15.25H90.7193L90.8524 35.0961H101.024V11.96H93.2637V7.57101L114 7.43612V0.74707C114 0.74707 93.1588 3.59234 82.959 5.07251ZM85.4867 11.5996L85.4855 6.85358H90.5921V11.5996H85.4867Z" fill="white"></path><path d="M106.367 34.8973L114 29.6234V12.0894H106.367V34.8973Z" fill="white"></path><path d="M0.163386 29.5228C0.163386 31.5651 0.0816932 33.7708 0 35.1188H4.28889L4.53397 32.137H4.61566C6.04529 34.5878 8.3327 35.5681 10.906 35.5681C15.3992 35.5681 19.9331 32.0144 19.9331 24.8663C19.974 18.821 16.502 14.7772 11.6413 14.7772C8.65948 14.7772 6.49461 16.0434 5.26921 17.9632H5.18752V6.11768H0.163386V29.5228ZM5.18752 23.6817C5.18752 23.1916 5.26921 22.7423 5.3509 22.3747C5.88191 20.1689 7.76085 18.6985 9.80318 18.6985C13.1526 18.6985 14.8273 21.5577 14.8273 25.0705C14.8273 29.1143 12.9075 31.606 9.76233 31.606C7.59746 31.606 5.84106 30.1355 5.31006 28.0932C5.22836 27.7256 5.18752 27.3171 5.18752 26.9086V23.6817Z" fill="white"></path><path d="M38.8027 15.2266H33.7785V27.2355C33.7785 27.8073 33.6968 28.3792 33.4926 28.7877C33.0024 30.0948 31.6953 31.4835 29.653 31.4835C26.998 31.4835 25.936 29.3595 25.936 26.0509V15.2266H20.9119V26.9087C20.9119 33.4033 24.2204 35.5682 27.8149 35.5682C31.4094 35.5682 33.3701 33.5259 34.2278 32.1371H34.3504L34.5955 35.1189H38.966C38.8843 33.485 38.8027 31.5244 38.8027 29.1553V15.2266Z" fill="white"></path><path d="M54.5015 6.11768V17.3505H54.4198C53.5211 15.88 51.5605 14.7772 48.8238 14.7772C44.0447 14.7772 39.8784 18.7393 39.9192 25.3973C39.9192 31.5243 43.6771 35.5681 48.4562 35.5681C51.3154 35.5681 53.7254 34.1793 54.9099 31.9736H54.9916L55.2367 35.1188H59.689C59.6073 33.7708 59.5256 31.5651 59.5256 29.5228V6.11768H54.5015ZM54.5015 26.5002C54.5015 27.0312 54.4606 27.5213 54.3381 27.9706C53.8479 30.1355 52.0507 31.5243 50.0083 31.5243C46.8223 31.5243 45.0251 28.8693 45.0251 25.1931C45.0251 21.5169 46.8223 18.6576 50.0492 18.6576C52.3366 18.6576 53.9296 20.2506 54.3789 22.1704C54.4606 22.5789 54.5015 23.1099 54.5015 23.5184V26.5002Z" fill="white"></path><path d="M79.8694 20.9451C79.8694 18.2084 79.9511 16.5745 80.0328 15.2266H75.6622L75.458 17.8816H75.3763C74.4368 16.2478 72.6804 14.7773 69.6169 14.7773C64.8379 14.7773 60.5898 18.7394 60.5898 25.2749C60.5898 30.9117 64.1026 34.9963 69.0451 34.9963C71.7001 34.9963 73.7016 33.8118 74.8453 32.0554H74.927V33.7709C74.927 38.0598 72.4762 39.7754 69.2085 39.7754C66.7985 39.7754 64.6745 38.9993 63.4082 38.2641L62.3054 42.0628C64.0209 43.084 66.7168 43.6558 69.2493 43.6558C71.986 43.6558 74.8861 43.084 76.9285 41.2459C79.0116 39.3669 79.8694 36.3851 79.8694 32.2188V20.9451ZM74.8453 26.4186C74.8453 26.9904 74.8044 27.6848 74.6411 28.175C74.0692 30.0131 72.4353 31.2385 70.5564 31.2385C67.4112 31.2385 65.6957 28.5017 65.6957 25.1115C65.6957 21.0677 67.7788 18.6169 70.5972 18.6169C72.7213 18.6169 74.1509 20.0057 74.6819 21.8437C74.8044 22.2522 74.8453 22.7015 74.8453 23.1917V26.4186Z" fill="white"></path></g><defs><clipPath id="clip0_332_80"><rect width="114" height="44" fill="white" transform="translate(0 0.5)"></rect></clipPath></defs></svg>