<svg xmlns="http://www.w3.org/2000/svg" width="190" height="46" viewBox="0 0 190 46" fill="none"><g clip-path="url(#clip0_332_41)"><path d="M4.07106 37.87C3.18787 37.0834 2.20506 36.3808 1.44433 35.4893C0.0650671 33.8703 0.194795 32.0022 1.84597 30.6592C2.80803 29.8767 3.96313 29.2488 5.12964 28.8192C8.37283 27.6257 11.6669 26.5536 14.9495 25.4618C16.3879 24.9865 17.8481 24.5682 19.3893 24.9647C20.4157 25.2335 20.9855 25.9475 21.0197 27.0113C21.0654 28.3573 20.5019 29.5353 19.9061 30.6696C19.3592 31.7178 18.6317 32.6757 18.0132 33.6938C15.3657 38.0454 10.0894 39.9363 5.32164 38.225C4.93557 38.0838 4.55261 37.9333 4.16654 37.788C4.1354 37.815 4.10219 37.843 4.07106 37.87ZM17.5119 31.8963C17.6333 31.4459 17.9405 30.6696 18.0298 29.8684C18.1595 28.759 17.5731 27.9557 16.4813 27.746C15.6833 27.5914 14.8281 27.5115 14.0321 27.634C11.5621 28.0055 9.20413 28.8119 7.01744 30.0085C6.13944 30.4859 5.34032 31.1781 4.64809 31.9025C3.51271 33.0867 3.64867 34.6839 4.8816 35.7757C6.26502 37.0034 7.91515 37.5255 9.73238 37.3656C13.2029 37.0657 15.5784 35.1022 17.5119 31.8963Z" fill="white"></path><path d="M16.5107 1.03953C19.208 1.94556 21.7257 2.51429 23.7682 4.17066C26.7114 6.56182 28.1862 9.64832 27.8603 13.4478C27.7036 15.2785 27.0913 17.0179 25.8345 18.4429C24.5548 19.9 22.9099 20.1947 21.3397 19.0811C20.4627 18.4605 19.6096 17.6718 19.0523 16.7678C16.8386 13.1852 14.7225 9.5435 12.6303 5.88931C12.2504 5.2334 12.0532 4.43635 11.9235 3.67873C11.6308 1.99641 12.4922 0.912919 14.1963 0.84546C15.0567 0.812249 15.9285 0.987642 16.5107 1.03953ZM19.0679 3.41824C18.8053 3.35597 18.5479 3.27813 18.2853 3.22935C16.1869 2.84017 14.9539 3.98593 15.2165 6.09687C15.2663 6.50578 15.3431 6.92195 15.4863 7.30387C16.5003 9.99807 17.9252 12.4588 19.9023 14.5604C20.4243 15.1156 21.0854 15.5816 21.7631 15.9417C23.379 16.8041 24.8859 16.2219 25.6788 14.55C26.4738 12.8718 26.5225 11.1552 25.903 9.43868C24.7375 6.18924 22.2768 4.36577 19.0679 3.41824Z" fill="white"></path><path d="M40.3564 41.3001C40.1332 40.3442 39.742 39.3853 39.2252 38.554C37.9362 36.497 36.5372 34.5054 35.1735 32.4962C34.0734 30.872 32.9619 29.2509 31.8535 27.6287C31.8099 27.6609 31.7663 27.6941 31.7207 27.7253C31.5328 27.5333 31.3502 27.3371 31.1582 27.1513C29.426 25.4887 27.4365 25.4607 25.9805 26.8846C26.7609 27.5717 27.2726 28.459 27.7043 29.3785C28.684 29.0122 29.8796 29.2706 31.0731 30.2358C33.5846 32.2741 35.2638 34.9319 36.5797 37.8275C37.0893 38.9514 37.3975 40.2352 36.4926 41.2917C35.6042 42.3265 34.3297 42.1137 33.1425 41.8885C31.8338 41.6405 30.5355 41.0541 29.2942 40.1813C29.1438 40.6524 28.9507 41.1091 28.7359 41.5564C28.7878 41.5906 28.8376 41.629 28.8895 41.6623C31.3803 43.1972 34.1979 43.7971 37.0478 44.2267C37.4276 44.2828 37.8293 44.2423 38.2154 44.1966C39.8613 44.0005 40.7321 42.9087 40.3564 41.3001Z" fill="white"></path><path d="M28.414 28.739C27.6771 27.8029 27.0326 26.791 26.2439 25.9088C26.1578 25.8134 26.0685 25.722 25.9834 25.6297C25.2933 24.8793 24.5419 24.1871 23.5923 23.7657C23.4615 23.7086 23.3421 23.635 23.2052 23.5903C22.1964 23.2468 21.3257 23.5322 20.7154 24.404C19.8053 25.7075 19.688 27.2207 19.6319 28.7338C19.5115 32.1929 19.3621 35.652 19.3496 39.1111C19.3465 40.3534 19.5333 41.6527 19.9277 42.8265C20.6085 44.8441 22.3168 45.6183 24.3146 44.8908C25.4178 44.4881 26.4183 43.8125 27.4623 43.2614C27.4478 43.2219 27.4353 43.1814 27.4187 43.1462C27.6885 42.8317 27.9656 42.5266 28.2324 42.2163C29.54 40.6637 30.3288 38.835 30.609 36.9441C30.6816 36.4532 30.7273 35.9602 30.7304 35.4641C30.7491 33.101 29.978 30.7233 28.414 28.739ZM28.9661 37.7827C28.4825 39.5397 27.4177 40.9076 25.7831 41.7731C24.3291 42.5473 22.7838 42.1177 22.0708 40.6398C21.636 39.7369 21.2655 38.7468 21.1254 37.7588C20.7642 35.2898 20.8348 32.799 21.3464 30.3539C21.5104 29.5662 21.883 28.793 22.3054 28.0987C22.4725 27.8288 22.6707 27.6213 22.8897 27.4614C23.4366 27.066 24.1247 27.0245 24.8356 27.3878C24.8761 27.4085 24.9145 27.4355 24.9539 27.4562C25.6222 27.8226 26.1951 28.326 26.5563 28.5813C28.1929 30.6382 29.156 32.6911 29.2764 34.8923C29.3044 35.4081 29.2982 35.9291 29.2276 36.4667C29.1747 36.8974 29.0896 37.3343 28.9661 37.7827Z" fill="white"></path><path d="M4.05183 18.452C6.42429 16.8766 8.41795 15.2378 10.9783 14.6421C14.6719 13.7859 18.0157 14.5165 20.8147 17.1059C22.1639 18.3524 23.1612 19.9029 23.5151 21.7689C23.8805 23.6733 23.1031 25.1543 21.26 25.7116C20.2336 26.0209 19.0857 26.2108 18.0323 26.0946C13.8447 25.6442 9.6706 25.0806 5.49855 24.4922C4.74821 24.3853 4.00098 24.0532 3.32017 23.691C1.81429 22.8887 1.48841 21.5447 2.48161 20.1572C2.9808 19.4608 3.65331 18.8785 4.05183 18.452ZM7.49844 17.8936C7.28984 18.0587 7.06982 18.2154 6.86952 18.3928C5.27335 19.8084 5.42176 21.4866 7.24936 22.5753C7.6043 22.787 7.97999 22.9832 8.36813 23.1046C11.1184 23.9567 13.935 24.3417 16.8077 24.0698C17.5663 23.9982 18.3406 23.7636 19.0421 23.4492C20.7151 22.705 21.178 21.1556 20.3467 19.5033C19.5092 17.8449 18.1839 16.752 16.4465 16.1885C13.166 15.1154 10.2165 15.9394 7.49844 17.8936Z" fill="white"></path><path d="M23.3004 18.4792C24.9785 17.459 26.6546 16.4347 28.3369 15.4197C30.4178 14.167 32.4768 12.8749 34.6012 11.6981C35.4574 11.2258 36.4382 10.8844 37.4013 10.7152C39.0286 10.4257 40.0747 11.3504 40.1816 13.0067C40.2086 13.3949 40.2273 13.7976 40.1515 14.1743C39.5714 16.9972 38.821 19.7806 37.1574 22.1832C33.9951 26.7579 27.9197 28.1071 23.4052 25.2967C20.8843 23.7316 20.627 21.1734 22.7856 19.1486C22.9828 18.968 23.1852 18.7937 23.3876 18.6162C23.3616 18.5695 23.3315 18.5238 23.3004 18.4792ZM34.1083 23.4078C35.9691 21.7691 37.1356 19.8803 37.6088 17.9478C37.8974 16.7751 38.1786 15.5141 37.1916 14.5718C36.186 13.6128 34.8856 13.8505 33.7367 14.3009C30.7748 15.4612 28.0297 16.9972 25.8638 19.3966C23.8681 21.6103 24.4928 23.9765 27.3437 24.8442C30.0722 25.6744 32.4052 24.7777 34.1083 23.4078Z" fill="white"></path><path fill-rule="evenodd" clip-rule="evenodd" d="M71.0098 32.4761V7.70035C71.0098 6.84131 72.7689 6.84131 74.528 6.84131C76.2871 6.84131 78.0462 6.84131 78.0462 7.70035V30.9262C78.0462 31.6383 78.381 32.1624 79.2401 32.1624C79.5961 32.1624 79.9932 32.1201 80.4327 31.9957C80.4962 31.9732 80.5584 31.9732 80.6219 31.9732C81.3764 31.9732 81.3764 33.4821 81.3764 35.0096C81.3764 36.6429 81.3764 38.2962 80.6219 38.4471C79.4082 38.6959 78.1706 38.8005 76.9992 38.8005C72.937 38.7991 71.0098 35.9308 71.0098 32.4761ZM42.6113 23.8884C42.6113 15.3655 48.9992 8.97766 57.7748 8.97766C61.6914 8.97766 64.6656 9.75199 67.3671 11.7004C67.5564 11.8261 67.6398 12.0776 67.6398 12.4125C67.6398 13.2504 67.1792 14.5277 66.8019 15.4291C66.1745 16.8943 65.3142 18.2762 64.6021 18.2762C64.4975 18.2762 64.4128 18.2352 64.3096 18.1716C62.4657 16.8731 60.0779 16.2034 57.8582 16.2034C53.9005 16.2034 50.3823 19.3219 50.3823 23.8884C50.3823 28.4351 53.9005 31.5549 57.8582 31.5549C60.0779 31.5549 62.4459 30.864 64.3096 29.6065C64.4141 29.5443 64.5187 29.5231 64.6233 29.5231C65.2507 29.5231 66.0885 30.5913 66.8019 32.2048C67.199 33.1234 67.6398 34.4431 67.6398 35.3008C67.6398 35.6595 67.5776 35.952 67.3671 36.0777C64.6656 37.9825 61.6914 38.8216 57.7748 38.8216C48.9992 38.823 42.6113 32.4126 42.6113 23.8884ZM91.3048 25.8581C86.549 26.7793 83.1777 29.0824 83.1777 32.9977C83.1777 36.9369 85.7959 38.7992 89.0851 38.7992C91.9335 38.7992 93.6516 37.6503 94.8654 35.8899V37.7337C94.8654 38.5716 96.4987 38.5716 98.1321 38.5716C99.7443 38.5716 101.359 38.5716 101.359 37.7337V24.7687C101.359 18.8627 98.0897 16.6006 92.7912 16.6006C89.9229 16.6006 87.4517 17.2915 84.5609 18.8428C84.2472 19.0083 84.1215 19.3034 84.1215 19.6794C84.1215 20.2657 84.4352 21.0427 84.7701 21.8581C85.2717 23.0718 85.8793 24.2022 86.4868 24.2022C86.5715 24.2022 86.6549 24.181 86.7383 24.14C88.9593 22.9686 90.8217 22.5688 92.4352 22.5688C93.7562 22.5688 94.3624 23.2598 94.3624 24.2234V25.2717L91.3048 25.8581ZM94.3611 29.4186V30.7356C94.3611 31.7416 93.5034 32.9792 91.7853 32.9779C90.8429 32.9779 90.2141 32.4127 90.2141 31.6145C90.2141 30.6946 90.9686 30.0659 91.911 29.9203L94.3611 29.4186ZM105.482 37.1869C105.211 37.0413 105.106 36.7713 105.106 36.39C105.106 35.7626 105.42 34.8824 105.817 33.9202C106.341 32.6005 106.887 31.531 107.599 31.531C107.725 31.531 107.849 31.5535 107.975 31.6144C109.357 32.3702 111.515 32.9777 112.917 32.9777C114.907 32.9777 115.578 32.5581 115.578 31.7401C115.578 30.8421 114.305 30.5278 112.782 30.1517L112.772 30.1491L112.654 30.1227C109.78 29.4756 105.399 28.4894 105.399 23.4701C105.399 18.5885 109.211 16.5991 114.531 16.5991C117.167 16.5991 119.433 17.0187 121.505 18.214C121.755 18.3596 121.861 18.611 121.861 18.9883C121.861 19.5945 121.546 20.4747 121.17 21.4171C120.667 22.6534 119.999 23.8248 119.306 23.8248C119.203 23.8248 119.097 23.8023 118.993 23.7414C117.715 23.0293 116.126 22.3993 114.764 22.3993C113.192 22.3993 112.438 22.8797 112.438 23.658C112.438 24.4324 113.632 24.7262 115.162 25.0783C118.094 25.7295 122.618 26.754 122.618 32.0763C122.639 37.437 118.177 38.7964 112.774 38.7964C110.11 38.7991 107.578 38.3596 105.482 37.1869ZM125.044 36.39C125.044 36.7713 125.149 37.0413 125.421 37.1869C127.515 38.3596 130.05 38.7991 132.713 38.7964C138.117 38.7964 142.577 37.437 142.558 32.0763C142.558 26.754 138.033 25.7295 135.101 25.0783C133.571 24.7262 132.377 24.4324 132.377 23.658C132.377 22.8797 133.131 22.3993 134.704 22.3993C136.063 22.3993 137.655 23.0293 138.934 23.7414C139.037 23.8023 139.141 23.8248 139.246 23.8248C139.937 23.8248 140.608 22.6534 141.11 21.4171C141.487 20.4747 141.8 19.5945 141.8 18.9883C141.8 18.611 141.694 18.3596 141.444 18.214C139.371 17.0187 137.109 16.5991 134.468 16.5991C129.149 16.5991 125.338 18.5885 125.338 23.4701C125.338 28.4883 129.718 29.4752 132.59 30.1223L132.709 30.1491L132.717 30.151C134.242 30.5274 135.515 30.8415 135.515 31.7401C135.515 32.5581 134.845 32.9777 132.856 32.9777C131.453 32.9777 129.295 32.3702 127.914 31.6144C127.786 31.5535 127.662 31.531 127.536 31.531C126.824 31.531 126.279 32.6005 125.757 33.9202C125.358 34.8824 125.044 35.7626 125.044 36.39Z" fill="white"></path><path fill-rule="evenodd" clip-rule="evenodd" d="M145.5 34.5176C145.5 34.65 145.54 34.7615 145.625 34.8493C148.203 37.6709 150.752 38.8399 154.651 38.8413C160.394 38.8413 165.5 34.9816 165.5 27.7277C165.5 21.2248 161.226 17.5407 155.821 17.5407H152.864V15.1817H162.755C163.608 15.1817 163.608 13.3299 163.608 11.5004C163.608 9.64866 163.608 7.84131 162.755 7.84131H146.565C146.245 7.84131 145.991 8.08376 145.991 8.43628V23.5838C145.991 23.9795 146.311 24.3111 146.693 24.3111H154.457C156.498 24.3111 157.925 25.6334 157.925 27.7277C157.925 29.7787 156.48 31.0565 154.436 31.0565C153.16 31.0565 152.073 30.396 151.138 29.4025C151.074 29.3161 150.966 29.2924 150.84 29.2924C150.201 29.2924 148.968 30.3082 147.712 31.5205C146.519 32.6895 145.5 33.8558 145.5 34.5176ZM180.58 33.4339V36.7655C180.58 37.6034 182.234 37.6034 183.887 37.6034C185.564 37.6034 187.24 37.6034 187.24 36.7655V33.4339H188.664C189.5 33.4339 189.5 31.696 189.5 29.9369C189.5 28.1976 189.5 26.461 188.664 26.461H187.24V23.4219C187.24 22.5854 185.564 22.5854 183.908 22.5854C182.254 22.5854 180.579 22.5854 180.579 23.4219V26.461H177.06L184.766 8.88843C184.808 8.78254 184.829 8.69915 184.829 8.61576C184.829 7.84143 183.134 7.84143 181.437 7.84143C179.596 7.84143 177.732 7.84143 177.438 8.49134L167.406 31.1493C167.175 31.6973 167.175 32.1169 167.175 32.555C167.175 33.0156 167.175 33.4339 167.805 33.4339H180.58Z" fill="white"></path></g><defs><clipPath id="clip0_332_41"><rect width="190" height="45" fill="white" transform="translate(0 0.5)"></rect></clipPath></defs></svg>