<svg width="190" height="45" viewBox="0 0 190 45" fill="none" xmlns="http://www.w3.org/2000/svg">
<path d="M4.07106 37.37C3.18787 36.5834 2.20506 35.8808 1.44433 34.9893C0.0650669 33.3703 0.194795 31.5022 1.84597 30.1592C2.80803 29.3767 3.96313 28.7488 5.12964 28.3192C8.37283 27.1257 11.6669 26.0536 14.9495 24.9618C16.3879 24.4865 17.8481 24.0682 19.3893 24.4647C20.4157 24.7335 20.9855 25.4475 21.0197 26.5113C21.0654 27.8573 20.5019 29.0353 19.9061 30.1696C19.3592 31.2178 18.6317 32.1757 18.0132 33.1938C15.3657 37.5454 10.0894 39.4363 5.32164 37.725C4.93557 37.5838 4.55261 37.4333 4.16654 37.288C4.1354 37.315 4.10219 37.343 4.07106 37.37ZM17.5119 31.3963C17.6333 30.9459 17.9405 30.1696 18.0298 29.3684C18.1595 28.259 17.5731 27.4557 16.4813 27.246C15.6833 27.0914 14.8281 27.0115 14.0321 27.134C11.5621 27.5055 9.20413 28.3119 7.01744 29.5085C6.13944 29.9859 5.34032 30.6781 4.64809 31.4025C3.51271 32.5867 3.64867 34.1839 4.8816 35.2757C6.26502 36.5034 7.91515 37.0255 9.73238 36.8656C13.2029 36.5657 15.5784 34.6022 17.5119 31.3963Z" fill="#29CC7A"/>
<path d="M16.5107 0.539534C19.208 1.44556 21.7257 2.01429 23.7682 3.67066C26.7114 6.06182 28.1862 9.14832 27.8603 12.9478C27.7036 14.7785 27.0913 16.5179 25.8345 17.9429C24.5548 19.4 22.9099 19.6947 21.3397 18.5811C20.4627 17.9605 19.6096 17.1718 19.0523 16.2678C16.8386 12.6852 14.7225 9.0435 12.6303 5.38931C12.2504 4.7334 12.0532 3.93635 11.9235 3.17873C11.6308 1.49641 12.4922 0.412919 14.1963 0.34546C15.0567 0.312249 15.9285 0.487642 16.5107 0.539534ZM19.0679 2.91824C18.8053 2.85597 18.5479 2.77813 18.2853 2.72935C16.1869 2.34017 14.9539 3.48593 15.2165 5.59687C15.2663 6.00578 15.3431 6.42195 15.4863 6.80387C16.5003 9.49807 17.9252 11.9588 19.9023 14.0604C20.4243 14.6156 21.0854 15.0816 21.7631 15.4417C23.379 16.3041 24.8859 15.7219 25.6788 14.05C26.4738 12.3718 26.5225 10.6552 25.903 8.93868C24.7375 5.68924 22.2768 3.86577 19.0679 2.91824Z" fill="#29CC7A"/>
<path d="M40.3564 40.8001C40.1332 39.8442 39.742 38.8853 39.2252 38.054C37.9362 35.997 36.5372 34.0054 35.1735 31.9962C34.0734 30.372 32.9619 28.7509 31.8535 27.1287C31.8099 27.1609 31.7663 27.1941 31.7207 27.2253C31.5328 27.0333 31.3502 26.8371 31.1582 26.6513C29.426 24.9887 27.4365 24.9607 25.9805 26.3846C26.7609 27.0717 27.2726 27.959 27.7043 28.8785C28.684 28.5122 29.8796 28.7706 31.0731 29.7358C33.5846 31.7741 35.2638 34.4319 36.5797 37.3275C37.0893 38.4514 37.3975 39.7352 36.4926 40.7917C35.6042 41.8265 34.3297 41.6137 33.1425 41.3885C31.8338 41.1405 30.5355 40.5541 29.2942 39.6813C29.1438 40.1524 28.9507 40.6091 28.7359 41.0564C28.7878 41.0906 28.8376 41.129 28.8895 41.1623C31.3803 42.6972 34.1979 43.2971 37.0478 43.7267C37.4276 43.7828 37.8293 43.7423 38.2154 43.6966C39.8613 43.5005 40.7321 42.4087 40.3564 40.8001Z" fill="#29CC7A"/>
<path d="M28.414 28.239C27.6771 27.3029 27.0326 26.291 26.2439 25.4088C26.1578 25.3134 26.0685 25.222 25.9834 25.1297C25.2933 24.3793 24.5419 23.6871 23.5923 23.2657C23.4615 23.2086 23.3421 23.135 23.2052 23.0903C22.1964 22.7468 21.3257 23.0322 20.7154 23.904C19.8053 25.2075 19.688 26.7207 19.6319 28.2338C19.5115 31.6929 19.3621 35.152 19.3496 38.6111C19.3465 39.8534 19.5333 41.1527 19.9277 42.3265C20.6085 44.3441 22.3168 45.1183 24.3146 44.3908C25.4178 43.9881 26.4183 43.3125 27.4623 42.7614C27.4478 42.7219 27.4353 42.6814 27.4187 42.6462C27.6885 42.3317 27.9656 42.0266 28.2324 41.7163C29.54 40.1637 30.3288 38.335 30.609 36.4441C30.6816 35.9532 30.7273 35.4602 30.7304 34.9641C30.7491 32.601 29.978 30.2233 28.414 28.239ZM28.9661 37.2827C28.4825 39.0397 27.4177 40.4076 25.7831 41.2731C24.3291 42.0473 22.7838 41.6177 22.0708 40.1398C21.636 39.2369 21.2655 38.2468 21.1254 37.2588C20.7642 34.7898 20.8348 32.299 21.3464 29.8539C21.5104 29.0662 21.883 28.293 22.3054 27.5987C22.4725 27.3288 22.6707 27.1213 22.8897 26.9614C23.4366 26.566 24.1247 26.5245 24.8356 26.8878C24.8761 26.9085 24.9145 26.9355 24.9539 26.9562C25.6222 27.3226 26.1951 27.826 26.5563 28.0813C28.1929 30.1382 29.156 32.1911 29.2764 34.3923C29.3044 34.9081 29.2982 35.4291 29.2276 35.9667C29.1747 36.3974 29.0896 36.8343 28.9661 37.2827Z" fill="#00506B"/>
<path d="M4.05183 17.952C6.42429 16.3766 8.41795 14.7378 10.9783 14.1421C14.6719 13.2859 18.0157 14.0165 20.8147 16.6059C22.1639 17.8524 23.1612 19.4029 23.5151 21.2689C23.8805 23.1733 23.1031 24.6543 21.26 25.2116C20.2336 25.5209 19.0857 25.7108 18.0323 25.5946C13.8447 25.1442 9.6706 24.5806 5.49855 23.9922C4.74821 23.8853 4.00098 23.5532 3.32017 23.191C1.81429 22.3887 1.48841 21.0447 2.48161 19.6572C2.9808 18.9608 3.65331 18.3785 4.05183 17.952ZM7.49844 17.3936C7.28984 17.5587 7.06982 17.7154 6.86952 17.8928C5.27335 19.3084 5.42176 20.9866 7.24936 22.0753C7.6043 22.287 7.97999 22.4832 8.36813 22.6046C11.1184 23.4567 13.935 23.8417 16.8077 23.5698C17.5663 23.4982 18.3406 23.2636 19.0421 22.9492C20.7151 22.205 21.178 20.6556 20.3467 19.0033C19.5092 17.3449 18.1839 16.252 16.4465 15.6885C13.166 14.6154 10.2165 15.4394 7.49844 17.3936Z" fill="#00506B"/>
<path d="M23.3004 17.9792C24.9785 16.959 26.6546 15.9347 28.3369 14.9197C30.4178 13.667 32.4768 12.3749 34.6012 11.1981C35.4574 10.7258 36.4382 10.3844 37.4013 10.2152C39.0286 9.92568 40.0747 10.8504 40.1816 12.5067C40.2086 12.8949 40.2273 13.2976 40.1515 13.6743C39.5714 16.4972 38.821 19.2806 37.1574 21.6832C33.9951 26.2579 27.9197 27.6071 23.4052 24.7967C20.8843 23.2316 20.627 20.6734 22.7856 18.6486C22.9828 18.468 23.1852 18.2937 23.3876 18.1162C23.3616 18.0695 23.3315 18.0238 23.3004 17.9792ZM34.1083 22.9078C35.9691 21.2691 37.1356 19.3803 37.6088 17.4478C37.8974 16.2751 38.1786 15.0141 37.1916 14.0718C36.186 13.1128 34.8856 13.3505 33.7367 13.8009C30.7748 14.9612 28.0297 16.4972 25.8638 18.8966C23.8681 21.1103 24.4928 23.4765 27.3437 24.3442C30.0722 25.1744 32.4052 24.2777 34.1083 22.9078Z" fill="#00506B"/>
<path fill-rule="evenodd" clip-rule="evenodd" d="M71.0098 31.9761V7.20035C71.0098 6.34131 72.7689 6.34131 74.528 6.34131C76.2871 6.34131 78.0462 6.34131 78.0462 7.20035V30.4262C78.0462 31.1383 78.381 31.6624 79.2401 31.6624C79.5961 31.6624 79.9932 31.6201 80.4327 31.4957C80.4962 31.4732 80.5584 31.4732 80.6219 31.4732C81.3764 31.4732 81.3764 32.9821 81.3764 34.5096C81.3764 36.1429 81.3764 37.7962 80.6219 37.9471C79.4082 38.1959 78.1706 38.3005 76.9992 38.3005C72.937 38.2991 71.0098 35.4308 71.0098 31.9761ZM42.6113 23.3884C42.6113 14.8655 48.9992 8.47766 57.7748 8.47766C61.6914 8.47766 64.6656 9.25199 67.3671 11.2004C67.5564 11.3261 67.6398 11.5776 67.6398 11.9125C67.6398 12.7504 67.1792 14.0277 66.8019 14.9291C66.1745 16.3943 65.3142 17.7762 64.6021 17.7762C64.4975 17.7762 64.4128 17.7352 64.3096 17.6716C62.4657 16.3731 60.0779 15.7034 57.8582 15.7034C53.9005 15.7034 50.3823 18.8219 50.3823 23.3884C50.3823 27.9351 53.9005 31.0549 57.8582 31.0549C60.0779 31.0549 62.4459 30.364 64.3096 29.1065C64.4141 29.0443 64.5187 29.0231 64.6233 29.0231C65.2507 29.0231 66.0885 30.0913 66.8019 31.7048C67.199 32.6234 67.6398 33.9431 67.6398 34.8008C67.6398 35.1595 67.5776 35.452 67.3671 35.5777C64.6656 37.4825 61.6914 38.3216 57.7748 38.3216C48.9992 38.323 42.6113 31.9126 42.6113 23.3884ZM91.3048 25.3581C86.549 26.2793 83.1777 28.5824 83.1777 32.4977C83.1777 36.4369 85.7959 38.2992 89.0851 38.2992C91.9335 38.2992 93.6516 37.1503 94.8654 35.3899V37.2337C94.8654 38.0716 96.4987 38.0716 98.1321 38.0716C99.7443 38.0716 101.359 38.0716 101.359 37.2337V24.2687C101.359 18.3627 98.0897 16.1006 92.7912 16.1006C89.9229 16.1006 87.4517 16.7915 84.5609 18.3428C84.2472 18.5083 84.1215 18.8034 84.1215 19.1794C84.1215 19.7657 84.4352 20.5427 84.7701 21.3581C85.2717 22.5718 85.8793 23.7022 86.4868 23.7022C86.5715 23.7022 86.6549 23.681 86.7383 23.64C88.9593 22.4686 90.8217 22.0688 92.4352 22.0688C93.7562 22.0688 94.3624 22.7598 94.3624 23.7234V24.7717L91.3048 25.3581ZM94.3611 28.9186V30.2356C94.3611 31.2416 93.5034 32.4792 91.7853 32.4779C90.8429 32.4779 90.2141 31.9127 90.2141 31.1145C90.2141 30.1946 90.9686 29.5659 91.911 29.4203L94.3611 28.9186ZM105.482 36.6869C105.211 36.5413 105.106 36.2713 105.106 35.89C105.106 35.2626 105.42 34.3824 105.817 33.4202C106.341 32.1005 106.887 31.031 107.599 31.031C107.725 31.031 107.849 31.0535 107.975 31.1144C109.357 31.8702 111.515 32.4777 112.917 32.4777C114.907 32.4777 115.578 32.0581 115.578 31.2401C115.578 30.3421 114.305 30.0278 112.782 29.6517L112.772 29.6491L112.654 29.6227C109.78 28.9756 105.399 27.9894 105.399 22.9701C105.399 18.0885 109.211 16.0991 114.531 16.0991C117.167 16.0991 119.433 16.5187 121.505 17.714C121.755 17.8596 121.861 18.111 121.861 18.4883C121.861 19.0945 121.546 19.9747 121.17 20.9171C120.667 22.1534 119.999 23.3248 119.306 23.3248C119.203 23.3248 119.097 23.3023 118.993 23.2414C117.715 22.5293 116.126 21.8993 114.764 21.8993C113.192 21.8993 112.438 22.3797 112.438 23.158C112.438 23.9324 113.632 24.2262 115.162 24.5783C118.094 25.2295 122.618 26.254 122.618 31.5763C122.639 36.937 118.177 38.2964 112.774 38.2964C110.11 38.2991 107.578 37.8596 105.482 36.6869ZM125.044 35.89C125.044 36.2713 125.149 36.5413 125.421 36.6869C127.515 37.8596 130.05 38.2991 132.713 38.2964C138.117 38.2964 142.577 36.937 142.558 31.5763C142.558 26.254 138.033 25.2295 135.101 24.5783C133.571 24.2262 132.377 23.9324 132.377 23.158C132.377 22.3797 133.131 21.8993 134.704 21.8993C136.063 21.8993 137.655 22.5293 138.934 23.2414C139.037 23.3023 139.141 23.3248 139.246 23.3248C139.937 23.3248 140.608 22.1534 141.11 20.9171C141.487 19.9747 141.8 19.0945 141.8 18.4883C141.8 18.111 141.694 17.8596 141.444 17.714C139.371 16.5187 137.109 16.0991 134.468 16.0991C129.149 16.0991 125.338 18.0885 125.338 22.9701C125.338 27.9883 129.718 28.9752 132.59 29.6223L132.709 29.6491L132.717 29.651C134.242 30.0274 135.515 30.3415 135.515 31.2401C135.515 32.0581 134.845 32.4777 132.856 32.4777C131.453 32.4777 129.295 31.8702 127.914 31.1144C127.786 31.0535 127.662 31.031 127.536 31.031C126.824 31.031 126.279 32.1005 125.757 33.4202C125.358 34.3824 125.044 35.2626 125.044 35.89Z" fill="#00506B"/>
<path fill-rule="evenodd" clip-rule="evenodd" d="M145.5 34.0176C145.5 34.15 145.54 34.2615 145.625 34.3493C148.203 37.1709 150.752 38.3399 154.651 38.3413C160.394 38.3413 165.5 34.4816 165.5 27.2277C165.5 20.7248 161.226 17.0407 155.821 17.0407H152.864V14.6817H162.755C163.608 14.6817 163.608 12.8299 163.608 11.0004V11.0003V11.0002C163.608 9.14846 163.608 7.34131 162.755 7.34131H146.565C146.245 7.34131 145.991 7.58376 145.991 7.93628V23.0838C145.991 23.4795 146.311 23.8111 146.693 23.8111H154.457C156.498 23.8111 157.925 25.1334 157.925 27.2277C157.925 29.2787 156.48 30.5565 154.436 30.5565C153.16 30.5565 152.073 29.896 151.138 28.9025C151.074 28.8161 150.966 28.7924 150.84 28.7924C150.201 28.7924 148.968 29.8082 147.712 31.0205C146.519 32.1895 145.5 33.3558 145.5 34.0176ZM180.58 32.9339V36.2655C180.58 37.1034 182.234 37.1034 183.887 37.1034C185.564 37.1034 187.24 37.1034 187.24 36.2655V32.9339H188.664C189.5 32.9339 189.5 31.196 189.5 29.4369C189.5 27.6976 189.5 25.961 188.664 25.961H187.24V22.9219C187.24 22.0854 185.564 22.0854 183.908 22.0854C182.254 22.0854 180.579 22.0854 180.579 22.9219V25.961H177.06L184.766 8.38843C184.808 8.28254 184.829 8.19915 184.829 8.11576C184.829 7.34143 183.134 7.34143 181.437 7.34143C179.596 7.34143 177.732 7.34143 177.438 7.99134L167.406 30.6493C167.175 31.1973 167.175 31.6169 167.175 32.055C167.175 32.5156 167.175 32.9339 167.805 32.9339H180.58Z" fill="#29CC7A"/>
</svg>
