<svg xmlns="http://www.w3.org/2000/svg" width="392" height="275" viewBox="0 0 392 275" fill="none"><g clip-path="url(#clip0_441_871)"><path d="M292.25 25.1399H38.9902V215.39H292.25V25.1399Z" fill="white"></path><path d="M292.25 25.1399H38.9902V43.3099H292.25V25.1399Z" fill="#90AB1C"></path><path d="M281.35 29.6899H131.09V38.7799H281.35V29.6899Z" fill="white"></path><path d="M52.3198 34.2298C52.3198 36.2298 50.6898 37.8598 48.6798 37.8598C46.6698 37.8598 45.0498 36.2298 45.0498 34.2298C45.0498 32.2298 46.6798 30.5898 48.6798 30.5898C50.6798 30.5898 52.3198 32.2098 52.3198 34.2298Z" fill="#7EB3FF"></path><path d="M63.8305 34.2298C63.8305 36.2298 62.2005 37.8598 60.1905 37.8598C58.1805 37.8598 56.5605 36.2298 56.5605 34.2298C56.5605 32.2298 58.1805 30.5898 60.1905 30.5898C62.2005 30.5898 63.8305 32.2098 63.8305 34.2298Z" fill="#FEC12F"></path><path d="M75.3401 34.2298C75.3401 36.2298 73.7101 37.8598 71.7101 37.8598C69.7101 37.8598 68.0801 36.2298 68.0801 34.2298C68.0801 32.2298 69.7101 30.5898 71.7101 30.5898C73.7101 30.5898 75.3401 32.2098 75.3401 34.2298Z" fill="#0561FC"></path><path d="M374.74 189.96C374.74 176.06 371.43 173.23 366.99 169.45C363.42 166.41 355.73 165.37 349.88 165.02C347.71 164.9 343.87 164.87 342.12 165.02C336.28 165.36 328.58 166.41 325.01 169.45C320.57 173.23 317.26 176.06 317.26 189.96C317.26 203.86 316.35 243.97 316.58 244.66C316.81 245.34 313.64 274.53 343.7 274.51C344.5 274.51 347.5 274.51 348.29 274.51C378 274.15 375.18 245.34 375.41 244.66C375.64 243.97 374.73 203.86 374.73 189.96H374.74Z" fill="#C5E1F9"></path><path d="M352.31 249.79C352.1 237.29 351.83 221.97 351.83 214.41C351.83 200.51 348.52 197.69 344.08 193.9C340.51 190.86 332.82 189.82 326.97 189.47C325.13 189.37 320.22 191.64 320.07 196.33C319.53 213.7 319.28 240.97 319.46 241.53C319.64 242.07 317.44 260.88 331.69 268.06C343.06 273.79 352.48 260.27 352.3 249.78L352.31 249.79Z" fill="#EAF4FE"></path><path d="M99.0596 189.49V186.3C103.48 185.8 106.8 184.14 109.01 181.32C111.22 178.49 115.01 170.75 120.38 158.11L156.19 73.75H159.61L202.44 171.21C205.3 177.66 207.57 181.65 209.28 183.18C210.99 184.71 213.86 185.75 217.89 186.31V189.5H174.18V186.31C179.2 185.87 182.44 185.33 183.89 184.68C185.34 184.04 186.07 182.47 186.07 179.96C186.07 179.12 185.79 177.65 185.23 175.53C184.67 173.41 183.89 171.18 182.88 168.84L176 152.31H130.7C126.24 163.56 123.57 170.42 122.7 172.9C121.83 175.38 121.39 177.34 121.39 178.79C121.39 181.68 122.57 183.69 124.92 184.8C126.37 185.47 129.11 185.97 133.13 186.3V189.49H99.0696H99.0596ZM173.09 145.34L153.1 99.43L133.6 145.34H173.09Z" fill="#4DE266"></path><path d="M153.324 55.5058L151.859 56.1497L214.904 199.564L216.368 198.92L153.324 55.5058Z" fill="#9AC7F7"></path><path d="M133.338 55.5302L131.873 56.1738L194.888 199.59L196.353 198.947L133.338 55.5302Z" fill="#9AC7F7"></path><path d="M162.692 55.2001L101.153 199.267L102.625 199.896L164.164 55.8286L162.692 55.2001Z" fill="#9AC7F7"></path><path d="M171.185 55.1881L109.671 199.266L111.142 199.894L172.656 55.8164L171.185 55.1881Z" fill="#9AC7F7"></path><path d="M94.0699 187.83C82.6899 187.83 73.4199 178.57 73.4199 167.19C73.4199 155.81 82.6799 146.54 94.0699 146.54C105.46 146.54 114.72 155.8 114.72 167.19C114.72 178.58 105.46 187.83 94.0699 187.83ZM94.0699 148.14C83.5699 148.14 75.0299 156.68 75.0299 167.18C75.0299 177.68 83.5699 186.22 94.0699 186.22C104.57 186.22 113.12 177.68 113.12 167.18C113.12 156.68 104.58 148.14 94.0699 148.14Z" fill="#9AC7F7"></path><path d="M216.75 185.71C210.29 185.71 205.03 180.45 205.03 173.99C205.03 167.53 210.28 162.27 216.75 162.27C223.22 162.27 228.47 167.53 228.47 173.99C228.47 180.45 223.21 185.71 216.75 185.71ZM216.75 163.88C211.17 163.88 206.64 168.42 206.64 173.99C206.64 179.56 211.18 184.11 216.75 184.11C222.32 184.11 226.86 179.57 226.86 173.99C226.86 168.41 222.32 163.88 216.75 163.88Z" fill="#9AC7F7"></path><path d="M181.67 185.17C179.26 185.17 177.29 183.2 177.29 180.79C177.29 178.38 179.26 176.41 181.67 176.41C184.08 176.41 186.05 178.38 186.05 180.79C186.05 183.2 184.08 185.17 181.67 185.17ZM181.67 178.01C180.14 178.01 178.89 179.26 178.89 180.79C178.89 182.32 180.14 183.57 181.67 183.57C183.2 183.57 184.45 182.32 184.45 180.79C184.45 179.26 183.2 178.01 181.67 178.01Z" fill="#9AC7F7"></path><path d="M129.04 186.02C124.92 186.02 121.58 182.67 121.58 178.56C121.58 174.45 124.93 171.1 129.04 171.1C133.15 171.1 136.5 174.45 136.5 178.56C136.5 182.67 133.15 186.02 129.04 186.02ZM129.04 172.7C125.81 172.7 123.18 175.33 123.18 178.56C123.18 181.79 125.81 184.42 129.04 184.42C132.27 184.42 134.9 181.79 134.9 178.56C134.9 175.33 132.27 172.7 129.04 172.7Z" fill="#9AC7F7"></path><path d="M232.2 189.63H88.1104V191.23H232.2V189.63Z" fill="#9AC7F7"></path><path d="M232.2 151.78H88.1104V153.38H232.2V151.78Z" fill="#9AC7F7"></path><path d="M232.2 144.34H88.1104V145.94H232.2V144.34Z" fill="#9AC7F7"></path><path d="M227.46 198.87H92.4805V201.01H227.46V198.87Z" fill="#7EB3FF"></path><path d="M227.46 55.03H92.4805V57.17H227.46V55.03Z" fill="#7EB3FF"></path><path d="M89.0902 60.53H86.9502V195.51H89.0902V60.53Z" fill="#7EB3FF"></path><path d="M232.92 60.53H230.78V195.51H232.92V60.53Z" fill="#7EB3FF"></path><path d="M165.619 50.6201H154.319V61.9101H165.619V50.6201Z" fill="white"></path><path d="M166.69 62.9901H153.26V49.5601H166.69V62.9901ZM155.4 60.8501H164.56V51.6901H155.4V60.8501Z" fill="#7EB3FF"></path><path d="M165.619 194.73H154.319V206.02H165.619V194.73Z" fill="#C5E1F9"></path><path d="M166.69 207.09H153.26V193.66H166.69V207.09ZM155.4 204.95H164.56V195.79H155.4V204.95Z" fill="#7EB3FF"></path><path d="M237.681 122.68H226.381V133.97H237.681V122.68Z" fill="white"></path><path d="M238.741 135.04H225.311V121.61H238.741V135.04ZM227.441 132.9H236.601V123.74H227.441V132.9Z" fill="#7EB3FF"></path><path d="M93.5705 122.68H82.2705V133.97H93.5705V122.68Z" fill="white"></path><path d="M94.6302 135.04H81.2002V121.61H94.6302V135.04ZM83.3402 132.9H92.5002V123.74H83.3402V132.9Z" fill="#7EB3FF"></path><path d="M95.4394 50.6201H84.1494V61.9101H95.4394V50.6201Z" fill="white"></path><path d="M96.5198 62.9901H83.0898V49.5601H96.5198V62.9901ZM85.2299 60.8501H94.3898V51.6901H85.2299V60.8501Z" fill="#7EB3FF"></path><path d="M235.779 50.6201H224.489V61.9101H235.779V50.6201Z" fill="white"></path><path d="M236.86 62.9901H223.43V49.5601H236.86V62.9901ZM225.57 60.8501H234.73V51.6901H225.57V60.8501Z" fill="#7EB3FF"></path><path d="M95.4394 194.73H84.1494V206.02H95.4394V194.73Z" fill="white"></path><path d="M96.5198 207.09H83.0898V193.66H96.5198V207.09ZM85.2299 204.95H94.3898V195.79H85.2299V204.95Z" fill="#7EB3FF"></path><path d="M235.779 194.73H224.489V206.02H235.779V194.73Z" fill="white"></path><path d="M236.86 207.09H223.43V193.66H236.86V207.09ZM225.57 204.95H234.73V195.79H225.57V204.95Z" fill="#7EB3FF"></path><path d="M280.85 178.88L267.9 174.68L254.95 170.47L259.16 183.42L263.36 196.37L267.92 187.51L274.83 194.43L278.9 190.35L271.99 183.44L280.85 178.88Z" fill="#0450CF"></path><path d="M267.9 174.68L254.95 170.47L255.09 170.9L276.72 192.53L278.9 190.35L271.99 183.44L280.85 178.88L267.9 174.68Z" fill="#0561FC"></path><path d="M391.79 59.1099H252.7V138.4H391.79V59.1099Z" fill="#300034"></path><path d="M391.79 58.6499H252.7V65.0199H391.79V58.6499Z" fill="#9FC400"></path><path d="M391.78 63.6299H297.71V71.9599H391.78V63.6299Z" fill="#9FC400"></path><path d="M315.32 76.3298H279.67V85.9698H315.32V76.3298Z" fill="#F8FCFF"></path><path d="M273.7 78.98H269.73V83.32H273.7V78.98Z" fill="#9FC400"></path><path d="M305.88 125.04H263.91V126.27H305.88V125.04Z" fill="#F8FCFF"></path><path d="M281.591 68.1899H255.811V69.4099H281.591V68.1899Z" fill="#F8FCFF"></path><path d="M308.81 80.25H283.03V81.47H308.81V80.25Z" fill="#9FC400"></path><path d="M317.791 68.1899H300.771V69.4099H317.791V68.1899Z" fill="#9FC400"></path><path d="M344.15 68.1899H327.13V69.4099H344.15V68.1899Z" fill="#9FC400"></path><path d="M332.24 78.98H328.26V83.32H332.24V78.98Z" fill="#9FC400"></path><path d="M257.9 80.6299H255.91V82.7999H257.9V80.6299Z" fill="#9FC400"></path><path d="M261.261 80.6299H259.271V82.7999H261.261V80.6299Z" fill="#9FC400"></path><path d="M264.61 80.6299H262.62V82.7999H264.61V80.6299Z" fill="#9FC400"></path><path d="M257.9 87.1599H255.91V89.3299H257.9V87.1599Z" fill="#9FC400"></path><path d="M261.261 87.1599H259.271V89.3299H261.261V87.1599Z" fill="#9FC400"></path><path d="M264.61 87.1599H262.62V89.3299H264.61V87.1599Z" fill="#9FC400"></path><path d="M261.261 83.8098H259.271V85.9698H261.261V83.8098Z" fill="#F8FCFF"></path><path d="M256.43 60.8298H254.44V62.9898H256.43V60.8298Z" fill="#9FC400"></path><path d="M264.61 80.6299H262.44V82.6099H264.61V80.6299Z" fill="#9FC400"></path><path d="M382.62 83.8298H380.45V85.8098H382.62V83.8298Z" fill="#9FC400"></path><path d="M382.62 87.6199H380.45V89.6099H382.62V87.6199Z" fill="#9FC400"></path><path d="M264.61 83.99H262.44V85.97H264.61V83.99Z" fill="#9FC400"></path><path d="M264.61 87.3398H262.44V89.3298H264.61V87.3398Z" fill="#9FC400"></path><path d="M258.08 80.6299H255.91V82.6099H258.08V80.6299Z" fill="#9FC400"></path><path d="M258.08 83.99H255.91V85.97H258.08V83.99Z" fill="#9FC400"></path><path d="M258.08 87.3398H255.91V89.3298H258.08V87.3398Z" fill="#9FC400"></path><path d="M371.2 76.3298H335.55V85.9698H371.2V76.3298Z" fill="#F8FCFF"></path><path d="M315.32 90.45H279.67V100.09H315.32V90.45Z" fill="#F8FCFF"></path><path d="M273.7 93.0999H269.73V97.4399H273.7V93.0999Z" fill="#9FC400"></path><path d="M332.24 93.0999H328.26V97.4399H332.24V93.0999Z" fill="#9FC400"></path><path d="M371.2 90.45H335.55V100.09H371.2V90.45Z" fill="#F8FCFF"></path><path d="M315.32 104.58H279.67V114.22H315.32V104.58Z" fill="#F8FCFF"></path><path d="M315.321 104.58H306.891V114.22H315.321V104.58Z" fill="#9FC400"></path><path d="M273.7 107.23H269.73V111.57H273.7V107.23Z" fill="#9FC400"></path><path d="M260.18 123.48H256.21V127.82H260.18V123.48Z" fill="#9FC400"></path><path d="M260.18 123.48H256.21V127.82H260.18V123.48Z" fill="#9FC400"></path><path d="M259.05 124.71H257.33V126.59H259.05V124.71Z" fill="#F8FCFF"></path><path d="M305.88 131.76H263.91V132.98H305.88V131.76Z" fill="#F8FCFF"></path><path d="M260.18 130.2H256.21V134.54H260.18V130.2Z" fill="#9FC400"></path><path d="M332.24 107.23H328.26V111.57H332.24V107.23Z" fill="#9FC400"></path><path d="M371.2 104.58H335.55V114.22H371.2V104.58Z" fill="#F8FCFF"></path><path d="M371.201 104.58H362.771V114.22H371.201V104.58Z" fill="#9FC400"></path><path d="M308.81 94.6399H283.03V95.8599H308.81V94.6399Z" fill="#9FC400"></path><path d="M292.381 108.93H282.771V110.16H292.381V108.93Z" fill="#9FC400"></path><path d="M348.2 108.93H338.59V110.16H348.2V108.93Z" fill="#9FC400"></path><path d="M364.631 94.6399H338.851V95.8599H364.631V94.6399Z" fill="#9FC400"></path><path d="M364.631 80.25H338.851V81.47H364.631V80.25Z" fill="#9FC400"></path><path d="M177.63 230.74H38.54V271.39H177.63V230.74Z" fill="#300034"></path><path d="M177.63 230.28H38.54V236.64H177.63V230.28Z" fill="#9FC400"></path><path d="M177.63 235.25H107.68V243.59H177.63V235.25Z" fill="#4DE266"></path><path d="M73.32 235.25H38.54V243.59H73.32V235.25Z" fill="#4DE266"></path><path d="M67.4402 239.82H41.6602V241.04H67.4402V239.82Z" fill="#0450CF"></path><path d="M98.4702 239.82H81.4502V241.04H98.4702V239.82Z" fill="#9AC7F7"></path><path d="M130 239.82H112.98V241.04H130V239.82Z" fill="#0450CF"></path><path d="M42.27 232.46H40.29V234.63H42.27V232.46Z" fill="#003E99"></path><path d="M44.4405 260.99H42.2705V262.98H44.4405V260.99Z" fill="white"></path><path d="M171.23 260.99H169.06V262.98H171.23V260.99Z" fill="#003E99"></path><path d="M171.95 248.44H42.1699V258.08H171.95V248.44Z" fill="url(#paint0_linear_441_871)"></path><path d="M24.72 0.340088H0V244.49H24.72V0.340088Z" fill="#B9FFC4"></path><path d="M24.72 0H0V4.7H24.72V0Z" fill="#300034"></path><path d="M3.35965 1.98999H1.88965V3.58999H3.35965V1.98999Z" fill="#300034"></path><path d="M9.69977 201.66H6.75977V204.87H9.69977V201.66Z" fill="#300034"></path><path d="M9.38973 225.52H6.21973V227.88H9.38973V225.52Z" fill="#300034"></path><path d="M13.6095 225.52H10.4395V227.88H13.6095V225.52Z" fill="#300034"></path><path d="M17.8194 225.52H14.6494V227.88H17.8194V225.52Z" fill="#300034"></path><path d="M16.8296 201.66H13.8896V204.87H16.8296V201.66Z" fill="#300034"></path><path d="M18.9203 23.73H5.57031V37.09H18.9203V23.73Z" fill="#B9FFC4"></path><path d="M18.9203 9.30005H5.57031V22.65H18.9203V9.30005Z" fill="#300034"></path><path d="M18.9203 67.01H5.57031V80.36H18.9203V67.01Z" fill="#B9FFC4"></path><path d="M18.9203 38.1602H5.57031V51.5102H18.9203V38.1602Z" fill="#B9FFC4"></path><path d="M18.9203 81.4299H5.57031V94.7799H18.9203V81.4299Z" fill="#B9FFC4"></path><path d="M18.9203 52.5801H5.57031V65.9301H18.9203V52.5801Z" fill="#B9FFC4"></path><path d="M18.9203 110.23H5.57031V123.58H18.9203V110.23Z" fill="#B9FFC4"></path><path d="M18.9203 95.8H5.57031V109.15H18.9203V95.8Z" fill="#B9FFC4"></path><path d="M18.9203 153.5H5.57031V166.85H18.9203V153.5Z" fill="#B9FFC4"></path><path d="M18.9203 124.65H5.57031V138H18.9203V124.65Z" fill="#B9FFC4"></path><path d="M18.9203 167.93H5.57031V181.28H18.9203V167.93Z" fill="#B9FFC4"></path><path d="M18.9203 139.08H5.57031V152.43H18.9203V139.08Z" fill="#B9FFC4"></path><path d="M18.9203 182.42H5.57031V195.77H18.9203V182.42Z" fill="#B9FFC4"></path><path d="M8.40006 178.25C8.32006 178.25 8.25006 178.22 8.20006 178.17C8.14006 178.11 8.11006 178.03 8.12006 177.96L8.23006 176.11C8.23006 176.04 8.26006 175.98 8.31006 175.93L13.8001 170.44C13.8501 170.39 13.9201 170.36 14.0001 170.36C14.0801 170.36 14.1501 170.39 14.2001 170.44L15.9301 172.17C15.9901 172.22 16.0201 172.29 16.0201 172.37C16.0201 172.45 15.9901 172.51 15.9301 172.57L10.4401 178.07C10.3901 178.11 10.3301 178.15 10.2601 178.15L8.42006 178.26H8.40006V178.25ZM8.78006 176.25L8.70006 177.67L10.1201 177.58L15.3401 172.36L14.0001 171.02L8.78006 176.24V176.25Z" fill="#300034"></path><path d="M14.7605 173.45C14.6905 173.45 14.6205 173.42 14.5605 173.37L13.0005 171.81C12.8905 171.7 12.8905 171.52 13.0005 171.41C13.1105 171.3 13.2905 171.3 13.4005 171.41L14.9605 172.97C15.0705 173.08 15.0705 173.26 14.9605 173.37C14.9005 173.43 14.8305 173.45 14.7605 173.45Z" fill="#300034"></path><path d="M9.66043 176.99C9.59043 176.99 9.52043 176.96 9.46043 176.91C9.35043 176.8 9.35043 176.62 9.46043 176.51L13.7504 172.22C13.8604 172.11 14.0404 172.11 14.1504 172.22C14.2604 172.33 14.2604 172.51 14.1504 172.62L9.86043 176.91C9.81043 176.96 9.73043 176.99 9.66043 176.99Z" fill="#300034"></path><path d="M9.0803 178.2C9.0803 178.2 9.0403 178.2 9.0203 178.2C8.8703 178.17 8.7703 178.03 8.8103 177.87C8.8203 177.75 8.8003 177.67 8.7503 177.62C8.7003 177.57 8.6203 177.55 8.5403 177.56C8.3903 177.59 8.2303 177.49 8.2003 177.33C8.1803 177.18 8.2603 177.05 8.4103 177.01C8.4103 177.01 8.4703 176.99 8.4803 176.99C8.7403 176.97 8.9803 177.06 9.1603 177.22C9.3203 177.39 9.4103 177.63 9.3803 177.88C9.3803 177.92 9.3703 177.94 9.3603 177.97C9.3403 178.11 9.2103 178.2 9.0903 178.2H9.0803Z" fill="#300034"></path><path d="M16.1005 178.19H12.0505C11.8905 178.19 11.7705 178.07 11.7705 177.91C11.7705 177.76 11.9005 177.63 12.0505 177.63H16.1005C16.2505 177.63 16.3805 177.76 16.3805 177.91C16.3805 178.07 16.2505 178.19 16.1005 178.19Z" fill="#300034"></path><path d="M15.6205 19.46C15.5305 19.46 15.4505 19.43 15.3805 19.36L12.8905 16.87C12.7605 16.74 12.7605 16.53 12.8905 16.39C13.0205 16.26 13.2405 16.26 13.3705 16.39L15.8705 18.88C16.0005 19.01 16.0005 19.23 15.8705 19.36C15.8005 19.43 15.7105 19.46 15.6205 19.46Z" fill="white"></path><path d="M11.6802 19.7401C11.5502 19.7401 11.4202 19.6601 11.3702 19.5401L8.27018 12.2201C8.22018 12.0901 8.25018 11.9501 8.34018 11.8501C8.44018 11.7501 8.58018 11.7201 8.71018 11.7801L16.0302 14.8801C16.1502 14.9301 16.2302 15.0601 16.2402 15.1801C16.2402 15.3201 16.1602 15.4401 16.0402 15.5001L13.2202 16.7301L11.9902 19.5401C11.9402 19.6601 11.8202 19.7401 11.6802 19.7401ZM9.22018 12.7201L11.6802 18.5401L12.6502 16.3301C12.6902 16.2501 12.7502 16.1901 12.8302 16.1501L15.0402 15.1901L9.22018 12.7301V12.7201Z" fill="white"></path><path d="M16.2508 29.63C16.2508 29.49 16.1708 29.37 16.0408 29.32L8.72079 26.23C8.59079 26.18 8.44079 26.2 8.35079 26.3C8.25079 26.4 8.22079 26.55 8.28079 26.68L11.3808 33.99C11.4308 34.12 11.5608 34.2 11.6908 34.2C11.8308 34.2 11.9408 34.12 12.0008 33.99L13.0908 31.51L15.4008 33.82C15.4708 33.89 15.5508 33.92 15.6408 33.92C15.7308 33.92 15.8208 33.89 15.8908 33.82C16.0208 33.69 16.0208 33.47 15.8908 33.34L13.5808 31.03L16.0608 29.95C16.1808 29.89 16.2608 29.77 16.2608 29.63H16.2508Z" fill="#300034"></path><path d="M12.4103 58.75H12.0703V62.15H12.4103V58.75Z" fill="#300034"></path><path d="M12.2509 58.5701C12.0509 58.5701 11.8809 58.7401 11.8809 58.9501C11.8809 59.1601 12.0409 59.3201 12.2509 59.3201C12.4609 59.3201 12.6209 59.1501 12.6209 58.9501C12.6209 58.7501 12.4609 58.5701 12.2509 58.5701Z" fill="#300034"></path><path d="M14.4008 54.8401H10.0908V55.5201H14.4008V54.8401Z" fill="#300034"></path><path d="M12.5108 62.7102H11.9708L9.30078 59.3002L10.4608 56.9102V55.6802H14.0108V56.9102L15.1808 59.3002L12.5008 62.7102H12.5108ZM10.1008 59.2202L12.2408 61.9602L14.3808 59.2202L13.3308 57.0702V56.3602H11.1308V57.0602L10.0908 59.2102L10.1008 59.2202Z" fill="#300034"></path><path d="M12.3708 88.72C12.2708 88.72 12.1608 88.67 12.0908 88.58C11.9808 88.42 12.0208 88.21 12.1708 88.1C13.3808 87.22 14.4908 86.12 15.3608 84.91C15.4808 84.73 15.4608 84.52 15.4308 84.48C15.3908 84.45 15.1908 84.43 15.0008 84.56C13.8008 85.43 12.6908 86.53 11.8108 87.75C11.7008 87.9 11.4908 87.94 11.3308 87.83C11.1808 87.72 11.1408 87.51 11.2608 87.36C12.1808 86.09 13.3408 84.93 14.6108 84.01C15.0508 83.72 15.6208 83.72 15.9108 84.01C16.2108 84.3 16.2108 84.88 15.9108 85.31C14.9808 86.6 13.8308 87.75 12.5508 88.66C12.4908 88.7 12.4208 88.73 12.3508 88.73L12.3708 88.72Z" fill="#300034"></path><path d="M12.0304 89.19C11.9404 89.19 11.8604 89.15 11.7804 89.09L10.8104 88.11C10.6804 87.98 10.6804 87.77 10.8104 87.63C10.9404 87.5 11.1604 87.5 11.2904 87.63L12.2604 88.6C12.3904 88.73 12.3904 88.95 12.2604 89.09C12.1904 89.15 12.1104 89.19 12.0204 89.19H12.0304Z" fill="#300034"></path><path d="M12.2802 88.9401C12.1902 88.9401 12.1002 88.91 12.0402 88.85L11.0702 87.88C10.9402 87.74 10.9402 87.53 11.0702 87.39C11.2002 87.27 11.4202 87.27 11.5502 87.39L12.5202 88.3601C12.6502 88.5001 12.6502 88.7 12.5202 88.84C12.4502 88.91 12.3602 88.9401 12.2802 88.9401Z" fill="#300034"></path><path d="M8.78059 91.74C8.78059 91.74 8.72059 91.74 8.70059 91.73C8.58059 91.7 8.48059 91.61 8.45059 91.48C8.22059 90.55 8.42059 89.28 9.41059 88.7C9.72059 88.52 10.0406 88.35 10.3706 88.2C10.4906 88.14 10.6506 88.16 10.7506 88.27L11.7706 89.29C11.8506 89.36 11.8906 89.48 11.8706 89.6C11.7806 89.99 11.6206 90.56 11.1606 90.82C10.7706 91.06 10.4006 91.1 10.0906 91.15C9.69059 91.2 9.40059 91.24 9.04059 91.63C8.98059 91.7 8.88059 91.74 8.79059 91.74H8.78059ZM10.4306 88.92C10.2106 89.03 9.98059 89.15 9.75059 89.29C9.26059 89.58 9.04059 90.16 9.04059 90.76C9.37059 90.56 9.69059 90.52 9.99059 90.48C10.2606 90.45 10.5206 90.41 10.8006 90.25C10.9506 90.16 11.0606 89.96 11.1406 89.65L10.4206 88.93L10.4306 88.92Z" fill="#300034"></path><path d="M13.8604 74.4402C13.7704 74.4402 13.6904 74.4002 13.6204 74.3402C13.4804 74.2102 13.4804 74.0002 13.6204 73.8602L15.1704 72.3002C15.3604 72.1202 15.4504 71.8802 15.4504 71.6302C15.4504 71.4102 15.3704 71.2102 15.2204 71.0602L15.1204 70.9602C14.8004 70.6302 14.2404 70.6602 13.8804 71.0102L12.3304 72.5702C12.1904 72.7002 11.9804 72.7002 11.8504 72.5702C11.7204 72.4402 11.7204 72.2202 11.8504 72.0902L13.4004 70.5402C14.0204 69.9202 15.0104 69.9002 15.6004 70.4902L15.7104 70.6002C15.9904 70.8802 16.1404 71.2502 16.1404 71.6502C16.1404 72.0802 15.9704 72.4902 15.6604 72.8002L14.1104 74.3502C14.0504 74.4202 13.9604 74.4502 13.8704 74.4502L13.8604 74.4402Z" fill="#300034"></path><path d="M14.2002 74.9703C14.1102 74.9703 14.0202 74.9403 13.9602 74.8703L11.3202 72.2303C11.1902 72.1003 11.1902 71.8903 11.3202 71.7503C11.4502 71.6103 11.6702 71.6103 11.8002 71.7503L14.4402 74.3903C14.5802 74.5303 14.5802 74.7403 14.4402 74.8703C14.3802 74.9403 14.2902 74.9703 14.2002 74.9703Z" fill="#300034"></path><path d="M9.45047 77.7801C9.35047 77.7801 9.27047 77.7401 9.21047 77.6801C9.07047 77.5501 9.07047 77.3401 9.21047 77.2001L9.35047 77.0601C9.49047 76.9301 9.70047 76.9301 9.83047 77.0601C9.97047 77.1901 9.97047 77.4101 9.83047 77.5401L9.69047 77.6801C9.63047 77.7501 9.54047 77.7801 9.46047 77.7801H9.45047Z" fill="#300034"></path><path d="M8.70047 77.0301C8.61047 77.0301 8.52047 76.9901 8.46047 76.9301C8.32047 76.8001 8.32047 76.5801 8.46047 76.4501L8.60047 76.3001C8.73047 76.1701 8.95047 76.1701 9.08047 76.3001C9.21047 76.4401 9.21047 76.6501 9.08047 76.7901L8.94047 76.9301C8.88047 77.0001 8.79047 77.0301 8.70047 77.0301Z" fill="#300034"></path><path d="M9.69078 77.6501C9.51078 77.6501 9.35078 77.5001 9.35078 77.3101C9.35078 77.1201 9.51078 76.9701 9.69078 76.9701C9.82078 76.9701 9.93078 76.9201 10.0208 76.8401L12.9308 73.9301L12.2708 73.2701L9.36078 76.1801C9.27078 76.2601 9.23078 76.3801 9.23078 76.5101C9.23078 76.7001 9.08078 76.8301 8.89078 76.8501C8.70078 76.8501 8.55078 76.7001 8.55078 76.5101C8.55078 76.2001 8.67078 75.9201 8.89078 75.7001L12.0408 72.5601C12.1708 72.4201 12.3908 72.4201 12.5208 72.5601L13.6608 73.6901C13.7908 73.8301 13.7908 74.0401 13.6608 74.1801L10.5108 77.3301C10.2908 77.5401 10.0108 77.6601 9.70078 77.6601L9.69078 77.6501Z" fill="#300034"></path><path d="M14.9303 42.4301C14.9303 42.4301 14.8403 42.4201 14.8103 42.3801C14.7403 42.3101 14.7403 42.2101 14.8103 42.1401L15.3903 41.5601C15.4603 41.4901 15.5603 41.4901 15.6303 41.5601C15.7003 41.6201 15.7003 41.7301 15.6303 41.8001L15.0603 42.3801C15.0603 42.3801 14.9903 42.4301 14.9403 42.4301H14.9303Z" fill="#300034"></path><path d="M13.1801 44.7599C13.1001 44.7599 13.0101 44.7199 12.9401 44.6599L12.5301 44.2499C12.4001 44.1099 12.4001 43.8899 12.5301 43.7699C12.6601 43.6399 12.8801 43.6399 13.0101 43.7699L13.4201 44.1799C13.5501 44.3099 13.5501 44.5299 13.4201 44.6599C13.3501 44.7299 13.2701 44.7599 13.1801 44.7599Z" fill="#300034"></path><path d="M15.5005 45.7199C15.5005 45.7199 15.4105 45.7099 15.3805 45.6699L14.8005 45.0999C14.7305 45.0299 14.7305 44.9199 14.8005 44.8599C14.8705 44.7899 14.9705 44.7899 15.0405 44.8599L15.6105 45.4399C15.6805 45.4999 15.6805 45.6199 15.6105 45.6799C15.5805 45.7199 15.5405 45.7299 15.4905 45.7299L15.5005 45.7199Z" fill="#300034"></path><path d="M12.2108 42.4301C12.2108 42.4301 12.1208 42.4201 12.0908 42.3801L11.5108 41.8001C11.4508 41.7401 11.4508 41.6301 11.5108 41.5601C11.5808 41.4901 11.6908 41.4901 11.7608 41.5601L12.3408 42.1401C12.4108 42.2101 12.4108 42.3101 12.3408 42.3801C12.3008 42.4101 12.2608 42.4301 12.2208 42.4301H12.2108Z" fill="#300034"></path><path d="M16.3003 43.79H15.4903C15.3903 43.79 15.3203 43.7199 15.3203 43.6199C15.3203 43.5299 15.4003 43.45 15.4903 43.45H16.3003C16.4003 43.45 16.4703 43.5299 16.4703 43.6199C16.4703 43.7199 16.4003 43.79 16.3003 43.79Z" fill="#300034"></path><path d="M11.6509 43.79H10.8409C10.7509 43.79 10.6709 43.7199 10.6709 43.6199C10.6709 43.5299 10.7509 43.45 10.8409 43.45H11.6509C11.7509 43.45 11.8209 43.5299 11.8209 43.6199C11.8209 43.7199 11.7509 43.79 11.6509 43.79Z" fill="#300034"></path><path d="M13.5704 46.5199C13.4804 46.5199 13.4004 46.4399 13.4004 46.3499V45.5399C13.4004 45.4399 13.4804 45.3699 13.5704 45.3699C13.6604 45.3699 13.7404 45.4399 13.7404 45.5399V46.3499C13.7404 46.4399 13.6604 46.5199 13.5704 46.5199Z" fill="#300034"></path><path d="M13.5704 41.86C13.4804 41.86 13.4004 41.78 13.4004 41.69V40.88C13.4004 40.78 13.4804 40.71 13.5704 40.71C13.6604 40.71 13.7404 40.78 13.7404 40.88V41.69C13.7404 41.78 13.6604 41.86 13.5704 41.86Z" fill="#300034"></path><path d="M8.80051 49.17C8.58051 49.17 8.38051 49.09 8.24051 48.95C8.10051 48.8 8.02051 48.61 8.02051 48.39C8.02051 48.1 8.16051 47.8 8.39051 47.57L12.9305 43.03C13.3405 42.62 13.9805 42.55 14.3205 42.88C14.5005 43.06 14.5705 43.32 14.5305 43.6C14.4905 43.84 14.3605 44.08 14.1705 44.27L9.63051 48.81C9.40051 49.05 9.09051 49.18 8.80051 49.18V49.17ZM13.7505 43.34C13.6605 43.34 13.5305 43.39 13.4005 43.51L8.86051 48.05C8.73051 48.18 8.69051 48.31 8.69051 48.4C8.69051 48.42 8.69051 48.46 8.71051 48.48C8.73051 48.49 8.77051 48.5 8.79051 48.5C8.87051 48.5 9.00051 48.45 9.13051 48.33L13.6705 43.79C13.7605 43.71 13.8205 43.6 13.8405 43.5C13.8405 43.44 13.8405 43.39 13.8205 43.37C13.8005 43.35 13.7605 43.34 13.7405 43.34H13.7505Z" fill="#300034"></path><path d="M16.1305 164.38H14.3205C14.1305 164.38 13.9805 164.23 13.9805 164.04V156.74C13.9805 156.55 14.1305 156.4 14.3205 156.4H16.1305C16.3205 156.4 16.4705 156.55 16.4705 156.74V164.04C16.4705 164.23 16.3205 164.38 16.1305 164.38ZM14.6605 163.7H15.7905V157.07H14.6605V163.7Z" fill="#300034"></path><path d="M13.15 164.38H11.34C11.15 164.38 11 164.23 11 164.04V160.93C11 160.74 11.15 160.59 11.34 160.59H13.15C13.34 160.59 13.49 160.74 13.49 160.93V164.04C13.49 164.23 13.34 164.38 13.15 164.38ZM11.68 163.7H12.81V161.27H11.68V163.7Z" fill="#300034"></path><path d="M10.1803 164.38H8.36027C8.17027 164.38 8.03027 164.23 8.03027 164.04V159.4C8.03027 159.21 8.18027 159.06 8.36027 159.06H10.1803C10.3703 159.06 10.5103 159.21 10.5103 159.4V164.04C10.5103 164.23 10.3703 164.38 10.1803 164.38ZM8.70027 163.7H9.83027V159.74H8.70027V163.7Z" fill="#300034"></path><path d="M8.51969 187.58C8.32969 187.58 8.17969 187.43 8.17969 187.24V185.81C8.17969 185.62 8.32969 185.47 8.51969 185.47H9.95969C10.1497 185.47 10.2997 185.62 10.2997 185.81C10.2997 186 10.1397 186.15 9.95969 186.15H8.86969V187.24C8.86969 187.43 8.71969 187.58 8.52969 187.58H8.51969Z" fill="#300034"></path><path d="M15.9702 187.58C15.7802 187.58 15.6402 187.43 15.6402 187.24V186.15H14.5402C14.3502 186.15 14.2002 186 14.2002 185.81C14.2002 185.62 14.3502 185.47 14.5402 185.47H15.9702C16.1602 185.47 16.3102 185.62 16.3102 185.81V187.24C16.3102 187.43 16.1602 187.58 15.9702 187.58Z" fill="#300034"></path><path d="M9.94992 193.57H8.50992C8.31992 193.57 8.16992 193.42 8.16992 193.23V191.8C8.16992 191.61 8.31992 191.46 8.50992 191.46C8.69992 191.46 8.84992 191.61 8.84992 191.8V192.89H9.93992C10.1299 192.89 10.2799 193.04 10.2799 193.23C10.2799 193.42 10.1199 193.57 9.93992 193.57H9.94992Z" fill="#300034"></path><path d="M15.9702 193.57H14.5402C14.3502 193.57 14.2002 193.42 14.2002 193.23C14.2002 193.04 14.3502 192.89 14.5402 192.89H15.6402V191.8C15.6402 191.61 15.7902 191.46 15.9702 191.46C16.1502 191.46 16.3102 191.61 16.3102 191.8V193.23C16.3102 193.42 16.1602 193.57 15.9702 193.57Z" fill="#300034"></path><path d="M14.6 192.22H9.88004C9.69004 192.22 9.54004 192.06 9.54004 191.88V187.16C9.54004 186.97 9.70004 186.82 9.88004 186.82H14.6C14.79 186.82 14.94 186.97 14.94 187.16V191.88C14.94 192.06 14.79 192.22 14.6 192.22ZM10.23 191.53H14.27V187.5H10.23V191.53Z" fill="#300034"></path><path d="M13.9399 106.72C13.7899 106.72 13.6599 106.63 13.6099 106.48L11.2599 99.3101L8.90987 106.48C8.84987 106.66 8.65987 106.76 8.46987 106.7C8.28987 106.64 8.18987 106.45 8.24987 106.27L10.9299 98.0901C11.0199 97.8101 11.4899 97.8101 11.5899 98.0901L14.2699 106.27C14.3299 106.45 14.2299 106.64 14.0499 106.7C14.0199 106.72 13.9799 106.72 13.9399 106.72Z" fill="#300034"></path><path d="M9.28992 106.72H8.01992C7.82992 106.72 7.66992 106.57 7.66992 106.38C7.66992 106.19 7.81992 106.03 8.01992 106.03H9.28992C9.47992 106.03 9.63992 106.19 9.63992 106.38C9.63992 106.57 9.48992 106.72 9.28992 106.72Z" fill="#300034"></path><path d="M14.4999 106.72H13.2199C13.0299 106.72 12.8799 106.57 12.8799 106.38C12.8799 106.19 13.0299 106.03 13.2199 106.03H14.4999C14.6899 106.03 14.8499 106.19 14.8499 106.38C14.8499 106.57 14.6899 106.72 14.4999 106.72Z" fill="#300034"></path><path d="M12.9702 104.2H9.5502C9.3602 104.2 9.2002 104.04 9.2002 103.85C9.2002 103.66 9.3502 103.51 9.5502 103.51H12.9702C13.1602 103.51 13.3202 103.66 13.3202 103.85C13.3202 104.04 13.1702 104.2 12.9702 104.2Z" fill="#300034"></path><path d="M14.84 102.44C14.46 102.44 14.15 102.31 13.91 102.09C13.67 101.85 13.54 101.56 13.54 101.23C13.54 100.8 13.73 100.55 13.89 100.42C14.07 100.27 14.27 100.15 14.49 100.09C14.66 100.04 14.96 99.9702 15.4 99.8802C15.82 99.7902 16.13 99.7002 16.33 99.6302C16.43 99.5902 16.56 99.6103 16.65 99.6803C16.74 99.7403 16.8 99.8503 16.8 99.9603V100.19C16.8 100.79 16.72 101.24 16.55 101.53C16.4 101.8 16.16 102.03 15.85 102.19C15.55 102.36 15.21 102.44 14.85 102.44H14.84ZM16.1 100.43C15.94 100.47 15.76 100.52 15.55 100.56C15.13 100.65 14.83 100.72 14.68 100.76C14.57 100.79 14.46 100.85 14.35 100.95C14.3 101 14.24 101.06 14.24 101.23C14.24 101.37 14.29 101.48 14.4 101.59C14.65 101.82 15.16 101.77 15.52 101.58C15.71 101.48 15.86 101.34 15.94 101.19C16.01 101.08 16.08 100.86 16.1 100.43Z" fill="#300034"></path><path d="M16.4795 102.4C16.2895 102.4 16.1295 102.25 16.1295 102.05V99.56C16.1295 99.1 15.7795 98.73 15.3595 98.73H15.0996C14.7896 98.73 14.5195 98.92 14.3995 99.23C14.3295 99.41 14.1296 99.49 13.9496 99.43C13.7696 99.36 13.6896 99.15 13.7596 98.97C13.9896 98.4 14.5195 98.03 15.1095 98.03H15.3696C16.1796 98.03 16.8296 98.71 16.8296 99.55V102.04C16.8296 102.23 16.6695 102.39 16.4795 102.39V102.4Z" fill="#300034"></path><path d="M16.37 121.31H12.06C11.87 121.31 11.71 121.15 11.71 120.96V114.79C11.71 114.6 11.86 114.44 12.06 114.44H16.37C16.56 114.44 16.72 114.6 16.72 114.79V120.96C16.72 121.16 16.56 121.31 16.37 121.31ZM12.41 120.61H16.03V115.13H12.41V120.61Z" fill="#300034"></path><path d="M14.2299 121.21C14.0299 121.21 13.8799 121.05 13.8799 120.86V114.9C13.8799 114.7 14.0299 114.55 14.2299 114.55C14.4299 114.55 14.5699 114.7 14.5699 114.9V120.86C14.5699 121.06 14.4199 121.21 14.2299 121.21Z" fill="#300034"></path><path d="M16.4 117.15H12.06C11.87 117.15 11.71 117 11.71 116.8C11.71 116.6 11.86 116.45 12.06 116.45H16.4C16.59 116.45 16.75 116.6 16.75 116.8C16.75 117 16.59 117.15 16.4 117.15Z" fill="#300034"></path><path d="M16.4 119.21H12.06C11.87 119.21 11.71 119.06 11.71 118.86C11.71 118.68 11.86 118.52 12.06 118.52H16.4C16.59 118.52 16.75 118.68 16.75 118.86C16.75 119.06 16.59 119.21 16.4 119.21Z" fill="#300034"></path><path d="M11.0301 118.09H9.68008C9.49008 118.09 9.33008 117.94 9.33008 117.75C9.33008 117.56 9.49008 117.4 9.68008 117.4H11.0301C11.2201 117.4 11.3701 117.56 11.3701 117.75C11.3701 117.94 11.2201 118.09 11.0301 118.09Z" fill="#300034"></path><path d="M8.1 113.77C7.91 113.77 7.75 113.62 7.75 113.43V112.64C7.75 112.45 7.91 112.29 8.1 112.29C8.29 112.29 8.44 112.45 8.44 112.64V113.43C8.44 113.63 8.29 113.77 8.1 113.77Z" fill="#300034"></path><path d="M12.6098 113.77C12.4198 113.77 12.2598 113.62 12.2598 113.43V112.64C12.2598 112.45 12.4098 112.29 12.6098 112.29C12.8098 112.29 12.9598 112.45 12.9598 112.64V113.43C12.9598 113.63 12.7998 113.77 12.6098 113.77Z" fill="#300034"></path><path d="M10.35 117.96C10.16 117.96 10 117.81 10 117.61V112.87C10 112.68 10.16 112.53 10.35 112.53C10.54 112.53 10.7 112.69 10.7 112.87V117.61C10.7 117.8 10.54 117.96 10.35 117.96Z" fill="#300034"></path><path d="M12.61 112.99H8.1C7.91 112.99 7.75 112.84 7.75 112.64C7.75 112.44 7.91 112.29 8.1 112.29H12.61C12.8 112.29 12.96 112.45 12.96 112.64C12.96 112.83 12.8 112.99 12.61 112.99Z" fill="#300034"></path><path d="M16.5006 150.32H7.99062C7.80062 150.32 7.64062 150.16 7.64062 149.98V141.47C7.64062 141.28 7.80062 141.12 7.99062 141.12H16.5006C16.6906 141.12 16.8506 141.28 16.8506 141.47V149.98C16.8506 150.17 16.7006 150.32 16.5006 150.32ZM8.34063 149.62H16.1506V141.81H8.34063V149.62Z" fill="#300034"></path><path d="M16.3603 144.61H8.13027C7.94027 144.61 7.78027 144.46 7.78027 144.27C7.78027 144.08 7.94027 143.92 8.13027 143.92H16.3603C16.5503 143.92 16.7103 144.07 16.7103 144.27C16.7103 144.47 16.5503 144.61 16.3603 144.61Z" fill="#300034"></path><path d="M16.3603 147.45H8.13027C7.94027 147.45 7.78027 147.3 7.78027 147.1C7.78027 146.9 7.94027 146.75 8.13027 146.75H16.3603C16.5503 146.75 16.7103 146.91 16.7103 147.1C16.7103 147.29 16.5503 147.45 16.3603 147.45Z" fill="#300034"></path><path d="M13.6605 150.14C13.4705 150.14 13.3105 149.98 13.3105 149.79V141.56C13.3105 141.37 13.4605 141.21 13.6605 141.21C13.8605 141.21 14.0105 141.37 14.0105 141.56V149.79C14.0105 149.98 13.8605 150.14 13.6605 150.14Z" fill="#300034"></path><path d="M10.8305 150.14C10.6305 150.14 10.4805 149.98 10.4805 149.79V141.56C10.4805 141.37 10.6305 141.21 10.8305 141.21C11.0305 141.21 11.1805 141.37 11.1805 141.56V149.79C11.1805 149.98 11.0205 150.14 10.8305 150.14Z" fill="#300034"></path><path d="M16.3601 127.38H11.4701C11.2801 127.38 11.1201 127.23 11.1201 127.03C11.1201 126.83 11.2801 126.68 11.4701 126.68H16.3601C16.5501 126.68 16.7101 126.83 16.7101 127.03C16.7101 127.23 16.5501 127.38 16.3601 127.38Z" fill="#300034"></path><path d="M16.3601 129.46H11.4701C11.2801 129.46 11.1201 129.31 11.1201 129.12C11.1201 128.93 11.2801 128.77 11.4701 128.77H16.3601C16.5501 128.77 16.7101 128.93 16.7101 129.12C16.7101 129.31 16.5501 129.46 16.3601 129.46Z" fill="#300034"></path><path d="M16.36 131.56H8.14004C7.95004 131.56 7.79004 131.4 7.79004 131.21C7.79004 131.02 7.95004 130.86 8.14004 130.86H16.36C16.55 130.86 16.71 131.01 16.71 131.21C16.71 131.41 16.55 131.56 16.36 131.56Z" fill="#300034"></path><path d="M16.36 133.64H8.14004C7.95004 133.64 7.79004 133.48 7.79004 133.29C7.79004 133.1 7.95004 132.95 8.14004 132.95H16.36C16.55 132.95 16.71 133.1 16.71 133.29C16.71 133.48 16.55 133.64 16.36 133.64Z" fill="#300034"></path><path d="M16.36 135.73H8.14004C7.95004 135.73 7.79004 135.57 7.79004 135.38C7.79004 135.19 7.95004 135.03 8.14004 135.03H16.36C16.55 135.03 16.71 135.18 16.71 135.38C16.71 135.58 16.55 135.73 16.36 135.73Z" fill="#300034"></path><path d="M10.2601 129.98C10.1301 129.98 10.0001 129.9 9.9401 129.77L9.2001 127.95L8.4601 129.77C8.3901 129.94 8.1901 130.03 8.0101 129.96C7.8301 129.89 7.7501 129.69 7.8201 129.51L8.8801 126.91C8.9801 126.65 9.4101 126.65 9.5201 126.91L10.5801 129.51C10.6501 129.69 10.5601 129.89 10.3901 129.96C10.3501 129.98 10.3001 129.99 10.2601 129.99V129.98Z" fill="#300034"></path><path d="M9.83008 129.46H8.43008C8.24008 129.46 8.08008 129.31 8.08008 129.11C8.08008 128.91 8.24008 128.77 8.43008 128.77H9.83008C10.0201 128.77 10.1801 128.92 10.1801 129.11C10.1801 129.3 10.0301 129.46 9.83008 129.46Z" fill="#300034"></path><path d="M15.1304 209.12H5.19043V219.06H15.1304V209.12Z" fill="#300034"></path><path d="M14.6202 209.63H5.7002V218.55H14.6202V209.63Z" fill="#300034"></path><path d="M18.8509 212.86H8.9209V222.79H18.8509V212.86Z" fill="#300034"></path><path d="M18.4406 222.37H9.35059V213.28H18.4406V222.37ZM10.5006 221.22H17.2906V214.43H10.5006V221.22Z" fill="#82C5FF"></path><path d="M16.9109 214.81H10.8809V220.84H16.9109V214.81Z" fill="#B9FFC4"></path><path d="M14.8999 236.96H10.4799C10.2799 236.96 10.1299 236.8 10.1299 236.61V232.18C10.1299 231.98 10.2899 231.83 10.4799 231.83H14.8999C15.0999 231.83 15.2499 231.98 15.2499 232.18V236.61C15.2499 236.8 15.0899 236.96 14.8999 236.96ZM10.8299 236.25H14.5599V232.53H10.8299V236.25Z" fill="#300034"></path><path d="M8.69953 237.46C8.59953 237.46 8.51953 237.38 8.51953 237.28V231.51C8.51953 231.42 8.59953 231.34 8.69953 231.34C8.79953 231.34 8.87953 231.42 8.87953 231.51V237.28C8.87953 237.38 8.79953 237.46 8.69953 237.46Z" fill="#300034"></path><path d="M9.48934 237.07C9.39934 237.07 9.31934 236.99 9.31934 236.89V231.9C9.31934 231.8 9.39934 231.72 9.48934 231.72C9.58934 231.72 9.66934 231.8 9.66934 231.9V236.89C9.66934 236.99 9.58934 237.07 9.48934 237.07Z" fill="#300034"></path><path d="M16.6693 237.46C16.5693 237.46 16.4893 237.38 16.4893 237.28V231.51C16.4893 231.42 16.5693 231.34 16.6693 231.34C16.7693 231.34 16.8393 231.42 16.8393 231.51V237.28C16.8393 237.38 16.7593 237.46 16.6693 237.46Z" fill="#300034"></path><path d="M15.8792 237.07C15.7792 237.07 15.6992 236.99 15.6992 236.89V231.9C15.6992 231.8 15.7792 231.72 15.8792 231.72C15.9692 231.72 16.0592 231.8 16.0592 231.9V236.89C16.0592 236.99 15.9792 237.07 15.8792 237.07Z" fill="#300034"></path></g><defs><linearGradient id="paint0_linear_441_871" x1="42.1699" y1="253.26" x2="171.95" y2="253.26" gradientUnits="userSpaceOnUse"><stop stop-color="white"></stop><stop offset="1" stop-color="#003E99"></stop></linearGradient><clipPath id="clip0_441_871"><rect width="391.79" height="274.52" fill="white"></rect></clipPath></defs></svg>