<svg xmlns="http://www.w3.org/2000/svg" width="429" height="307" viewBox="0 0 429 307" fill="none"><g clip-path="url(#clip0_441_1115)"><path d="M297.98 54.73H51.46V239.92H297.98V54.73Z" fill="white"></path><path d="M297.98 54.73H51.46V72.42H297.98V54.73Z" fill="#6A8108"></path><path d="M287.37 59.1499H141.11V67.9899H287.37V59.1499Z" fill="white"></path><path d="M64.4404 63.58C64.4404 65.53 62.8604 67.12 60.9004 67.12C58.9404 67.12 57.3604 65.53 57.3604 63.58C57.3604 61.63 58.9404 60.04 60.9004 60.04C62.8604 60.04 64.4404 61.62 64.4404 63.58Z" fill="#9FC400"></path><path d="M75.6501 63.58C75.6501 65.53 74.0601 67.12 72.1101 67.12C70.1601 67.12 68.5801 65.53 68.5801 63.58C68.5801 61.63 70.1601 60.04 72.1101 60.04C74.0601 60.04 75.6501 61.62 75.6501 63.58Z" fill="#FEC12F"></path><path d="M86.8495 63.58C86.8495 65.53 85.2695 67.12 83.3095 67.12C81.3495 67.12 79.7695 65.53 79.7695 63.58C79.7695 61.63 81.3595 60.04 83.3095 60.04C85.2595 60.04 86.8495 61.62 86.8495 63.58Z" fill="#7EB3FF"></path><path d="M297.62 0H231.68V17.69H297.62V0Z" fill="#B9FFC4"></path><path d="M240.2 8.83988C240.2 10.0699 239.2 11.0599 237.98 11.0599C236.76 11.0599 235.77 10.0699 235.77 8.83988C235.77 7.60988 236.75 6.62988 237.98 6.62988C239.21 6.62988 240.2 7.61988 240.2 8.83988Z" fill="#7EB3FF"></path><path d="M246.819 8.83988C246.819 10.0699 245.839 11.0599 244.609 11.0599C243.379 11.0599 242.409 10.0699 242.409 8.83988C242.409 7.60988 243.399 6.62988 244.609 6.62988C245.819 6.62988 246.819 7.61988 246.819 8.83988Z" fill="#7EB3FF"></path><path d="M253.459 8.83988C253.459 10.0699 252.459 11.0599 251.249 11.0599C250.039 11.0599 249.039 10.0699 249.039 8.83988C249.039 7.60988 250.019 6.62988 251.249 6.62988C252.479 6.62988 253.459 7.61988 253.459 8.83988Z" fill="#7EB3FF"></path><path d="M260.1 8.83988C260.1 10.0699 259.11 11.0599 257.88 11.0599C256.65 11.0599 255.67 10.0699 255.67 8.83988C255.67 7.60988 256.66 6.62988 257.88 6.62988C259.1 6.62988 260.1 7.61988 260.1 8.83988Z" fill="#7EB3FF"></path><path d="M266.739 8.83988C266.739 10.0699 265.739 11.0599 264.519 11.0599C263.299 11.0599 262.319 10.0699 262.319 8.83988C262.319 7.60988 263.299 6.62988 264.519 6.62988C265.739 6.62988 266.739 7.61988 266.739 8.83988Z" fill="#7EB3FF"></path><path d="M273.369 8.83988C273.369 10.0699 272.379 11.0599 271.139 11.0599C269.899 11.0599 268.939 10.0699 268.939 8.83988C268.939 7.60988 269.919 6.62988 271.139 6.62988C272.359 6.62988 273.369 7.61988 273.369 8.83988Z" fill="#7EB3FF"></path><path d="M279.999 8.83988C279.999 10.0699 279.009 11.0599 277.779 11.0599C276.549 11.0599 275.569 10.0699 275.569 8.83988C275.569 7.60988 276.569 6.62988 277.779 6.62988C278.989 6.62988 279.999 7.61988 279.999 8.83988Z" fill="#7EB3FF"></path><path d="M297.62 23.3301H231.68V41.0201H297.62V23.3301Z" fill="#B9FFC4"></path><path d="M240.2 32.17C240.2 33.39 239.2 34.38 237.98 34.38C236.76 34.38 235.77 33.39 235.77 32.17C235.77 30.95 236.75 29.96 237.98 29.96C239.21 29.96 240.2 30.94 240.2 32.17Z" fill="#7EB3FF"></path><path d="M246.819 32.17C246.819 33.39 245.839 34.38 244.609 34.38C243.379 34.38 242.409 33.39 242.409 32.17C242.409 30.95 243.399 29.96 244.609 29.96C245.819 29.96 246.819 30.94 246.819 32.17Z" fill="#7EB3FF"></path><path d="M253.459 32.17C253.459 33.39 252.459 34.38 251.249 34.38C250.039 34.38 249.039 33.39 249.039 32.17C249.039 30.95 250.019 29.96 251.249 29.96C252.479 29.96 253.459 30.94 253.459 32.17Z" fill="#7EB3FF"></path><path d="M260.1 32.17C260.1 33.39 259.11 34.38 257.88 34.38C256.65 34.38 255.67 33.39 255.67 32.17C255.67 30.95 256.66 29.96 257.88 29.96C259.1 29.96 260.1 30.94 260.1 32.17Z" fill="#7EB3FF"></path><path d="M266.739 32.17C266.739 33.39 265.739 34.38 264.519 34.38C263.299 34.38 262.319 33.39 262.319 32.17C262.319 30.95 263.299 29.96 264.519 29.96C265.739 29.96 266.739 30.94 266.739 32.17Z" fill="#7EB3FF"></path><path d="M273.369 32.17C273.369 33.39 272.379 34.38 271.139 34.38C269.899 34.38 268.939 33.39 268.939 32.17C268.939 30.95 269.919 29.96 271.139 29.96C272.359 29.96 273.369 30.94 273.369 32.17Z" fill="#7EB3FF"></path><path d="M361.1 14.49H350.63V25.71H361.1V14.49Z" fill="#DCE4E7"></path><path d="M361.1 14.49H350.63V19.73H361.1V14.49Z" fill="#CDD5D8"></path><path d="M365.41 15.8C365.41 16.93 364.49 17.85 363.35 17.85H348.38C347.25 17.85 346.33 16.93 346.33 15.8V6.07001C346.33 4.93001 347.25 4.01001 348.38 4.01001H363.35C364.49 4.01001 365.41 4.93001 365.41 6.07001V15.8Z" fill="#5D0265"></path><path d="M350.54 15.7999L348.1 15.7899V5.69994L350.54 5.68994V15.7999Z" fill="#300034"></path><path d="M354 5.68994H351.94V15.7999H354V5.68994Z" fill="#300034"></path><path d="M356.98 5.69995H355.69V15.8H356.98V5.69995Z" fill="#300034"></path><path d="M330.042 24.19L324.395 27.448L327.887 33.5027L333.535 30.2447L330.042 24.19Z" fill="#DCE4E7"></path><path d="M331.671 26.9999L326.021 30.2599L324.391 27.4399L330.041 24.1799L331.671 26.9999Z" fill="#CDD5D8"></path><path d="M332.771 23.5399C333.121 24.1499 332.911 24.9399 332.301 25.2899L324.231 29.9499C323.621 30.2999 322.831 30.0899 322.481 29.4799L319.451 24.2299C319.101 23.6199 319.311 22.8399 319.921 22.4799L327.991 17.8199C328.601 17.4699 329.381 17.6799 329.741 18.2899L332.771 23.5299V23.5399Z" fill="#5D0265"></path><path d="M321.601 22.7464L320.287 23.5103L323.443 28.9396L324.757 28.1757L321.601 22.7464Z" fill="#300034"></path><path d="M323.466 21.642L322.357 22.2812L325.499 27.7307L326.608 27.0915L323.466 21.642Z" fill="#300034"></path><path d="M325.082 20.7435L324.389 21.1436L327.529 26.5822L328.222 26.1822L325.082 20.7435Z" fill="#300034"></path><path d="M381.222 24.1933L377.725 30.2456L383.37 33.5076L386.867 27.4553L381.222 24.1933Z" fill="#DCE4E7"></path><path d="M381.216 24.1858L379.586 27.0088L385.232 30.2698L386.862 27.4468L381.216 24.1858Z" fill="#CDD5D8"></path><path d="M378.47 23.5399C378.12 24.1499 378.33 24.9399 378.94 25.2899L387.01 29.9499C387.62 30.2999 388.4 30.0899 388.76 29.4799L391.79 24.2299C392.14 23.6199 391.93 22.8399 391.32 22.4799L383.25 17.8199C382.64 17.4699 381.86 17.6799 381.5 18.2899L378.47 23.5299V23.5399Z" fill="#5D0265"></path><path d="M389.611 22.719L386.469 28.1565L387.794 28.922L390.935 23.4844L389.611 22.719Z" fill="#300034"></path><path d="M387.785 21.6648L384.644 27.1143L385.753 27.7535L388.894 22.304L387.785 21.6648Z" fill="#300034"></path><path d="M383.021 26.17L383.711 26.57L386.861 21.12L386.161 20.73L383.021 26.17Z" fill="#300034"></path><path d="M403.29 68.3299C403.29 94.5199 382.06 115.75 355.87 115.75C329.68 115.75 308.45 94.5099 308.45 68.3299C308.45 42.1499 329.68 20.9099 355.87 20.9099C382.06 20.9099 403.29 42.1399 403.29 68.3299Z" fill="#5D0265"></path><path d="M355.87 115.75C329.68 115.75 308.45 94.5099 308.45 68.3299C308.45 42.1499 329.68 20.9099 355.87 20.9099V115.75Z" fill="#300034"></path><path d="M395.99 68.33C395.99 90.49 378.02 108.45 355.86 108.46C333.7 108.46 315.74 90.49 315.74 68.33C315.74 46.17 333.71 28.21 355.86 28.21C378.01 28.21 395.99 46.17 395.99 68.33Z" fill="#C5E1F9"></path><path d="M319.11 70.2C319.11 48.04 337.07 30.08 359.24 30.08C365.61 30.08 371.64 31.58 376.99 34.22C370.85 30.42 363.62 28.22 355.87 28.22C333.71 28.22 315.75 46.18 315.75 68.34C315.75 84.12 324.87 97.77 338.12 104.33C326.71 97.25 319.11 84.62 319.11 70.21V70.2Z" fill="#C5E1F9"></path><g style="mix-blend-mode:multiply"><path d="M356.39 33.03H355.53V37.91H356.39V33.03Z" fill="#5D0265"></path><path d="M351.1 38.28L350.26 38.43L349.41 33.62L350.26 33.48L351.1 38.28Z" fill="#5D0265"></path><path d="M345.96 39.56L345.15 39.86L343.48 35.27L344.29 34.98L345.96 39.56Z" fill="#5D0265"></path><path d="M338.68 37.5024L337.935 37.9312L340.367 42.1616L341.113 41.7329L338.68 37.5024Z" fill="#5D0265"></path><path d="M333.585 40.9494L332.926 41.5015L336.059 45.243L336.718 44.6909L333.585 40.9494Z" fill="#5D0265"></path><path d="M329.186 45.2528L328.633 45.9114L332.37 49.0495L332.923 48.3909L329.186 45.2528Z" fill="#5D0265"></path><path d="M329.79 52.66L329.36 53.41L325.14 50.97L325.56 50.22L329.79 52.66Z" fill="#5D0265"></path><path d="M327.46 57.43L327.17 58.24L322.59 56.57L322.88 55.76L327.46 57.43Z" fill="#5D0265"></path><path d="M321.187 61.6763L321.037 62.5232L325.843 63.3714L325.992 62.5245L321.187 61.6763Z" fill="#5D0265"></path><path d="M325.46 67.8H320.58V68.65H325.46V67.8Z" fill="#5D0265"></path><path d="M325.816 73.1179L321.021 73.9644L321.17 74.8113L325.966 73.9648L325.816 73.1179Z" fill="#5D0265"></path><path d="M327.108 78.2113L322.521 79.8779L322.819 80.6956L327.405 79.029L327.108 78.2113Z" fill="#5D0265"></path><path d="M329.265 83.0914L325.051 85.5527L325.485 86.2953L329.698 83.834L329.265 83.0914Z" fill="#5D0265"></path><path d="M332.24 87.47L332.78 88.14L329.05 91.27L328.49 90.61L332.24 87.47Z" fill="#5D0265"></path><path d="M335.91 91.29L336.58 91.84L333.44 95.58L332.78 95.02L335.91 91.29Z" fill="#5D0265"></path><path d="M340.21 94.4002L337.761 98.6208L338.505 99.0525L340.954 94.8319L340.21 94.4002Z" fill="#5D0265"></path><path d="M344.982 96.7216L343.321 101.311L344.13 101.603L345.79 97.0142L344.982 96.7216Z" fill="#5D0265"></path><path d="M350.095 98.1961L349.246 103.002L350.103 103.153L350.952 98.3475L350.095 98.1961Z" fill="#5D0265"></path><path d="M356.21 98.74H355.35V103.62H356.21V98.74Z" fill="#5D0265"></path><path d="M361.479 98.2334L360.632 98.3818L361.474 103.189L362.321 103.04L361.479 98.2334Z" fill="#5D0265"></path><path d="M365.78 97.09L366.59 96.79L368.25 101.37L367.45 101.68L365.78 97.09Z" fill="#5D0265"></path><path d="M371.358 94.4836L370.613 94.9146L373.058 99.1378L373.803 98.7069L371.358 94.4836Z" fill="#5D0265"></path><path d="M375.021 91.9601L375.681 91.4001L378.811 95.1501L378.151 95.7001L375.021 91.9601Z" fill="#5D0265"></path><path d="M379.387 87.6142L378.836 88.2742L382.573 91.3967L383.125 90.7368L379.387 87.6142Z" fill="#5D0265"></path><path d="M382.361 83.2311L381.933 83.9771L386.166 86.4052L386.594 85.6593L382.361 83.2311Z" fill="#5D0265"></path><path d="M384.271 79.2202L384.571 78.4102L389.151 80.0802L388.851 80.8902L384.271 79.2202Z" fill="#5D0265"></path><path d="M385.894 73.2877L385.744 74.1345L390.549 74.9853L390.699 74.1384L385.894 73.2877Z" fill="#5D0265"></path><path d="M391.16 67.99H386.28V68.86H391.16V67.99Z" fill="#5D0265"></path><path d="M390.563 61.8287L385.758 62.6812L385.908 63.5279L390.713 62.6755L390.563 61.8287Z" fill="#5D0265"></path><path d="M388.91 55.9072L384.326 57.5811L384.621 58.3889L389.205 56.715L388.91 55.9072Z" fill="#5D0265"></path><path d="M386.271 50.3751L382.035 52.7988L382.467 53.5539L386.703 51.1302L386.271 50.3751Z" fill="#5D0265"></path><path d="M382.68 45.3607L378.939 48.4949L379.492 49.1541L383.232 46.0199L382.68 45.3607Z" fill="#5D0265"></path><path d="M375.82 45.3601L375.15 44.8101L378.3 41.0701L378.95 41.6301L375.82 45.3601Z" fill="#5D0265"></path><path d="M371.53 42.2501L370.78 41.8201L373.23 37.5901L373.97 38.0201L371.53 42.2501Z" fill="#5D0265"></path><path d="M367.609 35.0306L365.93 39.6125L366.737 39.9085L368.417 35.3266L367.609 35.0306Z" fill="#5D0265"></path><path d="M361.625 33.506L360.812 38.3076L361.659 38.4512L362.472 33.6495L361.625 33.506Z" fill="#5D0265"></path></g><path d="M362.81 68.3502C362.81 64.5202 359.71 61.4302 355.88 61.4202C352.06 61.4202 348.95 64.5302 348.96 68.3502C348.96 72.1802 352.06 75.2702 355.89 75.2702C359.71 75.2702 362.81 72.1702 362.81 68.3502ZM355.89 72.5402C353.58 72.5402 351.7 70.6702 351.7 68.3502C351.7 66.0302 353.58 64.1602 355.89 64.1602C358.2 64.1602 360.08 66.0302 360.08 68.3502C360.08 70.6602 358.2 72.5402 355.9 72.5402H355.89Z" fill="#300034"></path><path d="M374.67 49.5601L361.22 67.6301L356.6 63.0101L374.67 49.5601Z" fill="#300034"></path><path d="M140.29 80.7H83.4502V82.84H140.29V80.7Z" fill="#9FC400"></path><path d="M97.5504 87.3999H88.1504V89.5399H97.5504V87.3999Z" fill="#9FC400"></path><path d="M97.5504 94.0999H88.1504V96.2399H97.5504V94.0999Z" fill="#9FC400"></path><path d="M97.5504 100.79H88.1504V102.93H97.5504V100.79Z" fill="#9FC400"></path><path d="M144.781 87.3999H115.931V89.5399H144.781V87.3999Z" fill="#9FC400"></path><path d="M144.781 94.0999H115.931V96.2399H144.781V94.0999Z" fill="#9FC400"></path><path d="M144.781 100.79H115.931V102.93H144.781V100.79Z" fill="#9FC400"></path><path d="M108.24 87.3999H101.62V89.5399H108.24V87.3999Z" fill="#9FC400"></path><path d="M108.24 94.0999H101.62V96.2399H108.24V94.0999Z" fill="#9FC400"></path><path d="M108.24 100.79H101.62V102.93H108.24V100.79Z" fill="#9FC400"></path><path d="M112.871 87.3999H111.101V89.5399H112.871V87.3999Z" fill="#9FC400"></path><path d="M112.871 94.0999H111.101V96.2399H112.871V94.0999Z" fill="#9FC400"></path><path d="M112.871 100.79H111.101V102.93H112.871V100.79Z" fill="#9FC400"></path><path d="M85.4202 87.3999H83.6602V89.5399H85.4202V87.3999Z" fill="#9FC400"></path><path d="M85.4202 94.0999H83.6602V96.2399H85.4202V94.0999Z" fill="#9FC400"></path><path d="M85.4202 100.79H83.6602V102.93H85.4202V100.79Z" fill="#9FC400"></path><path d="M102.68 114.19H88.1504V116.33H102.68V114.19Z" fill="#9FC400"></path><path d="M144.781 114.19H122.771V116.33H144.781V114.19Z" fill="#9FC400"></path><path d="M115.08 114.19H106.75V116.33H115.08V114.19Z" fill="#9FC400"></path><path d="M119.7 114.19H117.94V116.33H119.7V114.19Z" fill="#9FC400"></path><path d="M213.821 127.58H145.641V129.72H213.821V127.58Z" fill="#9FC400"></path><path d="M140.291 127.58H107.601V129.72H140.291V127.58Z" fill="#9FC400"></path><path d="M192.441 114.19H170.431V116.33H192.441V114.19Z" fill="#9FC400"></path><path d="M162.73 114.19H150.98V116.33H162.73V114.19Z" fill="#9FC400"></path><path d="M167.35 114.19H165.59V116.33H167.35V114.19Z" fill="#9FC400"></path><path d="M196.43 114.19H194.66V116.33H196.43V114.19Z" fill="#9FC400"></path><path d="M85.4202 114.19H83.6602V116.33H85.4202V114.19Z" fill="#9FC400"></path><path d="M102.68 140.97H88.1504V143.11H102.68V140.97Z" fill="#9FC400"></path><path d="M85.4202 140.97H83.6602V143.11H85.4202V140.97Z" fill="#9FC400"></path><path d="M107.22 140.97H105.46V143.11H107.22V140.97Z" fill="#9FC400"></path><path d="M91.57 167.76H77.04V169.9H91.57V167.76Z" fill="#9FC400"></path><path d="M74.3098 167.76H72.5498V169.9H74.3098V167.76Z" fill="#9FC400"></path><path d="M96.1106 167.76H94.3506V169.9H96.1106V167.76Z" fill="#9FC400"></path><path d="M97.6098 134.27H95.8398V136.41H97.6098V134.27Z" fill="#9FC400"></path><path d="M104.39 120.88H95.8398V123.02H104.39V120.88Z" fill="#9FC400"></path><path d="M140.921 120.88H107.601V123.02H140.921V120.88Z" fill="#9FC400"></path><path d="M193.93 87.3999H165.08V89.5399H193.93V87.3999Z" fill="#9FC400"></path><path d="M193.93 94.0999H165.08V96.2399H193.93V94.0999Z" fill="#9FC400"></path><path d="M193.93 100.79H165.08V102.93H193.93V100.79Z" fill="#9FC400"></path><path d="M245.861 87.3999H195.431V89.5399H245.861V87.3999Z" fill="#9FC400"></path><path d="M264.451 94.0999H195.431V96.2399H264.451V94.0999Z" fill="#9FC400"></path><path d="M276.851 100.79H195.431V102.93H276.851V100.79Z" fill="#9FC400"></path><path d="M157.4 87.3999H150.771V89.5399H157.4V87.3999Z" fill="#9FC400"></path><path d="M157.4 94.0999H150.771V96.2399H157.4V94.0999Z" fill="#9FC400"></path><path d="M157.4 100.79H150.771V102.93H157.4V100.79Z" fill="#9FC400"></path><path d="M162.01 87.3999H160.25V89.5399H162.01V87.3999Z" fill="#9FC400"></path><path d="M162.01 94.0999H160.25V96.2399H162.01V94.0999Z" fill="#9FC400"></path><path d="M162.01 100.79H160.25V102.93H162.01V100.79Z" fill="#9FC400"></path><path d="M254.25 87.3999H252.49V89.5399H254.25V87.3999Z" fill="#9FC400"></path><path d="M271.22 94.0999H269.45V96.2399H271.22V94.0999Z" fill="#9FC400"></path><path d="M282.76 100.79H281V102.93H282.76V100.79Z" fill="#9FC400"></path><path d="M140.29 107.49H83.4502V109.63H140.29V107.49Z" fill="#9FC400"></path><path d="M86.0104 182H76.6104V184.14H86.0104V182Z" fill="#9FC400"></path><path d="M108.02 195.39H98.6201V197.53H108.02V195.39Z" fill="#9FC400"></path><path d="M188.81 195.39H126.41V197.53H188.81V195.39Z" fill="#9FC400"></path><path d="M175.55 188.69H84.0898V190.83H175.55V188.69Z" fill="#9FC400"></path><path d="M118.71 195.39H112.09V197.53H118.71V195.39Z" fill="#9FC400"></path><path d="M123.33 195.39H121.57V197.53H123.33V195.39Z" fill="#9FC400"></path><path d="M73.8901 182H72.1201V184.14H73.8901V182Z" fill="#9FC400"></path><path d="M89.9104 182H88.1504V184.14H89.9104V182Z" fill="#9FC400"></path><path d="M115.5 202.09H111.23V204.23H115.5V202.09Z" fill="#9FC400"></path><path d="M108.51 202.09H106.75V204.23H108.51V202.09Z" fill="#9FC400"></path><path d="M119.411 202.09H117.641V204.23H119.411V202.09Z" fill="#9FC400"></path><path d="M127.47 215.48H123.2V217.62H127.47V215.48Z" fill="#9FC400"></path><path d="M120.48 215.48H118.71V217.62H120.48V215.48Z" fill="#9FC400"></path><path d="M131.37 215.48H129.61V217.62H131.37V215.48Z" fill="#9FC400"></path><path d="M95.9006 195.39H94.1406V197.53H95.9006V195.39Z" fill="#9FC400"></path><path d="M260.401 208.78H118.931V210.92H260.401V208.78Z" fill="#9FC400"></path><path d="M192.71 195.39H190.94V197.53H192.71V195.39Z" fill="#9FC400"></path><path d="M161.67 147.67H83.4502V149.81H161.67V147.67Z" fill="#9FC400"></path><path d="M199.28 154.36H83.4502V156.5H199.28V154.36Z" fill="#9FC400"></path><path d="M122.77 161.06H83.4502V163.2H122.77V161.06Z" fill="#9FC400"></path><path d="M62.7602 80.7H58.4902V82.84H62.7602V80.7Z" fill="#9FC400"></path><path d="M62.7602 87.3999H58.4902V89.5399H62.7602V87.3999Z" fill="#9FC400"></path><path d="M62.7602 94.0999H58.4902V96.2399H62.7602V94.0999Z" fill="#9FC400"></path><path d="M62.7602 100.79H58.4902V102.93H62.7602V100.79Z" fill="#9FC400"></path><path d="M62.7602 107.49H58.4902V109.63H62.7602V107.49Z" fill="#9FC400"></path><path d="M62.7602 114.19H58.4902V116.33H62.7602V114.19Z" fill="#9FC400"></path><path d="M62.7602 120.88H58.4902V123.02H62.7602V120.88Z" fill="#9FC400"></path><path d="M62.7602 127.58H58.4902V129.72H62.7602V127.58Z" fill="#9FC400"></path><path d="M62.7602 134.27H58.4902V136.41H62.7602V134.27Z" fill="#9FC400"></path><path d="M62.7602 140.97H58.4902V143.11H62.7602V140.97Z" fill="#9FC400"></path><path d="M62.7602 147.67H58.4902V149.81H62.7602V147.67Z" fill="#9FC400"></path><path d="M62.7602 154.36H58.4902V156.5H62.7602V154.36Z" fill="#9FC400"></path><path d="M62.7602 161.06H58.4902V163.2H62.7602V161.06Z" fill="#9FC400"></path><path d="M62.7602 167.76H58.4902V169.9H62.7602V167.76Z" fill="#9FC400"></path><path d="M62.7602 174.45H58.4902V176.59H62.7602V174.45Z" fill="#9FC400"></path><path d="M62.7602 181.15H58.4902V183.29H62.7602V181.15Z" fill="#9FC400"></path><path d="M62.7602 187.85H58.4902V189.99H62.7602V187.85Z" fill="#9FC400"></path><path d="M293.27 120.2C251.56 120.2 217.74 154.01 217.74 195.73C217.74 237.45 251.55 271.26 293.27 271.26C334.99 271.26 368.8 237.45 368.8 195.73C368.8 154.01 334.98 120.2 293.27 120.2ZM293.27 235.38C271.37 235.38 253.62 217.63 253.62 195.73C253.62 173.83 271.37 156.08 293.27 156.08C315.17 156.08 332.92 173.83 332.92 195.73C332.92 217.63 315.17 235.38 293.27 235.38Z" fill="#4DE266"></path><path d="M293.27 145.69C265.64 145.69 243.24 168.09 243.24 195.72C243.24 223.35 265.64 245.75 293.27 245.75C320.9 245.75 343.3 223.35 343.3 195.72C343.3 168.09 320.9 145.69 293.27 145.69ZM293.27 235.37C271.37 235.37 253.62 217.62 253.62 195.72C253.62 173.82 271.37 156.07 293.27 156.07C315.17 156.07 332.92 173.82 332.92 195.72C332.92 217.62 315.17 235.37 293.27 235.37Z" fill="#300034"></path><path d="M310.741 133.41H275.811L281.471 106.98H305.081L310.741 133.41Z" fill="#4DE266"></path><path d="M278.55 133.18L248.3 150.65L239.98 124.92L260.42 113.12L278.55 133.18Z" fill="#4DE266"></path><path d="M250.56 149.08L233.09 179.33L213.03 161.21L224.83 140.76L250.56 149.08Z" fill="#4DE266"></path><path d="M234.26 176.84V211.77L207.83 206.11V182.5L234.26 176.84Z" fill="#4DE266"></path><path d="M234.03 209.03L251.5 239.27L225.78 247.59L213.97 227.15L234.03 209.03Z" fill="#4DE266"></path><path d="M249.92 237.03L280.18 254.48L262.05 274.54L241.62 262.75L249.92 237.03Z" fill="#4DE266"></path><path d="M277.69 253.31H312.62L306.96 279.75L283.35 279.74L277.69 253.31Z" fill="#4DE266"></path><path d="M309.88 253.54L340.13 236.08L348.44 261.81L328 273.6L309.88 253.54Z" fill="#4DE266"></path><path d="M337.87 237.65L355.34 207.39L375.4 225.52L363.59 245.96L337.87 237.65Z" fill="#4DE266"></path><path d="M354.17 209.89V174.96L380.6 180.62V204.22L354.17 209.89Z" fill="#4DE266"></path><path d="M354.4 177.7L336.93 147.44L362.65 139.13L374.46 159.58L354.4 177.7Z" fill="#4DE266"></path><path d="M338.5 149.7L308.25 132.24L326.38 112.17L346.81 123.98L338.5 149.7Z" fill="#4DE266"></path><path d="M167.91 176.86H23.5996V248.41H167.91V176.86Z" fill="#300034"></path><path d="M167.86 248.7H23.5996V264.5H167.86V248.7Z" fill="#C5E1F9"></path><path d="M145.52 255.56H35.2295V257.64H145.52V255.56Z" fill="#9AC7F7"></path><path d="M70.8895 255.56H35.2295V257.64H70.8895V255.56Z" fill="#7EB3FF"></path><path d="M27.9194 259.31C27.6194 259.31 27.3994 259.07 27.3994 258.72V254.35C27.3994 254 27.6194 253.76 27.9194 253.76C28.0294 253.76 28.1494 253.79 28.2594 253.85L32.0394 256.04C32.2394 256.15 32.3694 256.34 32.3694 256.53C32.3694 256.72 32.2494 256.91 32.0394 257.02L28.2594 259.2C28.1494 259.27 28.0294 259.3 27.9194 259.3V259.31ZM27.9194 254.28C27.9194 254.28 27.9194 254.31 27.9194 254.35V258.72C27.9194 258.72 27.9194 258.78 27.9194 258.79C27.9294 258.79 27.9494 258.79 27.9794 258.77L31.7694 256.58C31.7694 256.58 31.8094 256.55 31.8194 256.53C31.8194 256.53 31.7994 256.52 31.7694 256.5L27.9794 254.32C27.9794 254.32 27.9294 254.29 27.9094 254.29L27.9194 254.28Z" fill="#7EB3FF"></path><path d="M154.23 253.6H153.63V259.58H154.23V253.6Z" fill="#7EB3FF"></path><path d="M152.72 254.8H152.13V259.59H152.72V254.8Z" fill="#7EB3FF"></path><path d="M151.23 255.99H150.63V259.59H151.23V255.99Z" fill="#7EB3FF"></path><path d="M149.73 257.19H149.13V259.59H149.73V257.19Z" fill="#7EB3FF"></path><path d="M163.319 259.57H157.859C157.719 259.57 157.609 259.46 157.609 259.32V253.86C157.609 253.72 157.719 253.61 157.859 253.61H160.569C160.709 253.61 160.819 253.72 160.819 253.86C160.819 254 160.709 254.11 160.569 254.11H158.109V259.07H163.069V256.61C163.069 256.47 163.179 256.36 163.319 256.36C163.459 256.36 163.569 256.47 163.569 256.61V259.32C163.569 259.46 163.459 259.57 163.319 259.57Z" fill="#7EB3FF"></path><path d="M163.32 255.6C163.18 255.6 163.07 255.48 163.07 255.35V254.12H161.84C161.7 254.12 161.59 254.01 161.59 253.87C161.59 253.74 161.7 253.63 161.84 253.63H163.32C163.46 253.63 163.57 253.74 163.57 253.88V255.36C163.57 255.5 163.46 255.61 163.32 255.61V255.6Z" fill="#7EB3FF"></path><path d="M160.98 256.46C160.91 256.46 160.85 256.44 160.8 256.38C160.7 256.29 160.7 256.13 160.8 256.03L162.94 253.89C163.04 253.79 163.2 253.79 163.29 253.89C163.39 253.99 163.39 254.14 163.29 254.24L161.15 256.39C161.1 256.44 161.04 256.47 160.98 256.47V256.46Z" fill="#7EB3FF"></path><path d="M89.06 221.48C88.02 221.48 87.29 220.65 87.29 219.46V204.48C87.29 203.29 88.02 202.45 89.06 202.45C89.44 202.45 89.83 202.57 90.22 202.79L103.2 210.28C103.9 210.68 104.3 211.3 104.3 211.97C104.3 212.64 103.89 213.26 103.2 213.67L90.22 221.16C89.84 221.38 89.44 221.49 89.06 221.49V221.48ZM89.08 204.24C89.08 204.24 89.06 204.34 89.06 204.48V219.46C89.06 219.58 89.08 219.65 89.09 219.69C89.13 219.69 89.21 219.66 89.31 219.6L102.29 212.11C102.41 212.04 102.46 211.99 102.49 211.95C102.46 211.94 102.41 211.88 102.29 211.81L89.31 204.32C89.19 204.26 89.12 204.24 89.07 204.23L89.08 204.24Z" fill="white"></path><path d="M402.74 120.69C388.68 120.69 377.29 132.08 377.29 146.13C377.29 152.41 379.57 158.15 383.35 162.58L377.42 173.82L388.21 166.98C392.33 169.86 397.34 171.56 402.75 171.56C416.8 171.56 428.19 160.17 428.19 146.11C428.19 132.05 416.8 120.67 402.75 120.67L402.74 120.69Z" fill="#9AC7F7"></path><path d="M402.74 120.69C402.65 120.69 402.57 120.69 402.48 120.69V171.57C402.57 171.57 402.65 171.57 402.74 171.57C416.79 171.57 428.18 160.18 428.18 146.12C428.18 132.06 416.79 120.68 402.74 120.68V120.69Z" fill="#7EB3FF"></path><path d="M413.74 139.03H393.54L392.73 136.53C392.71 136.4 392.65 136.29 392.59 136.18V136.17C392.55 136.11 392.51 136.06 392.47 136C392.45 135.98 392.42 135.95 392.4 135.93C392.37 135.9 392.35 135.87 392.31 135.84C392.27 135.8 392.23 135.77 392.18 135.74C392.16 135.74 392.15 135.72 392.13 135.71C391.88 135.56 391.57 135.5 391.25 135.56L388.43 135.8C387.73 135.84 387.2 136.43 387.24 137.12C387.28 137.81 387.87 138.34 388.57 138.31L390.61 138.14L395.61 153.83C395.17 154.36 394.9 155.02 394.9 155.76C394.9 157.43 396.25 158.79 397.92 158.79C399.14 158.79 400.19 158.06 400.66 157.03L404.7 157.01C405.18 158.06 406.23 158.79 407.45 158.79C409.12 158.79 410.48 157.43 410.48 155.76C410.48 154.09 409.12 152.73 407.45 152.73C406.23 152.73 405.18 153.46 404.7 154.49H400.66C400.18 153.45 399.13 152.73 397.91 152.73C397.91 152.73 397.9 152.73 397.88 152.73L397.3 150.9H410.3C411.82 150.9 412.08 149.87 413.04 148.16L416.47 141.76C417.79 139.25 415.24 139.02 413.73 139.02L413.74 139.03Z" fill="white"></path><path d="M407.46 158.8C409.13 158.8 410.49 157.44 410.49 155.77C410.49 154.1 409.13 152.74 407.46 152.74C406.24 152.74 405.19 153.47 404.71 154.5H402.48V157.02H404.7C405.18 158.06 406.23 158.79 407.45 158.79L407.46 158.8Z" fill="#C5E1F9"></path><path d="M413.74 139.03H402.48V150.91H410.31C411.83 150.91 412.09 149.88 413.05 148.17L416.48 141.77C417.8 139.26 415.25 139.03 413.74 139.03Z" fill="#C5E1F9"></path><path d="M141.2 105.98H0V129.37H141.2V105.98Z" fill="#9FC400"></path><path d="M141.2 105.98H117.81V129.37H141.2V105.98Z" fill="#6A8108"></path><path d="M23.38 105.98H0V129.37H23.38V105.98Z" fill="#6A8108"></path><path d="M110.33 116.27H40.4805V119.1H110.33V116.27Z" fill="#9FC400"></path><path d="M79.8605 116.27H40.4805V119.1H79.8605V116.27Z" fill="#C5E1F9"></path><path d="M82.4598 117.68C82.4598 118.89 81.4798 119.88 80.2598 119.88C79.0398 119.88 78.0498 118.89 78.0498 117.68C78.0498 116.47 79.0398 115.47 80.2598 115.47C81.4798 115.47 82.4598 116.46 82.4598 117.68Z" fill="#C5E1F9"></path><path d="M80.2498 120.42C78.7398 120.42 77.5098 119.19 77.5098 117.68C77.5098 116.17 78.7398 114.93 80.2498 114.93C81.7598 114.93 82.9898 116.16 82.9898 117.68C82.9898 119.2 81.7598 120.42 80.2498 120.42ZM80.2498 116C79.3298 116 78.5798 116.75 78.5798 117.68C78.5798 118.61 79.3298 119.35 80.2498 119.35C81.1698 119.35 81.9198 118.6 81.9198 117.68C81.9198 116.76 81.1698 116 80.2498 116Z" fill="#E4E4E4"></path><path d="M16.7898 117.68C16.7898 120.72 14.3198 123.19 11.2798 123.19C8.23977 123.19 5.75977 120.72 5.75977 117.68C5.75977 114.64 8.22977 112.16 11.2798 112.16C14.3298 112.16 16.7898 114.63 16.7898 117.68Z" fill="white"></path><path d="M14.11 117.68L11.95 118.92L9.79004 120.17V117.68V115.18L11.95 116.43L14.11 117.68Z" fill="#834E6A"></path><path d="M29.5599 115.95C29.7099 115.95 29.8399 115.97 29.9699 116.01C30.0899 116.05 30.1999 116.12 30.2799 116.19C30.3699 116.27 30.4299 116.37 30.4799 116.48C30.5299 116.59 30.5499 116.72 30.5499 116.85C30.5499 116.97 30.5299 117.08 30.4999 117.18C30.4599 117.28 30.4199 117.37 30.3599 117.47C30.2999 117.56 30.2399 117.65 30.1599 117.74C30.0799 117.82 29.9999 117.91 29.9199 118L29.1999 118.74C29.2699 118.72 29.3399 118.7 29.4099 118.69C29.4799 118.68 29.5399 118.67 29.5999 118.67H30.4199C30.4799 118.67 30.5299 118.69 30.5599 118.72C30.5999 118.75 30.6099 118.8 30.6099 118.85V119.18H28.4199V119C28.4199 119 28.4199 118.92 28.4399 118.88C28.4499 118.84 28.4799 118.8 28.5099 118.77L29.4799 117.8C29.5599 117.72 29.6299 117.64 29.6999 117.56C29.7599 117.48 29.8199 117.41 29.8599 117.34C29.8999 117.26 29.9399 117.19 29.9599 117.11C29.9799 117.03 29.9899 116.95 29.9899 116.87C29.9899 116.79 29.9899 116.73 29.9599 116.67C29.9399 116.61 29.9099 116.56 29.8699 116.52C29.8299 116.48 29.7799 116.45 29.7199 116.43C29.6699 116.41 29.5999 116.4 29.5299 116.4C29.3999 116.4 29.2899 116.43 29.2099 116.5C29.1299 116.57 29.0699 116.65 29.0299 116.77C29.0199 116.83 28.9899 116.87 28.9599 116.89C28.9299 116.91 28.8899 116.93 28.8399 116.93C28.8199 116.93 28.7899 116.93 28.7699 116.93L28.4799 116.88C28.5099 116.73 28.5499 116.59 28.6099 116.48C28.6699 116.36 28.7499 116.27 28.8499 116.19C28.9399 116.11 29.0499 116.05 29.1799 116.02C29.2999 115.98 29.4299 115.96 29.5799 115.96L29.5599 115.95Z" fill="white"></path><path d="M31.04 117.31C31.04 117.31 31.04 117.22 31.07 117.18C31.09 117.14 31.11 117.11 31.14 117.07C31.17 117.04 31.2 117.02 31.24 117C31.28 116.98 31.33 116.97 31.37 116.97C31.41 116.97 31.46 116.97 31.5 117C31.54 117.02 31.58 117.04 31.61 117.07C31.64 117.1 31.66 117.14 31.68 117.18C31.7 117.22 31.71 117.27 31.71 117.31C31.71 117.35 31.71 117.4 31.68 117.44C31.66 117.48 31.64 117.51 31.61 117.54C31.58 117.57 31.54 117.59 31.5 117.61C31.46 117.63 31.42 117.64 31.37 117.64C31.32 117.64 31.28 117.64 31.24 117.61C31.2 117.59 31.16 117.57 31.14 117.54C31.11 117.51 31.09 117.48 31.07 117.44C31.05 117.4 31.04 117.35 31.04 117.31ZM31.04 118.88C31.04 118.88 31.04 118.79 31.07 118.75C31.09 118.71 31.11 118.67 31.14 118.64C31.17 118.61 31.2 118.59 31.24 118.57C31.28 118.55 31.33 118.54 31.37 118.54C31.41 118.54 31.46 118.54 31.5 118.57C31.54 118.59 31.58 118.61 31.61 118.64C31.64 118.67 31.66 118.7 31.68 118.75C31.7 118.79 31.71 118.84 31.71 118.88C31.71 118.93 31.71 118.97 31.68 119.01C31.66 119.05 31.64 119.08 31.61 119.12C31.58 119.15 31.54 119.17 31.5 119.19C31.46 119.21 31.42 119.22 31.37 119.22C31.32 119.22 31.28 119.22 31.24 119.19C31.2 119.17 31.16 119.15 31.14 119.12C31.11 119.09 31.09 119.05 31.07 119.01C31.05 118.97 31.04 118.93 31.04 118.88Z" fill="white"></path><path d="M33.2902 115.95C33.4402 115.95 33.5702 115.97 33.7002 116.01C33.8202 116.05 33.9202 116.12 34.0102 116.19C34.1002 116.27 34.1602 116.37 34.2102 116.48C34.2602 116.59 34.2802 116.72 34.2802 116.85C34.2802 116.97 34.2602 117.08 34.2302 117.18C34.1902 117.28 34.1502 117.37 34.0902 117.47C34.0302 117.56 33.9602 117.65 33.8902 117.74C33.8102 117.82 33.7302 117.91 33.6502 118L32.9302 118.74C33.0002 118.72 33.0702 118.7 33.1402 118.69C33.2102 118.68 33.2702 118.67 33.3402 118.67H34.1602C34.2202 118.67 34.2602 118.69 34.3002 118.72C34.3402 118.75 34.3502 118.8 34.3502 118.85V119.18H32.1602V119C32.1602 119 32.1602 118.92 32.1802 118.88C32.2002 118.84 32.2202 118.8 32.2602 118.77L33.2302 117.8C33.3102 117.72 33.3802 117.64 33.4502 117.56C33.5102 117.48 33.5702 117.41 33.6102 117.34C33.6502 117.26 33.6902 117.19 33.7102 117.11C33.7402 117.03 33.7502 116.95 33.7502 116.87C33.7502 116.79 33.7402 116.73 33.7202 116.67C33.7002 116.61 33.6702 116.56 33.6302 116.52C33.5902 116.48 33.5402 116.45 33.4802 116.43C33.4202 116.41 33.3602 116.4 33.2902 116.4C33.1602 116.4 33.0502 116.43 32.9702 116.5C32.8802 116.57 32.8202 116.65 32.7902 116.77C32.7702 116.83 32.7502 116.87 32.7202 116.89C32.6902 116.91 32.6502 116.93 32.6002 116.93C32.5802 116.93 32.5502 116.93 32.5202 116.93L32.2302 116.88C32.2502 116.73 32.2902 116.59 32.3602 116.48C32.4202 116.36 32.5002 116.27 32.6002 116.19C32.7002 116.11 32.8002 116.05 32.9302 116.02C33.0502 115.98 33.1902 115.96 33.3302 115.96L33.2902 115.95Z" fill="white"></path><path d="M35.9 115.95C36.05 115.95 36.18 115.97 36.3 116.01C36.42 116.05 36.52 116.11 36.6 116.18C36.68 116.26 36.75 116.34 36.79 116.44C36.84 116.54 36.86 116.65 36.86 116.77C36.86 116.87 36.86 116.96 36.83 117.04C36.8 117.12 36.77 117.19 36.73 117.24C36.69 117.3 36.63 117.35 36.57 117.39C36.51 117.43 36.44 117.46 36.36 117.49C36.55 117.55 36.69 117.64 36.79 117.77C36.88 117.89 36.93 118.05 36.93 118.24C36.93 118.4 36.9 118.54 36.84 118.66C36.78 118.78 36.7 118.88 36.6 118.97C36.5 119.05 36.39 119.12 36.25 119.16C36.12 119.2 35.98 119.22 35.83 119.22C35.67 119.22 35.53 119.2 35.41 119.17C35.29 119.13 35.19 119.08 35.1 119.01C35.01 118.94 34.94 118.85 34.87 118.75C34.81 118.65 34.76 118.53 34.71 118.39L34.95 118.29C34.95 118.29 35.03 118.26 35.07 118.26C35.11 118.26 35.14 118.26 35.17 118.29C35.2 118.3 35.22 118.33 35.24 118.36C35.26 118.41 35.29 118.46 35.33 118.51C35.36 118.56 35.4 118.61 35.44 118.64C35.48 118.68 35.54 118.71 35.59 118.74C35.65 118.76 35.72 118.78 35.8 118.78C35.89 118.78 35.98 118.77 36.04 118.74C36.11 118.71 36.17 118.67 36.21 118.62C36.25 118.57 36.29 118.52 36.31 118.46C36.33 118.4 36.34 118.34 36.34 118.28C36.34 118.2 36.34 118.13 36.31 118.07C36.28 118.01 36.26 117.96 36.21 117.91C36.16 117.87 36.09 117.83 35.99 117.81C35.89 117.78 35.76 117.77 35.6 117.77V117.38C35.73 117.38 35.84 117.37 35.93 117.34C36.02 117.32 36.09 117.28 36.14 117.24C36.19 117.2 36.23 117.15 36.25 117.09C36.27 117.03 36.28 116.97 36.28 116.9C36.28 116.75 36.24 116.63 36.16 116.56C36.08 116.48 35.96 116.44 35.82 116.44C35.69 116.44 35.58 116.48 35.5 116.54C35.41 116.61 35.35 116.69 35.32 116.8C35.3 116.85 35.28 116.9 35.25 116.92C35.22 116.95 35.18 116.96 35.13 116.96C35.1 116.96 35.08 116.96 35.05 116.96L34.76 116.91C34.78 116.76 34.82 116.62 34.89 116.51C34.95 116.39 35.03 116.3 35.13 116.22C35.22 116.14 35.33 116.08 35.46 116.05C35.58 116.01 35.71 115.99 35.86 115.99L35.9 115.95Z" fill="white"></path><path d="M131.61 121.32C131.36 121.07 131.36 120.67 131.61 120.43C133.12 118.92 133.13 116.45 131.61 114.93C131.36 114.68 131.36 114.29 131.61 114.04C131.86 113.8 132.25 113.8 132.5 114.04C134.5 116.05 134.5 119.32 132.5 121.32C132.25 121.56 131.86 121.56 131.61 121.32Z" fill="white"></path><path d="M130.26 119.92C130.03 119.69 130.03 119.31 130.26 119.08C131.03 118.31 131.03 117.05 130.26 116.28C130.03 116.05 130.03 115.67 130.26 115.44C130.49 115.21 130.87 115.21 131.1 115.44C132.34 116.68 132.34 118.69 131.1 119.93C130.87 120.16 130.49 120.16 130.26 119.93V119.92Z" fill="white"></path><path d="M125.189 117.68L129.199 114.47V120.89L125.189 117.68Z" fill="white"></path><path d="M128 115.97H125.17V119.39H128V115.97Z" fill="white"></path><path d="M137.49 275.97H107.35V306.11H137.49V275.97Z" fill="#9FC400"></path><path d="M167.57 275.97H137.43V306.11H167.57V275.97Z" fill="#B9FFC4"></path><path d="M158.819 291.04C158.819 290.66 158.609 290.34 158.289 290.18L153.249 285.61C152.839 285.24 152.229 285.27 151.859 285.67C151.499 286.07 151.529 286.69 151.929 287.06L155.239 290.05H146.589C146.049 290.05 145.609 290.5 145.609 291.04C145.609 291.58 146.049 292.02 146.589 292.02H155.239L151.929 295.02C151.529 295.38 151.499 296 151.859 296.41C152.059 296.62 152.319 296.73 152.589 296.73C152.819 296.73 153.059 296.65 153.249 296.47L158.309 291.9C158.609 291.73 158.819 291.42 158.819 291.04Z" fill="white"></path><path d="M115.64 291.04C115.64 290.66 115.85 290.34 116.16 290.18L121.21 285.61C121.62 285.24 122.23 285.27 122.6 285.67C122.96 286.07 122.93 286.69 122.53 287.06L119.22 290.05H127.87C128.41 290.05 128.85 290.5 128.85 291.04C128.85 291.58 128.41 292.02 127.87 292.02H119.21L122.52 295.02C122.92 295.38 122.95 296 122.59 296.41C122.4 296.62 122.13 296.73 121.86 296.73C121.63 296.73 121.39 296.65 121.2 296.47L116.14 291.9C115.84 291.73 115.63 291.42 115.63 291.04H115.64Z" fill="white"></path></g><defs><clipPath id="clip0_441_1115"><rect width="428.18" height="306.11" fill="white"></rect></clipPath></defs></svg>