<svg xmlns="http://www.w3.org/2000/svg" width="422" height="322" viewBox="0 0 422 322" fill="none"><g clip-path="url(#clip0_435_243)"><path d="M312.17 304.01C312.31 300.48 315.21 297.66 318.77 297.66H370.65C374.21 297.66 377.1 300.48 377.25 304.01H312.17Z" fill="#300034"></path><path d="M352.54 282.62H336.87V299.51H352.54V282.62Z" fill="#300034"></path><path d="M350.8 284.73H341.41V297.07H350.8V284.73Z" fill="#2E0032"></path><path d="M305.97 264.62C308.13 266.04 310.38 267.37 312.76 268.56C346.34 285.53 387.33 272.05 404.29 238.46C421.27 204.87 407.79 163.89 374.2 146.93C371.83 145.73 369.42 144.7 366.99 143.8L371.37 135.13C373.78 136.06 376.18 137.11 378.55 138.32C416.89 157.69 432.27 204.47 412.9 242.82C393.53 281.16 346.75 296.54 308.4 277.17C306.04 275.98 303.77 274.68 301.58 273.28L305.96 264.61L305.97 264.62Z" fill="#2E0032"></path><path d="M367.9 155.85L361.98 152.87L373.53 129.99L379.45 132.98L367.9 155.85Z" fill="#300034"></path><path d="M382.64 129.25C381.6 126.08 378.19 124.37 375.04 125.4C371.87 126.44 370.15 129.85 371.19 133.01C372.23 136.18 375.64 137.9 378.8 136.85C381.96 135.81 383.68 132.41 382.64 129.24V129.25Z" fill="#300034"></path><path d="M379.42 128.8C378.86 127.1 377.04 126.18 375.34 126.73C373.64 127.29 372.73 129.12 373.28 130.81C373.84 132.51 375.67 133.43 377.36 132.88C379.06 132.32 379.98 130.49 379.42 128.8Z" fill="#2E0032"></path><path d="M289.87 311.54C290.11 305.59 294.98 300.84 300.99 300.84H388.42C394.43 300.84 399.31 305.59 399.55 311.54H289.87Z" fill="#300034"></path><path d="M391.22 302.93H303.79C298.51 302.93 294.11 306.61 292.96 311.54H399.55C399.44 308.72 398.26 306.19 396.43 304.28C394.87 303.44 393.12 302.93 391.22 302.93Z" fill="#2E0032"></path><path d="M310.518 255.185L298.978 278.07L304.897 281.055L316.437 258.17L310.518 255.185Z" fill="#300034"></path><path d="M310.841 256.168L301.715 274.29L304.359 275.621L313.485 257.499L310.841 256.168Z" fill="#2E0032"></path><path d="M371.81 136.086L363.471 152.667L366.115 153.996L374.454 137.416L371.81 136.086Z" fill="#2E0032"></path><path d="M295.78 281.82C296.82 284.98 300.23 286.7 303.4 285.66C306.57 284.62 308.28 281.21 307.24 278.05C306.2 274.88 302.8 273.17 299.63 274.2C296.47 275.24 294.74 278.65 295.78 281.82Z" fill="#300034"></path><path d="M303.65 277.71C303.09 276.02 301.26 275.09 299.56 275.65C297.87 276.2 296.95 278.03 297.5 279.73C298.06 281.43 299.89 282.35 301.58 281.8C303.28 281.24 304.2 279.41 303.65 277.72V277.71Z" fill="#2E0032"></path><path d="M373.26 156.15C344.52 139.77 307.8 149.83 291.43 178.56C275.05 207.3 285.11 244 313.85 260.38C342.59 276.76 379.28 266.72 395.67 237.97C412.05 209.24 402 172.54 373.27 156.15H373.26Z" fill="#7EB3FF"></path><path d="M375.51 157.53C388.23 175.92 390.14 200.74 378.35 221.43C361.96 250.17 325.26 260.22 296.53 243.84C295.76 243.41 295.01 242.95 294.27 242.47C299.22 249.63 305.8 255.8 313.84 260.39C342.58 276.77 379.27 266.73 395.66 237.98C411.6 210.02 402.5 174.5 375.51 157.53Z" fill="#74B8DC"></path><path d="M385.329 250.86C384.629 250.48 383.549 250.3 383.409 250.52C383.259 250.75 382.069 250.64 381.689 250.59C381.309 250.54 380.139 251.15 379.829 251.39C379.519 251.64 378.799 251.1 378.439 251.07C378.079 251.03 377.219 251.17 377.049 251.46C376.889 251.74 376.739 251.62 376.739 251.19L376.139 251.37L375.419 251.61C374.699 252.27 373.279 252.79 372.929 252.72C372.599 252.63 371.739 254.01 371.419 254.57C371.089 255.14 370.929 255.97 371.029 256.4L370.829 256.89L370.419 257.84C369.869 258.45 370.039 259.37 370.129 259.57C370.209 259.77 371.699 260.16 372.259 260.32C372.489 260.39 372.809 260.42 373.119 260.43C377.629 257.89 381.819 254.75 385.589 251.05C385.499 250.97 385.409 250.91 385.329 250.86Z" fill="#EAF4FE"></path><path d="M298.52 203.14C298.36 203.23 298.75 204.73 298.93 205.26C299.1 205.8 298.97 207.8 298.84 208.39C298.7 209 298.13 209.78 297.96 209.96C297.8 210.12 297.78 210.69 297.71 210.89C297.64 211.08 296.41 212.42 296.19 213.1C295.97 213.79 294.02 215.23 293.5 216.2C292.99 217.17 292.7 218.66 292.93 218.67C293.16 218.67 292.67 219.67 292.31 219.62C291.95 219.57 291.18 220.14 291.33 220.27C291.47 220.4 290.86 221.06 290.74 221.38C290.61 221.71 289.73 223.84 289.51 224.36C289.29 224.89 289.3 226.49 289.22 226.99C289.13 227.49 288.84 228.35 288.84 228.5C288.82 228.65 288.83 228.81 288.84 228.82C288.84 228.82 289.3 229.36 289.39 229.58C289.5 229.81 290.66 230.36 291.06 230.5C291.46 230.62 291.32 230.1 291.26 229.82C291.2 229.54 291.56 228.58 291.42 228.38C291.27 228.19 291.84 227.02 292.14 226.87C292.45 226.71 293.35 226.7 293.54 226.53C293.73 226.36 294.32 225.4 294.21 225.15C294.11 224.92 295.01 223.86 295.22 223.2C295.41 222.53 296.88 222.65 297.22 222.23C297.56 221.8 299.09 222.01 299.51 221.94C299.93 221.87 300.93 220.67 300.96 220.3C300.99 219.94 301.71 220.05 301.99 220.2C302.26 220.35 302.66 220.33 302.76 220.39C302.87 220.44 303.52 220.03 303.77 219.99C304.02 219.95 305.18 218.74 305.62 218.69C306.07 218.64 306.81 217.93 306.95 217.68C307.1 217.43 308 216.96 308.29 216.83C308.57 216.69 310.04 216.82 310.3 216.86C310.56 216.89 311.94 215.2 312.42 214.57C312.88 213.94 313.75 213.23 313.9 213.03C314.04 212.82 314.53 212.85 314.64 212.82C314.76 212.79 315.53 212.09 315.81 211.99C316.1 211.89 317.23 211.44 317.34 211.26C317.45 211.09 317.82 210.68 318.15 210.34L318.41 209.88L318.83 209.16C318.95 208.47 318.72 207.41 318.48 207.47C318.23 207.52 317.87 206.46 317.58 206.1C317.29 205.76 316.44 205.12 316.2 204.99C315.97 204.85 315.54 203.73 315.24 203.41C314.95 203.1 314.12 202.39 314.02 202.19C313.92 201.99 314.47 200.49 313.98 199.62C313.49 198.75 312.79 196.96 312.86 196.49C312.94 196.02 311.97 194.41 311.67 193.91C311.37 193.42 310.74 192.99 310.61 193.03C310.47 193.06 310.39 191.92 310.24 191.52C310.09 191.12 309.35 190.44 309.18 190.63C309.03 190.83 308.53 190.39 308.49 190.13C308.47 189.89 307.88 189.88 307.63 189.84C307.39 189.79 306.07 190.46 305.59 190.54C305.11 190.61 305.01 189.89 304.85 189.68C304.7 189.47 303.73 189.25 303.42 189.28C303.1 189.31 303.33 187.71 303.79 187.18C304.25 186.65 304.27 185.08 303.79 184.76C303.29 184.44 303.85 183.1 304.22 182.69C304.59 182.28 303.74 181.42 303.5 181.25C303.26 181.06 302.26 181.35 301.98 181.6C301.69 181.85 299.81 179.79 300.87 178.57C301.93 177.34 303.83 176.54 304.21 176.51C304.57 176.51 306.11 177.26 306.33 177.63C306.54 178.01 306.95 177.98 307.06 177.93C307.16 177.88 308.31 178.66 308.59 179.01C308.87 179.37 308.59 181.06 308.86 181.44C309.15 181.83 309.89 180.82 310.1 180.6C310.31 180.36 310.45 179.56 310.47 179.33C310.48 179.09 312.14 177.79 312.87 177.82C313.59 177.85 314.74 177.25 314.78 177.06C314.82 176.86 315.4 177.02 315.57 177.03C315.75 177.04 316.36 175.58 316.77 175.41C317.16 175.24 318.58 175.22 319 175.27C319.42 175.32 320.16 174.6 320.13 174.38C320.09 174.15 321.56 173.88 322.16 174C322.77 174.13 322.95 174.84 322.79 174.84C322.91 174.84 323.84 174.87 324.26 174.85C324.74 174.82 324.75 173.98 324.63 173.66C324.51 173.35 325.08 172.68 325.38 172.77C325.69 172.86 326.29 172.35 326.3 172.18C326.3 171.99 327.37 172.93 328.03 172.85C328.67 172.77 327.7 173.74 327.1 174.02C326.51 174.29 326.83 175.06 327.1 175.1C327.37 175.13 327.4 175.6 327.37 175.76C327.34 175.91 327.95 175.91 328.18 176.21C328.4 176.52 328.89 176.07 329.07 175.83C329.23 175.6 328.78 174.64 328.84 174.27C328.89 173.9 329.85 172.11 330.04 171.74C330.24 171.37 330.09 170.5 329.86 170.52C329.66 170.52 329.93 169.31 329.81 168.94C329.68 168.57 329.9 168.04 330.01 167.88C330.12 167.71 329.77 166.31 329.8 165.78C329.82 165.25 329.49 165.16 329.37 165.34C329.23 165.52 328.62 165.21 328.38 165.04C328.15 164.88 328.49 163.8 328.69 163.45C328.89 163.08 327.81 162.38 327.8 161.99C327.78 161.6 326.98 161.32 326.97 161.05C326.97 160.78 326.43 160.22 326.26 160.23C326.08 160.23 324.67 162.85 324.15 163.49C323.63 164.12 322.69 164.4 322.47 164.25C322.27 164.11 322.1 164.7 322.28 164.74C322.46 164.78 321.43 165.27 321.05 165.75C320.68 166.23 320.45 165.37 320.64 164.84C320.83 164.31 320.67 163.35 320.48 163.46C320.28 163.57 320.13 163 319.9 163.01C319.68 163.02 319.08 161.77 318.81 161.32C318.53 160.89 319 159.52 318.84 159.28C318.66 159.03 318.95 159 319.05 158.81C319.15 158.62 320.34 158.35 320.75 158.2C321.14 158.05 322.65 157.42 323.13 157.38C323.61 157.34 324.24 156.84 324.25 156.69C324.25 156.55 326.05 156.94 326.54 157.02C327.03 157.12 328.05 156.17 328.29 155.87C328.52 155.57 328.57 154.76 328.43 154.58C328.28 154.39 329.07 154.79 329.24 155.07C329.43 155.34 330.41 155.43 330.64 155.78C330.85 156.12 331.27 156.84 331.55 157.39L330.98 158.18L329.98 159.5C328.5 159.32 327.67 159.98 328.09 160.21C328.52 160.43 329.96 162.38 330.27 163.07C330.6 163.77 331.3 162.92 331.65 162.68C331.99 162.46 332.46 161.51 332.44 161.26C332.41 161.01 333.14 161.5 333.23 161.82C333.33 162.15 333.8 161.87 334.02 161.89C334.22 161.91 334.75 161.18 334.93 161.06C335.1 160.96 334.75 160.53 334.85 160.33C334.95 160.12 334.31 159.25 334.1 158.97C333.89 158.67 334.15 158.05 334.36 158.02C334.56 158 334.76 157.11 334.76 156.78C334.76 156.46 333.98 155.74 333.69 155.57C333.39 155.39 333.47 154.53 333.36 154.33C333.24 154.14 332.16 153.35 331.82 153.27C331.49 153.2 331.49 151.99 330.85 151.99C330.21 151.99 330.04 151.11 329.9 150.86C329.75 150.62 327.93 151.19 327.46 152.04C326.98 152.9 326.94 153.96 327.1 154.09C327.27 154.22 326.61 154.86 326.29 154.97C325.97 155.07 325.75 154.35 326.04 154.26C326.33 154.17 326.17 152.9 326.14 152.4C326.13 152.04 325.66 151.48 325.36 151.09C324.99 151.21 324.62 151.33 324.25 151.47C324.15 151.83 324.03 152.29 323.76 152.53C323.29 152.96 322.81 152.78 322.91 152.55C322.96 152.45 322.79 152.24 322.55 152.06C311.92 156.03 302.37 163.02 295.3 172.62C295.39 173.05 295.48 173.55 295.41 173.84C295.3 174.38 295.92 175.13 296.02 175.32C296.11 175.48 296.72 174.55 296.76 174.24C296.8 173.93 297.17 173.94 297.07 174.13C296.96 174.31 297.22 175.59 297.3 176.04C297.37 176.49 296.5 178.62 296.5 179.18C296.5 179.74 298.28 181.94 298.94 182.51C299.58 183.08 300.05 184.44 300.06 184.76C300.06 185.08 300.98 185.76 301.13 185.98C301.28 186.2 301.41 187.14 301.54 187.4C301.66 187.66 301.6 188.15 301.54 188.25C301.48 188.35 302.5 189.58 302.62 190.11C302.74 190.63 303.31 190.84 303.49 190.74C303.67 190.65 303.45 191.63 303.43 191.99C303.39 192.36 303.02 193.08 302.85 193.14C302.68 193.19 301.76 194.39 301.39 194.53C301.02 194.66 299.48 196.3 299.36 196.73C299.25 197.17 299.41 198.28 299.61 198.55C299.8 198.81 299.46 199.15 299.24 199.06C299.02 198.98 298.09 200.83 298.42 201.38C298.76 201.92 298.7 202.96 298.56 203.06L298.52 203.14Z" fill="#EAF4FE"></path><path d="M331.72 150.89C332.41 151.14 333.54 151.56 333.7 151.42C333.83 151.31 334.09 150.88 334.06 150.67C334.15 150.73 334.27 150.81 334.36 150.86C334.59 150.99 335.73 149.92 336.15 149.76C336.57 149.6 338.25 149.96 338.71 149.95C339.16 149.94 340.32 149.65 340.65 149.73C340.98 149.81 341.78 149.38 341.79 149.2C341.79 149.04 343.18 148.99 343.67 149.06C344.15 149.11 344.62 148.77 344.48 148.66C344.39 148.6 341.56 148.5 338.94 148.5C335.78 148.74 332.66 149.26 329.58 149.99C330.23 150.3 331.26 150.74 331.72 150.9V150.89Z" fill="#EAF4FE"></path><path d="M332.43 237.23C333.33 237.21 335.41 236.18 335.99 236.04C336.56 235.9 337.56 234.79 337.79 234.55C338.02 234.31 338.84 234.19 339.09 234.25C339.35 234.3 341.61 231.88 342.55 231.6C343.5 231.33 345.89 228.76 346.42 227.64C346.95 226.53 348.57 224.75 348.99 224.34C349.41 223.94 350.65 223.49 350.99 223.45C351.32 223.4 353.96 222.09 354.85 221.6C355.75 221.1 357.14 219.68 357.27 219.24C357.4 218.8 356.56 217.95 356.27 218.04C355.98 218.13 354.95 217.75 354.65 217.58C354.34 217.41 354.56 215.41 354.33 214.83C354.09 214.26 354.76 212.2 354.7 211.71C354.66 211.23 354.47 209.95 354.37 209.63C354.27 209.3 354.79 208.31 354.9 208.01C355 207.72 355.22 208.42 355.07 208.85C354.93 209.29 355.13 211.48 355.17 212.21C355.22 212.93 355.15 215.13 355.09 215.78C355.03 216.44 357.18 217.32 358 217.38C358.82 217.44 359.94 217.38 360.07 217.22C360.2 217.06 361.51 217.17 361.93 217.1C362.35 217.04 363.29 215.99 363.58 215.89C363.88 215.8 364.2 214.46 364.18 214C364.16 213.54 363.27 212.66 362.99 212.69C362.69 212.7 362.77 211.54 362.79 211.11C362.83 210.69 362.26 209.83 362.31 209.55C362.36 209.27 362.85 209.08 363.03 209.08C363.2 209.07 364.07 210.93 364.21 211.69C364.33 212.44 364.28 213.66 364.27 213.86C364.25 214.07 365.36 214.81 365.73 214.76C366.1 214.72 366.36 214.94 366.32 215.24L366.72 215.39L368.11 215.91C368.33 216.9 368.19 217.57 368.1 217.69C368.02 217.8 368.1 218.55 368.31 218.75C368.52 218.95 368.23 219.89 368.18 220.13C368.14 220.38 368.16 222.04 368 222.64C367.85 223.26 367.89 224.62 367.88 224.98C367.88 225.34 367.54 226.2 367.42 226.43C367.3 226.64 367.52 227.33 367.82 227.48C368.12 227.62 369.74 226.13 370.27 225.54C370.78 224.94 371.58 224.65 371.7 224.72C371.84 224.8 372.16 224.48 372.24 224.34C372.32 224.19 373.05 224.63 373.22 224.48C373.39 224.34 374.29 223.25 374.66 223.22C375.03 223.19 376.31 223.11 376.71 223.18C377.1 223.25 377.52 224.44 377.51 224.89C377.51 225.32 377.19 226.28 377.04 226.38C376.88 226.48 376.98 227.5 377.43 227.75C377.88 227.99 377.69 228.64 377.58 228.86C377.48 229.08 377.72 230 377.69 230.35C377.65 230.68 377.2 231.39 377.03 231.5C376.86 231.62 376.37 232.61 376.3 232.92C376.23 233.24 376.81 235.4 377.08 236.11C377.36 236.82 378.33 235.68 378.29 235.13C378.26 234.58 377.89 233.16 377.84 232.76C377.79 232.36 378.39 231.22 378.64 230.97C378.89 230.71 379.32 231.59 379.49 231.98C379.65 232.37 379.75 233.09 379.67 233.26C379.59 233.44 382 233.45 382.69 232.38C383.4 231.3 384.72 230.4 384.94 230.13C385.18 229.87 385.16 229.33 385 229.23C384.86 229.13 385.77 228.54 386.28 228.84C386.78 229.15 388.79 228.47 389.41 228.1C390.01 227.72 390.85 227.61 390.96 227.58C391.07 227.55 392.22 226.49 392.59 226C392.96 225.51 393.08 224.46 393.19 224.15C393.31 223.86 393.22 222.96 393.22 222.7C393.22 222.44 393.54 221.63 393.7 221.53C393.84 221.43 394.39 221.54 394.52 221.45C394.64 221.35 395.49 221.09 395.59 220.81C395.7 220.55 395.74 221.32 395.86 221.67C395.98 222.01 395.5 223.49 395.71 223.81C395.92 224.13 398.02 223.27 398.45 222.18C398.88 221.09 400.1 220.1 400.46 220.14C400.74 220.18 401.77 219.69 402.48 219.34C404.21 210.09 403.72 200.66 401.18 191.8C401.1 191.76 401.03 191.73 400.98 191.68L400.58 191.33C399.93 190.74 399.95 189.7 400.19 189.58C400.26 189.54 400.33 189.41 400.38 189.23C400.18 188.62 399.96 188.01 399.73 187.4C399.38 187.19 399 186.98 398.8 186.85C398.35 186.57 397.57 185.7 397.49 185.43C397.42 185.16 396.64 185.15 396.43 185.45C396.21 185.76 395.11 185.32 394.87 185.52C394.62 185.7 394.09 185.42 394.07 185.23C394.05 185.03 392.83 184.97 392.32 184.77C391.81 184.56 390.71 184.44 390.45 184.42C390.19 184.4 389.41 184.6 389.22 184.76C389.02 184.92 388.23 184.91 387.99 184.88C387.76 184.84 387.3 185.75 387.47 186.01C387.65 186.28 387.07 185.65 386.85 185.3C386.62 184.96 385.96 185.29 385.76 185.42C385.55 185.55 385.43 185.09 385.59 184.83C385.75 184.57 385.07 183.91 384.85 184.06C384.62 184.22 384.23 183.61 384.08 183.37C383.92 183.12 382.35 183.58 381.78 183.74C381.21 183.9 379.3 183.2 379.06 182.87C378.82 182.55 377.98 183.28 378.22 183.49C378.46 183.7 377.54 183.04 376.97 182.79C376.4 182.53 374.47 182.26 373.94 182.33C373.4 182.4 373.3 181.88 373.42 181.67C373.54 181.46 373.05 180.91 372.91 180.75C372.77 180.59 371.72 181.63 371.27 181.68C370.82 181.74 371.14 180.33 370.52 179.71C369.9 179.09 369.15 177.74 368.87 177.46C368.6 177.19 368.33 176.13 368.27 175.82C368.2 175.53 367.36 174.82 367.05 174.64C366.75 174.47 365.46 174.48 365.08 174.55C364.69 174.62 364.32 174.35 364.15 174.35C363.97 174.35 362.27 174.81 361.65 174.9C361.03 175 359.46 176.01 359.03 176.23C358.58 176.44 358.2 176.3 358.04 176.23C357.9 176.16 357.56 176.47 357.48 176.62C357.4 176.76 355.77 176.7 355.31 177.2C354.85 177.7 354.36 179.15 354.1 179.62C353.84 180.08 353.77 181.27 354.12 181.49C354.45 181.7 353.83 182.37 353.63 182.54C353.41 182.71 353.58 183.13 353.46 183.29C353.36 183.47 352.32 183.23 352 183.19C351.67 183.13 350.89 183.5 350.7 183.69C350.54 183.86 349.61 183.52 349.18 183.63C349.36 183.47 349.61 183.26 349.77 183.15C350.11 182.94 350.19 182.28 350.12 182.1C350.04 181.92 350.85 180.36 350.82 179.92C350.79 179.47 350.58 178.63 350.51 178.44C350.44 178.26 350.89 177.99 351.06 177.87C351.22 177.74 350.5 177.19 350.21 177.2C349.93 177.2 348.97 178.63 348.63 178.99C348.31 179.35 348.43 180.25 348.55 180.35C348.66 180.46 348.2 181.18 347.91 181.04C347.62 180.91 346.75 181.85 346.75 182.17C346.75 182.5 346.14 182.78 345.91 182.81C345.69 182.83 346.95 183.46 347.51 183.76C348.07 184.07 348.36 184.56 348.28 184.57C348.2 184.59 347.11 184.16 346.8 184.29C346.49 184.43 345.53 184.5 345.3 184.61C345.06 184.71 345.19 185.32 345.49 185.47C345.78 185.61 345.54 186.82 345.66 187.15C345.78 187.46 345.4 187.94 345.22 188.03C345.03 188.11 343.81 187.09 343.22 186.93C342.63 186.76 341.36 187.48 341.08 187.87C340.8 188.26 340.26 189.51 340.14 189.88C340.02 190.23 340.99 191.06 341.1 191.34C341.24 191.63 342.35 192.06 342.52 192.29C342.67 192.51 344.02 191.75 344.46 191.3C344.9 190.84 346.56 190.49 347.01 190.26C347.44 190.02 348.6 190.75 348.99 190.72C349.4 190.7 348.61 191.7 348.4 192.37C348.2 193.05 349.39 193.62 349.54 192.96C349.69 192.31 350.11 192.22 350.04 192.45C349.99 192.68 350.81 193.75 350.84 194.18C350.86 194.61 350.42 195.25 350.19 195.1C349.95 194.96 349.52 195.7 349.73 195.93C349.94 196.14 350.81 195.42 351.15 195.45C351.51 195.47 352.06 195.03 351.95 194.91C351.86 194.8 352.5 194.49 352.56 194.75C352.62 195.01 352.61 193.3 352.41 192.58C352.22 191.84 352.42 192.23 352.87 193.46L353 194.63C353.02 194.84 352.92 195.4 352.92 195.63V195.96C352.87 196.32 352.52 197.19 352.4 197.4C352.28 197.62 352.5 198.31 352.8 198.46C353.09 198.6 353.22 198.89 353.15 198.86C353.08 198.84 353.02 199.54 353.3 199.71C353.57 199.89 354.11 199.23 353.84 199.04C353.56 198.87 354.21 197.84 354.43 197.36C354.66 196.88 355.12 196.63 355.21 196.69C355.31 196.75 354.66 197.63 354.54 197.85C354.43 198.07 354.29 198.57 354.26 198.95L354.41 199.35L354.78 200.23C355.89 200.49 357.03 201.43 356.87 201.59C356.71 201.76 357.43 202.23 357.65 201.95C357.87 201.67 357.73 202 357.6 202.22C357.49 202.43 356.38 202.92 356.06 203.25C355.73 203.58 353.71 202.08 352.81 201.47C351.9 200.86 350.35 200.39 350.08 200.61C349.83 200.83 348.88 199.07 348.37 198.4C347.86 197.74 347.92 196.42 347.86 196.21C347.79 195.99 348.24 195.8 348.29 195.56C348.34 195.32 346.83 194.41 346.29 194.32C345.75 194.23 343.32 193.16 342.64 193.1C341.96 193.03 341.29 192.3 341.05 192.1C340.82 191.92 339.78 192.32 339.41 192.28C339.02 192.23 338.03 193.08 337.19 194.15L336.31 194.72L335.75 195.1C334.67 195.24 332.73 196.68 332.25 196.93C331.79 197.18 330.01 199.83 329.48 200.76C328.95 201.69 328.64 204.13 328.56 204.81C328.48 205.48 329.2 207.49 329.5 208.05C329.8 208.6 331.31 209.51 331.82 209.79C332.32 210.07 333.16 209.92 333.68 209.46L334.38 209.95L334.7 210.17C334.49 210.6 335.38 211.54 335.56 211.83C335.75 212.12 336.52 212.42 336.76 212.48C337.01 212.54 336.16 214.59 335.69 215.06C335.22 215.51 334.64 217.76 334.46 218.43C334.29 219.11 334.04 221.09 333.78 221.7C333.52 222.31 331.98 223.96 331.52 224.58C331.06 225.21 330.9 227.59 330.78 228.37C330.66 229.14 330.07 230.64 329.88 230.96C329.7 231.28 329.58 233.78 329.37 234.7C329.13 235.63 331.51 237.23 332.4 237.23H332.43Z" fill="#EAF4FE"></path><path d="M388.869 238.06C388.869 238.24 389.759 238.1 390.179 238.26C390.599 238.41 391.399 237.54 391.149 237.3C390.899 237.05 390.969 236.06 390.809 235.84C390.649 235.63 389.989 235.82 389.839 236.13C389.679 236.46 388.909 236.18 388.629 236.35C388.359 236.54 388.249 236.71 388.409 236.77C388.559 236.83 388.889 237.87 388.869 238.04V238.06Z" fill="#EAF4FE"></path><path d="M384.99 243.1C385.22 243.13 385.58 242.02 385.23 241.72C384.88 241.41 383.01 242.18 382.76 243.11C382.51 244.02 382.76 244.1 382.97 243.99C383.18 243.88 383.67 244.53 383.82 244.7C383.97 244.87 384.08 244.67 384.07 244.27C384.05 243.87 384.76 243.05 384.99 243.09V243.1Z" fill="#EAF4FE"></path><path d="M383.41 240.91C383.66 240.58 384.37 239.51 384.54 239.32C384.73 239.12 384.43 238.11 384.16 237.82C383.9 237.51 381.55 239.2 380.56 239.16C379.57 239.14 378.52 240.37 378.52 240.81C378.55 241.24 380.02 242.3 380.16 242.7C380.3 243.11 380.76 243 380.95 243.05C381.14 243.11 381.15 242.97 381.1 242.89C381.06 242.81 382.05 242.52 382.37 242.16C382.69 241.8 383.15 241.23 383.4 240.9L383.41 240.91Z" fill="#EAF4FE"></path><path d="M376.959 242.27C376.499 241.71 375.609 241.66 375.419 241.86C375.229 242.05 377.349 243.75 378.009 244.41C378.659 245.06 379.099 245.4 378.999 245.17C378.899 244.93 377.419 242.84 376.959 242.27Z" fill="#EAF4FE"></path><path d="M390.34 229.8C390.67 229.65 390.92 228.17 390.54 228.33C390.15 228.48 389.91 229.27 389.84 229.57C389.77 229.86 390 229.96 390.34 229.81V229.8Z" fill="#EAF4FE"></path><path d="M390.26 233.21C390.57 232.98 390.47 232.46 390.02 232.06C389.58 231.67 388.78 233.22 388.9 233.55C389.01 233.86 389.94 233.45 390.26 233.21Z" fill="#EAF4FE"></path><path d="M387.52 244.12C387.88 244.88 389.34 245.46 389.85 244.66C389.48 243.93 387.99 243.17 387.52 244.12Z" fill="#EAF4FE"></path><path d="M397.79 225.33C397.44 225.35 397.06 225.73 397.03 225.96C396.99 225.94 396.96 225.91 396.93 225.89C396.74 225.78 396.25 226.56 396.39 226.82C396.52 227.07 397.45 226.61 397.83 226.58C398.19 226.55 398.79 226.75 398.83 226.85C398.88 226.95 399.43 227.07 400.06 227.13C400.17 227.13 400.35 227.06 400.54 226.94C400.77 226.29 400.95 225.64 401.13 224.99C400.78 225.03 400.38 225.07 400.18 225.11C399.78 225.2 398.24 225.29 397.78 225.33H397.79Z" fill="#EAF4FE"></path><path d="M374.9 233.47V233.48C374.83 233.34 374.83 233.33 374.9 233.47Z" fill="#EAF4FE"></path><path d="M376.66 239.12C376.73 238.5 376.48 237.24 376.12 236.34L376.1 235.78L376.08 235.17C376.12 234.53 375.6 233.71 375.62 233.53C375.63 233.34 375.07 233.79 374.91 233.48C374.99 233.65 375.16 234.01 375.39 234.5C375.81 235.41 375.22 239.57 375.39 239.99C375.56 240.4 376.6 239.73 376.67 239.12H376.66Z" fill="#EAF4FE"></path><path d="M369.029 227.5C368.629 227.76 369.339 229.27 369.539 229.13C369.749 229 370.019 227.91 369.939 227.59C369.849 227.26 369.439 227.22 369.029 227.5Z" fill="#EAF4FE"></path><path d="M342.95 236.65C342.77 237.08 343.4 237.87 343.68 237.94C343.96 238 345.32 237.16 345.61 236.86C345.91 236.56 346.4 235.85 346.51 235.66C346.61 235.49 346.95 235.14 347.07 235.15C347.18 235.15 347.57 234.82 347.93 234.42C348.28 234 348.9 231.53 349.11 231.15C349.31 230.76 348.56 231.09 348.24 231.41C347.9 231.72 346.4 231.9 345.98 232.08C345.56 232.27 344.68 233.21 344.66 233.46C344.64 233.69 344.04 234.33 343.81 234.48C343.58 234.62 343.13 236.2 342.95 236.63V236.65Z" fill="#EAF4FE"></path><path d="M296.08 229.57C296.32 229.7 296.55 229.84 296.8 229.98C297.37 229.28 296.41 228.9 296.08 229.57Z" fill="#EAF4FE"></path><path d="M361.15 159.82C360.82 159.69 360.13 159.08 360.09 158.87C360.02 158.65 358.94 157.87 358.51 157.81C358.1 157.76 358.88 156.93 359.41 157.09C359.93 157.25 359.9 156.37 359.42 156.08C358.92 155.79 357.8 154.92 357.47 154.81C357.15 154.71 356.74 154.13 356.54 153.97C356.36 153.82 354.61 153.45 353.93 153.02C353.25 152.59 351.5 151.69 351.07 151.58C350.64 151.46 349.95 152.04 349.86 152.32C349.76 152.6 348.06 151.62 347.52 151.33C346.97 151.03 343.75 150 342.76 149.98C341.78 149.96 340.59 150.69 340.83 150.84C341.07 151.01 340.06 151.23 339.58 151.13C339.1 151.04 338.09 150.56 337.74 150.66C337.39 150.76 337.77 151.18 337.77 151.38C337.77 151.58 338.2 151.45 338.37 151.75C338.54 152.03 339.35 152.58 339.52 152.78C339.7 153 338.66 152.64 338.2 152.42C337.74 152.21 337.35 153.12 337.64 153.44C337.93 153.77 338.77 154.42 338.95 154.33C339.13 154.23 339.95 155.11 340.38 155.43C340.79 155.73 340.5 157.06 340.49 157.38C340.49 157.7 340.03 158.58 339.86 158.81C339.68 159.04 340.25 159.97 340.5 159.89C340.73 159.81 340.38 160.34 340.06 160.12C339.75 159.9 339.42 160.97 339.75 161.35C340.08 161.72 339.47 162.14 339.13 162.19C338.8 162.23 338.61 162.87 338.25 162.94C337.9 163 337.9 165.53 337.34 166.49C336.79 167.47 336.95 168.62 337.17 168.75C337.4 168.88 338.09 169.54 338.08 169.81C338.08 170.08 338.67 169.94 338.9 169.87C339.14 169.79 339.74 169.52 340.22 169.24C340.7 168.96 342.38 167.32 342.57 167.15C342.76 166.98 343.61 167.64 343.88 167.65C344.14 167.65 345.01 167.53 345.27 167.49C345.52 167.44 347.15 167.64 347.66 167.58C348.16 167.52 349.39 166.76 349.81 166.67C350.22 166.59 349.76 166.42 349.54 165.99C349.32 165.56 349.63 165.37 349.79 165.32C349.96 165.27 350.85 166.16 351.14 166.51C351.42 166.86 352.41 166.76 352.25 166.41C352.09 166.07 352.23 166.15 352.32 166.3C352.4 166.46 352.95 165.8 352.89 165.6C352.83 165.38 354.53 165.18 354.8 164.23C355.08 163.28 356.1 162.73 356.43 162.9C356.76 163.07 357.2 162.09 356.85 161.78C356.52 161.48 356.93 161.6 357.16 161.55C357.37 161.5 358.03 160.77 358.04 160.56C358.04 160.35 358.83 160.56 359.05 160.44C359.28 160.32 360.28 160.39 360.58 160.49C360.89 160.59 361.47 159.94 361.15 159.8V159.82Z" fill="#EAF4FE"></path><path d="M367.549 164.37C367.239 164.03 366.259 164.01 366.219 164.3C366.179 164.6 365.779 163.65 365.139 163.63C364.499 163.6 363.869 164.39 364.029 164.64C364.189 164.89 363.949 165.67 363.889 165.8C363.809 165.95 364.829 166.39 365.189 166.33C365.549 166.27 364.999 167.15 364.619 167.26C364.229 167.36 364.289 168.04 364.539 168.23C364.789 168.42 364.789 169.25 365.059 169.4C365.339 169.56 366.409 168.77 366.739 168.44C367.069 168.1 367.799 168.93 368.149 169.3C368.499 169.66 369.549 168.17 369.229 167.67C368.919 167.18 368.289 166.97 368.199 166.69C368.119 166.4 367.889 166.05 367.689 165.9C367.519 165.75 367.839 164.7 367.549 164.37Z" fill="#EAF4FE"></path><path d="M370.759 167.2C371.419 167.72 372.599 167.59 372.879 167.51C373.159 167.45 371.189 165.73 370.369 165.22C369.539 164.71 368.799 164.44 368.709 164.61C368.629 164.78 370.089 166.66 370.769 167.19L370.759 167.2Z" fill="#EAF4FE"></path><path d="M346 179.43C345.86 179.24 345.33 179.91 345.22 180.21C345.11 180.51 345.79 180.87 346.11 180.99C346.43 181.11 346.79 181 346.91 180.76C347.04 180.51 347.24 179.2 347.07 179.1C346.91 179.01 346.14 179.63 345.99 179.44L346 179.43Z" fill="#EAF4FE"></path><path d="M353 172.22C353 171.86 351.83 171.24 351.56 171.06C351.3 170.89 350.59 170.1 350.52 169.82C350.46 169.55 349.84 170.37 349.5 170.34C349.17 170.3 349.46 170.7 349.63 170.67C349.79 170.64 349.36 171.12 349.14 171.25C348.92 171.37 349.72 172.01 349.66 172.36C349.59 172.7 349.85 173.1 350.23 173.24C350.61 173.39 351.52 173.42 351.78 173.54C352.04 173.65 353.01 172.58 353.01 172.23L353 172.22Z" fill="#EAF4FE"></path><path d="M380.99 179.42C381.61 179.24 383.55 179.64 383.97 179.34C384.39 179.03 384.28 178.53 384.12 178.43C383.95 178.34 383.64 178.43 383.56 178.47C383.49 178.51 381.36 177.9 380.62 177.84C379.9 177.79 378.99 177.84 378.6 177.94C378.22 178.05 376.76 179.68 376.51 179.81C376.25 179.95 376.58 181.13 376.79 181.53C377.02 181.93 377.54 182.09 377.69 182.12C377.85 182.16 378.28 180.68 378.37 180.14C378.45 179.58 380.37 179.59 380.99 179.42Z" fill="#EAF4FE"></path><path d="M381.739 173.44C381.999 174.41 382.839 173.72 383.479 174.19C384.179 172.94 382.249 172.41 381.739 173.44Z" fill="#EAF4FE"></path><path d="M393.579 180.5C393.439 180.72 395.049 181.89 395.599 182.09C396.149 182.29 395.989 181.16 395.229 180.79C394.469 180.42 393.729 180.29 393.569 180.51L393.579 180.5Z" fill="#EAF4FE"></path><path d="M323.949 157.74C323.669 157.79 323.349 158.73 323.679 158.95C324.009 159.17 325.289 158.19 325.579 158.68C325.849 159.18 326.079 159.45 326.089 159.27C326.089 159.1 325.189 157.88 325.099 157.7C324.999 157.53 324.229 157.67 323.959 157.74H323.949Z" fill="#EAF4FE"></path><path d="M312.06 188.84C311.98 188.98 312.73 189.39 313 189.22C313.24 189.06 313.29 188.84 313.09 188.72C312.89 188.6 312.14 188.69 312.06 188.84Z" fill="#EAF4FE"></path><path d="M309.419 185.7C309.819 185.83 309.309 186.32 309.279 186.58C309.249 186.84 310.019 187.5 310.109 187.73C310.209 187.97 310.869 187.82 311.199 188.06C311.519 188.3 311.759 186.8 311.169 186.51C310.569 186.22 310.429 185.39 310.339 185.25C310.229 185.12 309.789 184.33 309.689 184.06C309.589 183.8 308.189 182.83 307.689 182.55C307.199 182.27 306.349 182.46 306.189 182.58C305.999 182.7 306.819 183.31 307.139 183.32C307.469 183.34 308.469 184.28 308.539 184.69C308.619 185.11 309.019 185.57 309.419 185.7Z" fill="#EAF4FE"></path><path d="M307.14 186.03C307.05 186.17 307.87 186.52 308.04 186.63C308.22 186.74 308.29 186.61 308.19 186.35C308.08 186.08 307.22 185.89 307.14 186.03Z" fill="#EAF4FE"></path><path d="M309.889 182.44C309.749 182.25 309.419 182.47 309.329 182.62C309.239 182.77 309.279 182.94 309.419 183.02C309.549 183.1 310.049 182.63 309.889 182.44Z" fill="#EAF4FE"></path><path d="M311.43 183.47C311.44 183.28 311.18 182.98 311.09 182.93C310.99 182.87 310.77 183.08 310.63 183.39C310.46 183.71 311.42 183.65 311.44 183.47H311.43Z" fill="#EAF4FE"></path><path d="M311.549 185.88C311.939 185.9 312.189 185.56 311.999 185.48C311.799 185.39 311.779 184.66 311.629 184.47C311.479 184.28 311.079 184.6 310.979 184.77C310.879 184.96 310.919 185.14 311.079 185.17C311.239 185.22 311.169 185.85 311.549 185.88Z" fill="#EAF4FE"></path><path d="M389.439 246.04C389.239 246.04 388.419 245.69 388.399 245.48C388.379 245.28 387.969 245.65 387.769 245.63C387.559 245.61 387.419 246.06 387.729 246.08C387.959 246.09 388.449 246.91 388.829 247.61C389.279 247.09 389.709 246.57 390.149 246.03C389.869 246.03 389.569 246.05 389.439 246.04Z" fill="#EAF4FE"></path><path d="M334.05 150.81C334.03 150.73 333.71 150.76 333.76 150.91C333.77 151 334.08 150.97 334.05 150.81Z" fill="#D1ECFB"></path><path d="M330.01 171.3C330.01 171.22 329.69 171.26 329.72 171.4C329.74 171.5 330.05 171.46 330.01 171.3Z" fill="#D1ECFB"></path><path d="M315.78 211.99C316.07 211.89 317.2 211.44 317.31 211.26C317.42 211.09 317.79 210.68 318.12 210.34L318.38 209.88L318.8 209.16C318.92 208.47 318.69 207.41 318.45 207.47C318.2 207.52 317.84 206.46 317.55 206.1C317.26 205.76 316.41 205.12 316.17 204.99C315.94 204.85 315.51 203.73 315.21 203.41C314.92 203.1 314.09 202.39 313.99 202.19C313.89 201.99 314.44 200.49 313.95 199.62C313.46 198.75 312.76 196.96 312.83 196.49C312.91 196.02 311.94 194.41 311.64 193.91C311.34 193.42 310.71 192.99 310.58 193.03C310.44 193.06 310.36 191.92 310.21 191.52C310.06 191.12 309.32 190.44 309.15 190.63C309 190.83 308.5 190.39 308.46 190.13C308.44 189.89 307.85 189.88 307.6 189.84C307.36 189.79 306.04 190.46 305.56 190.54C305.08 190.61 304.98 189.89 304.82 189.68C304.67 189.47 303.7 189.25 303.39 189.28C303.07 189.31 303.3 187.71 303.76 187.18C304.22 186.65 304.24 185.08 303.76 184.76C303.26 184.44 303.82 183.1 304.19 182.69C304.56 182.28 303.71 181.42 303.47 181.25C303.23 181.06 302.23 181.35 301.95 181.6C301.66 181.85 299.78 179.79 300.84 178.57C301.9 177.34 303.8 176.54 304.18 176.51C304.54 176.51 306.08 177.26 306.3 177.63C306.51 178.01 306.92 177.98 307.03 177.93C307.13 177.88 308.28 178.66 308.56 179.01C308.84 179.37 308.56 181.06 308.83 181.44C309.12 181.83 309.86 180.82 310.07 180.6C310.28 180.36 310.42 179.56 310.44 179.33C310.45 179.09 312.11 177.79 312.84 177.82C313.56 177.85 314.71 177.25 314.75 177.06C314.79 176.86 315.37 177.02 315.54 177.03C315.72 177.04 316.33 175.58 316.74 175.41C317.13 175.24 318.55 175.22 318.97 175.27C319.39 175.32 320.13 174.6 320.1 174.38C320.06 174.15 321.53 173.88 322.13 174C322.74 174.13 322.92 174.84 322.76 174.84C322.88 174.84 323.81 174.87 324.23 174.85C324.71 174.82 324.72 173.98 324.6 173.66C324.48 173.35 325.05 172.68 325.35 172.77C325.66 172.86 326.26 172.35 326.27 172.18C326.27 171.99 327.34 172.93 328 172.85C328.64 172.77 327.67 173.74 327.07 174.02C326.48 174.29 326.8 175.06 327.07 175.1C327.34 175.13 327.37 175.6 327.34 175.76C327.31 175.91 327.92 175.91 328.15 176.21C328.37 176.52 328.86 176.07 329.04 175.83C329.2 175.6 328.75 174.64 328.81 174.27C328.86 173.9 329.82 172.11 330.01 171.74C330.21 171.37 330.06 170.5 329.83 170.52C329.63 170.52 329.9 169.31 329.78 168.94C329.65 168.57 329.87 168.04 329.98 167.88C330.09 167.71 329.74 166.31 329.77 165.78C329.79 165.25 329.46 165.16 329.34 165.34C329.2 165.52 328.59 165.21 328.35 165.04C328.12 164.88 328.46 163.8 328.66 163.45C328.86 163.08 327.78 162.38 327.77 161.99C327.75 161.6 326.95 161.32 326.94 161.05C326.94 160.78 326.4 160.22 326.23 160.23C326.05 160.23 324.64 162.85 324.12 163.49C323.6 164.12 322.66 164.4 322.44 164.25C322.24 164.11 322.07 164.7 322.25 164.74C322.43 164.78 321.4 165.27 321.02 165.75C320.65 166.23 320.42 165.37 320.61 164.84C320.8 164.31 320.64 163.35 320.45 163.46C320.25 163.57 320.1 163 319.87 163.01C319.65 163.02 319.05 161.77 318.78 161.32C318.5 160.89 318.97 159.52 318.81 159.28C318.63 159.03 318.92 159 319.02 158.81C319.12 158.62 320.31 158.35 320.72 158.2C321.11 158.05 322.62 157.42 323.1 157.38C323.58 157.34 324.21 156.84 324.22 156.69C324.22 156.55 326.02 156.94 326.51 157.02C327 157.12 328.02 156.17 328.26 155.87C328.49 155.57 328.54 154.76 328.4 154.58C328.25 154.39 329.04 154.79 329.21 155.07C329.4 155.34 330.38 155.43 330.61 155.78C330.82 156.12 331.24 156.84 331.52 157.39L330.95 158.18L329.95 159.5C328.47 159.32 327.64 159.98 328.06 160.21C328.49 160.43 329.93 162.38 330.24 163.07C330.57 163.77 331.27 162.92 331.62 162.68C331.96 162.46 332.43 161.51 332.41 161.26C332.38 161.01 333.11 161.5 333.2 161.82C333.3 162.15 333.77 161.87 333.99 161.89C334.19 161.91 334.72 161.18 334.9 161.06C335.07 160.96 334.72 160.53 334.82 160.33C334.92 160.12 334.28 159.25 334.07 158.97C333.86 158.67 334.12 158.05 334.33 158.02C334.53 158 334.73 157.11 334.73 156.78C334.73 156.46 333.95 155.74 333.66 155.57C333.36 155.39 333.44 154.53 333.33 154.33C333.21 154.14 332.13 153.35 331.79 153.27C331.46 153.2 331.46 151.99 330.82 151.99C330.18 151.99 330.01 151.11 329.87 150.86C329.72 150.62 327.9 151.19 327.43 152.04C326.95 152.9 326.91 153.96 327.07 154.09C327.24 154.22 326.58 154.86 326.26 154.97C325.94 155.07 325.72 154.35 326.01 154.26C326.3 154.17 326.14 152.9 326.11 152.4C326.1 152.04 325.63 151.48 325.33 151.09C324.96 151.21 324.59 151.33 324.22 151.47C324.12 151.83 324 152.29 323.73 152.53C323.26 152.96 322.78 152.78 322.88 152.55C322.93 152.45 322.76 152.24 322.52 152.06C311.89 156.03 302.34 163.02 295.27 172.62C295.36 173.05 295.45 173.55 295.38 173.84C295.27 174.38 295.89 175.13 295.99 175.32C296.08 175.48 296.69 174.55 296.73 174.24C296.77 173.93 297.14 173.94 297.04 174.13C296.93 174.31 297.19 175.59 297.27 176.04C297.34 176.49 296.47 178.62 296.47 179.18C296.47 179.74 298.25 181.94 298.91 182.51C299.55 183.08 300.02 184.44 300.03 184.76C300.03 185.08 300.95 185.76 301.1 185.98C301.25 186.2 301.38 187.14 301.51 187.4C301.63 187.66 301.57 188.15 301.51 188.25C301.45 188.35 302.47 189.58 302.59 190.11C302.71 190.63 303.28 190.84 303.46 190.74C303.64 190.65 303.42 191.63 303.4 191.99C303.36 192.36 302.99 193.08 302.82 193.14C302.65 193.19 301.73 194.39 301.36 194.53C300.99 194.66 299.45 196.3 299.33 196.73C299.22 197.17 299.38 198.28 299.58 198.55C299.77 198.81 299.43 199.15 299.21 199.06C298.99 198.98 298.06 200.83 298.39 201.38C298.73 201.92 298.67 202.96 298.53 203.06C298.37 203.15 298.76 204.65 298.94 205.18C299.11 205.72 298.98 207.72 298.85 208.31C298.71 208.92 298.14 209.7 297.97 209.88C297.81 210.04 297.79 210.61 297.72 210.81C297.65 211 296.42 212.34 296.2 213.02C295.98 213.71 294.03 215.15 293.51 216.12C293 217.09 292.71 218.58 292.94 218.59C293.17 218.59 292.68 219.59 292.32 219.54C291.96 219.49 291.19 220.06 291.34 220.19C291.48 220.32 290.87 220.98 290.75 221.3C290.62 221.63 289.74 223.76 289.52 224.28C289.3 224.81 289.31 226.41 289.23 226.91C289.14 227.41 288.85 228.27 288.85 228.42C288.83 228.57 288.84 228.73 288.85 228.74C288.85 228.74 289.31 229.28 289.4 229.5C289.51 229.73 290.67 230.28 291.07 230.42C291.47 230.54 291.33 230.02 291.27 229.74C291.21 229.46 291.57 228.5 291.43 228.3C291.28 228.11 291.85 226.94 292.15 226.79C292.46 226.63 293.36 226.62 293.55 226.45C293.74 226.28 294.33 225.32 294.22 225.07C294.12 224.84 295.02 223.78 295.23 223.12C295.42 222.45 296.89 222.57 297.23 222.15C297.57 221.72 299.1 221.93 299.52 221.86C299.94 221.79 300.94 220.59 300.97 220.22C301 219.86 301.72 219.97 302 220.12C302.27 220.27 302.67 220.25 302.77 220.31C302.88 220.36 303.53 219.95 303.78 219.91C304.03 219.87 305.19 218.66 305.63 218.61C306.08 218.56 306.82 217.85 306.96 217.6C307.11 217.35 308.01 216.88 308.3 216.75C308.58 216.61 310.05 216.74 310.31 216.78C310.57 216.81 311.95 215.12 312.43 214.49C312.89 213.86 313.76 213.15 313.91 212.95C314.05 212.74 314.54 212.77 314.65 212.74C314.77 212.71 315.54 212.01 315.82 211.91L315.78 211.99Z" fill="#C5E1F9"></path><path d="M336.14 149.75C336.56 149.59 338.24 149.95 338.7 149.94C339.15 149.93 340.31 149.64 340.64 149.72C340.97 149.8 341.77 149.37 341.78 149.19C341.78 149.03 343.17 148.98 343.66 149.05C344.14 149.1 344.61 148.76 344.47 148.65C344.38 148.59 341.55 148.49 338.93 148.49C335.77 148.73 332.65 149.25 329.57 149.98C330.22 150.29 331.25 150.73 331.71 150.89C332.4 151.14 333.53 151.56 333.69 151.42C333.82 151.31 334.08 150.88 334.05 150.67C334.14 150.73 334.26 150.81 334.35 150.86C334.58 150.99 335.72 149.92 336.14 149.76V149.75Z" fill="#C5E1F9"></path><path d="M385.851 185.36C385.851 185.36 385.791 185.4 385.771 185.41C385.561 185.54 385.441 185.08 385.601 184.82C385.761 184.56 385.081 183.9 384.861 184.05C384.631 184.21 384.241 183.6 384.091 183.36C383.931 183.11 382.361 183.57 381.791 183.73C381.221 183.89 379.311 183.19 379.071 182.86C378.831 182.54 377.991 183.27 378.231 183.48C378.471 183.69 377.551 183.03 376.981 182.78C376.411 182.52 374.481 182.25 373.951 182.32C373.411 182.39 373.311 181.87 373.431 181.66C373.551 181.45 373.061 180.9 372.921 180.74C372.781 180.58 371.731 181.62 371.281 181.67C370.831 181.73 371.151 180.32 370.531 179.7C369.911 179.08 369.161 177.73 368.881 177.45C368.611 177.18 368.341 176.12 368.281 175.81C368.211 175.52 367.371 174.81 367.061 174.63C366.761 174.46 365.471 174.47 365.091 174.54C364.701 174.61 364.331 174.34 364.161 174.34C363.981 174.34 362.281 174.8 361.661 174.89C361.041 174.99 359.471 176 359.041 176.22C358.591 176.43 358.211 176.29 358.051 176.22C357.911 176.15 357.571 176.46 357.491 176.61C357.411 176.75 355.781 176.69 355.321 177.19C354.861 177.69 354.371 179.14 354.111 179.61C353.851 180.07 353.781 181.26 354.131 181.48C354.461 181.69 353.841 182.36 353.641 182.53C353.421 182.7 353.591 183.12 353.471 183.28C353.371 183.46 352.331 183.22 352.011 183.18C351.681 183.12 350.901 183.49 350.711 183.68C350.551 183.85 349.621 183.51 349.191 183.62C349.371 183.46 349.621 183.25 349.781 183.14C350.121 182.93 350.201 182.27 350.131 182.09C350.051 181.91 350.861 180.35 350.831 179.91C350.801 179.46 350.591 178.62 350.521 178.43C350.451 178.25 350.901 177.98 351.071 177.86C351.231 177.73 350.511 177.18 350.221 177.19C349.941 177.19 348.981 178.62 348.641 178.98C348.321 179.34 348.441 180.24 348.561 180.34C348.671 180.45 348.211 181.17 347.921 181.03C347.631 180.9 346.761 181.84 346.761 182.16C346.761 182.49 346.151 182.77 345.921 182.8C345.701 182.82 346.961 183.45 347.521 183.75C348.081 184.06 348.371 184.55 348.291 184.56C348.211 184.58 347.121 184.15 346.811 184.28C346.501 184.42 345.541 184.49 345.311 184.6C345.071 184.7 345.201 185.31 345.501 185.46C345.791 185.6 345.551 186.81 345.671 187.14C345.791 187.45 345.411 187.93 345.231 188.02C345.041 188.1 343.821 187.08 343.231 186.92C342.641 186.75 341.371 187.47 341.091 187.86C340.811 188.25 340.271 189.5 340.151 189.87C340.031 190.22 341.001 191.05 341.111 191.33C341.251 191.62 342.361 192.05 342.531 192.28C342.681 192.5 344.031 191.74 344.471 191.29C344.911 190.83 346.571 190.48 347.021 190.25C347.451 190.01 348.611 190.74 349.001 190.71C349.411 190.69 348.621 191.69 348.411 192.36C348.211 193.04 349.401 193.61 349.551 192.95C349.701 192.3 350.121 192.21 350.051 192.44C350.001 192.67 350.821 193.74 350.851 194.17C350.871 194.6 350.431 195.24 350.201 195.09C349.961 194.95 349.531 195.69 349.741 195.92C349.951 196.13 350.821 195.41 351.161 195.44C351.521 195.46 352.071 195.02 351.961 194.9C351.871 194.79 352.511 194.48 352.571 194.74C352.631 195 352.621 193.29 352.421 192.57C352.231 191.83 352.431 192.22 352.881 193.45L353.011 194.62C353.031 194.83 352.931 195.39 352.931 195.62V195.95C352.881 196.31 352.531 197.18 352.411 197.39C352.291 197.61 352.511 198.3 352.811 198.45C353.101 198.59 353.231 198.88 353.161 198.85C353.091 198.83 353.031 199.53 353.311 199.7C353.581 199.88 354.121 199.22 353.851 199.03C353.571 198.86 354.221 197.83 354.441 197.35C354.671 196.87 355.131 196.62 355.221 196.68C355.321 196.74 354.671 197.62 354.551 197.84C354.441 198.06 354.301 198.56 354.271 198.94L354.421 199.34L354.791 200.22C355.901 200.48 357.041 201.42 356.881 201.58C356.721 201.75 357.441 202.22 357.661 201.94C357.881 201.66 357.741 201.99 357.611 202.21C357.501 202.42 356.391 202.91 356.071 203.24C355.741 203.57 353.721 202.07 352.821 201.46C351.911 200.85 350.361 200.38 350.091 200.6C349.841 200.82 348.891 199.06 348.381 198.39C347.871 197.73 347.931 196.41 347.871 196.2C347.801 195.98 348.251 195.79 348.301 195.55C348.351 195.31 346.841 194.4 346.301 194.31C345.761 194.22 343.331 193.15 342.651 193.09C341.971 193.02 341.301 192.29 341.061 192.09C340.831 191.91 339.791 192.31 339.421 192.27C339.031 192.22 338.041 193.07 337.201 194.14L336.321 194.71L335.761 195.09C334.681 195.23 332.741 196.67 332.261 196.92C331.801 197.17 330.021 199.82 329.491 200.75C328.961 201.68 328.651 204.12 328.571 204.8C328.491 205.47 329.211 207.48 329.511 208.04C329.811 208.59 331.321 209.5 331.831 209.78C332.331 210.06 333.171 209.91 333.691 209.45L334.391 209.94L334.711 210.16C334.501 210.59 335.391 211.53 335.571 211.82C335.761 212.11 336.531 212.41 336.771 212.47C337.021 212.53 336.171 214.58 335.701 215.05C335.231 215.5 334.651 217.75 334.471 218.42C334.301 219.1 334.051 221.08 333.791 221.69C333.531 222.3 331.991 223.95 331.531 224.57C331.071 225.2 330.911 227.58 330.791 228.36C330.671 229.13 330.081 230.63 329.891 230.95C329.711 231.27 329.591 233.77 329.381 234.69C329.141 235.62 331.521 237.22 332.411 237.22C333.311 237.2 335.391 236.17 335.971 236.03C336.541 235.89 337.541 234.78 337.771 234.54C338.001 234.3 338.821 234.18 339.071 234.24C339.331 234.29 341.591 231.87 342.531 231.59C343.481 231.32 345.871 228.75 346.401 227.63C346.931 226.52 348.551 224.74 348.971 224.33C349.391 223.93 350.631 223.48 350.971 223.44C351.301 223.39 353.941 222.08 354.831 221.59C355.731 221.09 357.121 219.67 357.251 219.23C357.381 218.79 356.541 217.94 356.251 218.03C355.961 218.12 354.931 217.74 354.631 217.57C354.321 217.4 354.541 215.4 354.311 214.82C354.071 214.25 354.741 212.19 354.681 211.7C354.641 211.22 354.451 209.94 354.351 209.62C354.251 209.29 354.771 208.3 354.881 208C354.981 207.71 355.201 208.41 355.051 208.84C354.911 209.28 355.111 211.47 355.151 212.2C355.201 212.92 355.131 215.12 355.071 215.77C355.011 216.43 357.161 217.31 357.981 217.37C358.801 217.43 359.921 217.37 360.051 217.21C360.181 217.05 361.491 217.16 361.911 217.09C362.331 217.03 363.271 215.98 363.561 215.88C363.861 215.79 364.181 214.45 364.161 213.99C364.141 213.53 363.251 212.65 362.971 212.68C362.671 212.69 362.751 211.53 362.771 211.1C362.811 210.68 362.241 209.82 362.291 209.54C362.341 209.26 362.831 209.07 363.011 209.07C363.181 209.06 364.051 210.92 364.191 211.68C364.311 212.43 364.261 213.65 364.251 213.85C364.231 214.06 365.341 214.8 365.711 214.75C366.081 214.71 366.341 214.93 366.301 215.23L366.701 215.38L368.091 215.9C368.311 216.89 368.171 217.56 368.081 217.68C368.001 217.79 368.081 218.54 368.291 218.74C368.501 218.94 368.211 219.88 368.161 220.12C368.121 220.37 368.141 222.03 367.981 222.63C367.831 223.25 367.871 224.61 367.861 224.97C367.861 225.33 367.521 226.19 367.401 226.42C367.281 226.63 367.501 227.32 367.801 227.47C368.101 227.61 369.721 226.12 370.251 225.53C370.761 224.93 371.561 224.64 371.681 224.71C371.821 224.79 372.141 224.47 372.221 224.33C372.301 224.18 373.031 224.62 373.201 224.47C373.371 224.33 374.271 223.24 374.641 223.21C375.011 223.18 376.291 223.1 376.691 223.17C376.821 223.19 376.931 223.33 377.061 223.52C377.491 222.82 377.921 222.11 378.341 221.39C384.811 210.03 387.141 197.43 385.831 185.33L385.851 185.36Z" fill="#C5E1F9"></path><path d="M369.54 229.13C369.75 229 370.02 227.91 369.94 227.59C369.85 227.26 369.44 227.22 369.03 227.5C368.63 227.76 369.34 229.27 369.54 229.13Z" fill="#C5E1F9"></path><path d="M342.951 236.65C342.771 237.08 343.401 237.87 343.681 237.94C343.961 238 345.321 237.16 345.611 236.86C345.911 236.56 346.401 235.85 346.511 235.66C346.611 235.49 346.951 235.14 347.071 235.15C347.181 235.15 347.571 234.82 347.931 234.42C348.281 234 348.901 231.53 349.111 231.15C349.311 230.76 348.561 231.09 348.241 231.41C347.901 231.72 346.401 231.9 345.981 232.08C345.561 232.27 344.681 233.21 344.661 233.46C344.641 233.69 344.041 234.33 343.811 234.48C343.581 234.62 343.131 236.2 342.951 236.63V236.65Z" fill="#C5E1F9"></path><path d="M296.08 229.57C296.32 229.7 296.55 229.84 296.8 229.98C297.37 229.28 296.41 228.9 296.08 229.57Z" fill="#C5E1F9"></path><path d="M347.521 151.34C346.971 151.04 343.751 150.01 342.761 149.99C341.781 149.97 340.591 150.7 340.831 150.85C341.071 151.02 340.061 151.24 339.581 151.14C339.101 151.05 338.091 150.57 337.741 150.67C337.391 150.77 337.771 151.19 337.771 151.39C337.771 151.59 338.201 151.46 338.371 151.76C338.541 152.04 339.351 152.59 339.521 152.79C339.701 153.01 338.661 152.65 338.201 152.43C337.741 152.22 337.351 153.13 337.641 153.45C337.931 153.78 338.771 154.43 338.951 154.34C339.131 154.24 339.951 155.12 340.381 155.44C340.791 155.74 340.501 157.07 340.491 157.39C340.491 157.71 340.031 158.59 339.861 158.82C339.681 159.05 340.251 159.98 340.501 159.9C340.731 159.82 340.381 160.35 340.061 160.13C339.751 159.91 339.421 160.98 339.751 161.36C340.081 161.73 339.471 162.15 339.131 162.2C338.801 162.24 338.611 162.88 338.251 162.95C337.901 163.01 337.901 165.54 337.341 166.5C336.791 167.48 336.951 168.63 337.171 168.76C337.401 168.89 338.091 169.55 338.081 169.82C338.081 170.09 338.671 169.95 338.901 169.88C339.141 169.8 339.741 169.53 340.221 169.25C340.701 168.97 342.381 167.33 342.571 167.16C342.761 166.99 343.611 167.65 343.881 167.66C344.141 167.66 345.011 167.54 345.271 167.5C345.521 167.45 347.151 167.65 347.661 167.59C348.161 167.53 349.391 166.77 349.811 166.68C350.221 166.6 349.761 166.43 349.541 166C349.321 165.57 349.631 165.38 349.791 165.33C349.961 165.28 350.851 166.17 351.141 166.52C351.421 166.87 352.411 166.77 352.251 166.42C352.091 166.08 352.231 166.16 352.321 166.31C352.401 166.47 352.951 165.81 352.891 165.61C352.831 165.39 354.531 165.19 354.801 164.24C355.081 163.29 356.101 162.74 356.431 162.91C356.761 163.08 357.201 162.1 356.851 161.79C356.521 161.49 356.931 161.61 357.161 161.56C357.371 161.51 358.031 160.78 358.041 160.57C358.041 160.36 358.831 160.57 359.051 160.45C359.281 160.33 360.281 160.4 360.581 160.5C360.891 160.6 361.471 159.95 361.151 159.81C360.821 159.68 360.131 159.07 360.091 158.86C360.021 158.64 358.941 157.86 358.511 157.8C358.101 157.75 358.881 156.92 359.411 157.08C359.931 157.24 359.901 156.36 359.421 156.07C358.921 155.78 357.801 154.91 357.471 154.8C357.151 154.7 356.741 154.12 356.541 153.96C356.361 153.81 354.611 153.44 353.931 153.01C353.251 152.58 351.501 151.68 351.071 151.57C350.641 151.45 349.951 152.03 349.861 152.31C349.761 152.59 348.061 151.61 347.521 151.32V151.34Z" fill="#C5E1F9"></path><path d="M364.54 168.22C364.79 168.41 364.79 169.24 365.06 169.39C365.34 169.55 366.41 168.76 366.74 168.43C367.07 168.09 367.8 168.92 368.15 169.29C368.5 169.65 369.55 168.16 369.23 167.66C368.92 167.17 368.29 166.96 368.2 166.68C368.12 166.39 367.89 166.04 367.69 165.89C367.52 165.74 367.84 164.69 367.55 164.36C367.24 164.02 366.26 164 366.22 164.29C366.18 164.59 365.78 163.64 365.14 163.62C364.5 163.59 363.87 164.38 364.03 164.63C364.19 164.88 363.95 165.66 363.89 165.79C363.81 165.94 364.83 166.38 365.19 166.32C365.55 166.26 365 167.14 364.62 167.25C364.23 167.35 364.29 168.03 364.54 168.22Z" fill="#C5E1F9"></path><path d="M372.88 167.51C373.16 167.45 371.19 165.73 370.37 165.22C369.54 164.71 368.8 164.44 368.71 164.61C368.63 164.78 370.09 166.66 370.77 167.19C371.43 167.71 372.61 167.58 372.89 167.5L372.88 167.51Z" fill="#C5E1F9"></path><path d="M346.001 179.43C345.861 179.24 345.331 179.91 345.221 180.21C345.111 180.51 345.791 180.87 346.111 180.99C346.431 181.11 346.791 181 346.911 180.76C347.041 180.51 347.241 179.2 347.071 179.1C346.911 179.01 346.141 179.63 345.991 179.44L346.001 179.43Z" fill="#C5E1F9"></path><path d="M353 172.22C353 171.86 351.83 171.24 351.56 171.06C351.3 170.89 350.59 170.1 350.52 169.82C350.46 169.55 349.84 170.37 349.5 170.34C349.17 170.3 349.46 170.7 349.63 170.67C349.79 170.64 349.36 171.12 349.14 171.25C348.92 171.37 349.72 172.01 349.66 172.36C349.59 172.7 349.85 173.1 350.23 173.24C350.61 173.39 351.52 173.42 351.78 173.54C352.04 173.65 353.01 172.58 353.01 172.23L353 172.22Z" fill="#C5E1F9"></path><path d="M378.59 177.94C378.21 178.05 376.75 179.68 376.5 179.81C376.24 179.95 376.57 181.13 376.78 181.53C377.01 181.93 377.53 182.09 377.68 182.12C377.84 182.16 378.27 180.68 378.36 180.14C378.44 179.58 380.36 179.59 380.98 179.42C381.6 179.24 383.54 179.64 383.96 179.34C384.38 179.03 384.27 178.53 384.11 178.43C383.94 178.34 383.63 178.43 383.55 178.47C383.48 178.51 381.35 177.9 380.61 177.84C379.89 177.79 378.98 177.84 378.59 177.94Z" fill="#C5E1F9"></path><path d="M381.74 173.44C382 174.41 382.84 173.72 383.48 174.19C383.51 174.14 383.5 174.11 383.52 174.06C383.42 173.72 383.32 173.38 383.21 173.04C382.75 172.79 382.02 172.86 381.74 173.44Z" fill="#C5E1F9"></path><path d="M323.95 157.74C323.67 157.79 323.35 158.73 323.68 158.95C324.01 159.17 325.29 158.19 325.58 158.68C325.85 159.18 326.08 159.45 326.09 159.27C326.09 159.1 325.19 157.88 325.1 157.7C325 157.53 324.23 157.67 323.96 157.74H323.95Z" fill="#C5E1F9"></path><path d="M312.061 188.84C311.981 188.98 312.731 189.39 313.001 189.22C313.241 189.06 313.291 188.84 313.091 188.72C312.891 188.6 312.141 188.69 312.061 188.84Z" fill="#C5E1F9"></path><path d="M309.42 185.7C309.82 185.83 309.31 186.32 309.28 186.58C309.25 186.84 310.02 187.5 310.11 187.73C310.21 187.97 310.87 187.82 311.2 188.06C311.52 188.3 311.76 186.8 311.17 186.51C310.57 186.22 310.43 185.39 310.34 185.25C310.23 185.12 309.79 184.33 309.69 184.06C309.59 183.8 308.19 182.83 307.69 182.55C307.2 182.27 306.35 182.46 306.19 182.58C306 182.7 306.82 183.31 307.14 183.32C307.47 183.34 308.47 184.28 308.54 184.69C308.62 185.11 309.02 185.57 309.42 185.7Z" fill="#C5E1F9"></path><path d="M307.141 186.03C307.051 186.17 307.871 186.52 308.041 186.63C308.221 186.74 308.291 186.61 308.191 186.35C308.081 186.08 307.221 185.89 307.141 186.03Z" fill="#C5E1F9"></path><path d="M309.89 182.44C309.75 182.25 309.42 182.47 309.33 182.62C309.24 182.77 309.28 182.94 309.42 183.02C309.55 183.1 310.05 182.63 309.89 182.44Z" fill="#C5E1F9"></path><path d="M311.431 183.47C311.441 183.28 311.181 182.98 311.091 182.93C310.991 182.87 310.771 183.08 310.631 183.39C310.461 183.71 311.421 183.65 311.441 183.47H311.431Z" fill="#C5E1F9"></path><path d="M311.55 185.88C311.94 185.9 312.19 185.56 312 185.48C311.8 185.39 311.78 184.66 311.63 184.47C311.48 184.28 311.08 184.6 310.98 184.77C310.88 184.96 310.92 185.14 311.08 185.17C311.24 185.22 311.17 185.85 311.55 185.88Z" fill="#C5E1F9"></path><path d="M338.959 248.08V95.2501C338.959 91.2901 335.729 88.0601 331.769 88.0601H83.5894C79.6194 88.0601 76.3994 91.2901 76.3994 95.2501V248.08H338.969H338.959Z" fill="#300034"></path><path d="M75.8799 248.37V270.47C75.8799 274.72 79.3299 278.17 83.5899 278.17H331.77C336.02 278.17 339.48 274.72 339.48 270.47V248.37H75.8799Z" fill="#C5E1F9"></path><path d="M253.08 310.72C253.08 310.72 251.17 309.79 248.97 308.96C246.63 308.08 243.81 306.97 242.16 306.18C239.26 304.78 239.01 303.87 237.92 299.12C236.74 293.92 235.62 282.96 235.18 278.17H180.2C179.75 282.95 178.63 293.92 177.45 299.12C176.37 303.87 176.12 304.79 173.21 306.18C171.56 306.97 168.8 308.05 166.47 308.93C164.25 309.76 162.42 310.41 162.42 310.41C162.42 310.41 160.65 311.39 163.49 311.53H251.88C254.55 311.58 253.09 310.71 253.09 310.71L253.08 310.72Z" fill="#C5E1F9"></path><path d="M235.75 283.95C235.51 281.67 235.3 279.63 235.17 278.17H180.19C180.06 279.63 179.86 281.67 179.61 283.95H235.75Z" fill="#EAF4FE"></path><path d="M123.56 248.08H178.2L278.09 88.0601H223.45L123.56 248.08Z" fill="#2E0032"></path><path d="M193.82 248.08H213.76L313.64 88.0601H293.7L193.82 248.08Z" fill="#2E0032"></path><path d="M326.75 100.39H88.5898V234.5H326.75V100.39Z" fill="white"></path><path d="M324.41 100.44H91.1202C89.8102 100.44 88.7402 101.44 88.7402 102.67V116.62H326.78V102.67C326.78 101.44 325.72 100.44 324.4 100.44H324.41Z" fill="#EAF4FE"></path><path d="M93.7999 104.79C93.7999 105.59 93.1499 106.23 92.3599 106.23C91.5699 106.23 90.9199 105.58 90.9199 104.79C90.9199 104 91.5599 103.35 92.3599 103.35C93.1599 103.35 93.7999 103.99 93.7999 104.79Z" fill="#9AC7F7"></path><path d="M98.0304 104.79C98.0304 105.59 97.3804 106.23 96.5904 106.23C95.8004 106.23 95.1504 105.58 95.1504 104.79C95.1504 104 95.7904 103.35 96.5904 103.35C97.3904 103.35 98.0304 103.99 98.0304 104.79Z" fill="#9AC7F7"></path><path d="M102.26 104.79C102.26 105.59 101.62 106.23 100.82 106.23C100.02 106.23 99.3799 105.58 99.3799 104.79C99.3799 104 100.03 103.35 100.82 103.35C101.61 103.35 102.26 103.99 102.26 104.79Z" fill="#9AC7F7"></path><path d="M294.41 108.25H108.36V114.51H294.41V108.25Z" fill="white"></path><path d="M92.8803 113.38L90.6104 111.11L92.8803 108.85L93.7204 109.69L92.2904 111.11L93.7204 112.54L92.8803 113.38Z" fill="#9AC7F7"></path><path d="M96.1402 110.51H91.9502V111.7H96.1402V110.51Z" fill="#9AC7F7"></path><path d="M102.481 113.38L101.641 112.54L103.071 111.11L101.641 109.69L102.481 108.85L104.751 111.11L102.481 113.38Z" fill="#9AC7F7"></path><path d="M103.411 110.51H99.2207V111.7H103.411V110.51Z" fill="#9AC7F7"></path><path d="M315.12 108.25H296.84V113.83H315.12V108.25Z" fill="#003E99"></path><path d="M290.35 233.2C290.35 233.88 289.79 234.44 289.11 234.44H126.25C125.56 234.44 125.01 233.88 125.01 233.2V1.25C125.01 0.56 125.56 0 126.25 0H289.11C289.79 0 290.35 0.56 290.35 1.25V233.21V233.2Z" fill="#EAF4FE"></path><path d="M290.35 13.25V1.25C290.35 0.56 289.79 0 289.11 0H126.25C125.56 0 125.01 0.56 125.01 1.25V13.25H290.36H290.35Z" fill="#9AC7F7"></path><path d="M125 205.54V233.21C125 233.89 125.55 234.45 126.24 234.45H289.1C289.78 234.45 290.34 233.89 290.34 233.21V205.54H125Z" fill="#C5E1F9"></path><path d="M290.35 56.3701H125V118.9H290.35V56.3701Z" fill="#9FC400"></path><path d="M252.44 75.72H162.59V81.62H252.44V75.72Z" fill="white"></path><path d="M262.02 87.3699H153V88.8499H262.02V87.3699Z" fill="white"></path><path d="M266.44 92.72H148.58V94.2H266.44V92.72Z" fill="white"></path><path d="M252 98.0698H163.04V99.5498H252V98.0698Z" fill="white"></path><path d="M229.79 29.6399H198.28V33.7299H229.79V29.6399Z" fill="#2E0032"></path><path d="M195.16 26.45H185.56V36.9H195.16V26.45Z" fill="#2E0032"></path><path d="M167.98 42.74H146.09V44.22H167.98V42.74Z" fill="#9AC7F7"></path><path d="M193.3 42.74H171.41V44.22H193.3V42.74Z" fill="#9AC7F7"></path><path d="M218.63 42.74H196.729V44.22H218.63V42.74Z" fill="#9AC7F7"></path><path d="M243.94 42.74H222.05V44.22H243.94V42.74Z" fill="#9AC7F7"></path><path d="M269.27 42.74H247.37V44.22H269.27V42.74Z" fill="#9AC7F7"></path><path d="M281.679 90.6701L280.869 90.0801L282.639 87.6301L280.869 85.1901L281.679 84.6001L283.879 87.6301L281.679 90.6701Z" fill="white"></path><path d="M283.259 87.1301H277.189V88.1301H283.259V87.1301Z" fill="white"></path><path d="M133.68 90.6701L131.47 87.6301L133.68 84.6001L134.49 85.1901L132.71 87.6301L134.49 90.0801L133.68 90.6701Z" fill="white"></path><path d="M138.16 87.1301H132.09V88.1301H138.16V87.1301Z" fill="white"></path><path d="M179.1 127.29H138.72V167.67H179.1V127.29Z" fill="#EAF4FE"></path><path d="M178.6 127.79V167.17H139.22V127.79H178.6ZM179.6 126.79H138.22V168.17H179.6V126.79Z" fill="#9AC7F7"></path><path d="M139.55 167.35C139.42 167.35 139.29 167.3 139.2 167.2C139 167 139 166.69 139.2 166.49L177.93 127.77C178.13 127.57 178.44 127.57 178.64 127.77C178.84 127.97 178.84 128.28 178.64 128.48L139.91 167.2C139.81 167.3 139.68 167.35 139.56 167.35H139.55Z" fill="#9AC7F7"></path><path d="M178.27 167.35C178.14 167.35 178.01 167.3 177.92 167.2L139.19 128.48C138.99 128.28 138.99 127.97 139.19 127.77C139.39 127.57 139.7 127.57 139.9 127.77L178.63 166.49C178.83 166.69 178.83 167 178.63 167.2C178.53 167.3 178.4 167.35 178.27 167.35Z" fill="#9AC7F7"></path><path d="M227.87 127.29H187.49V167.67H227.87V127.29Z" fill="#EAF4FE"></path><path d="M227.36 127.79V167.17H187.98V127.79H227.36ZM228.36 126.79H186.98V168.17H228.36V126.79Z" fill="#9AC7F7"></path><path d="M188.321 167.35C188.191 167.35 188.061 167.3 187.961 167.2C187.771 167 187.771 166.69 187.961 166.49L226.681 127.77C226.881 127.57 227.191 127.57 227.391 127.77C227.591 127.97 227.591 128.28 227.391 128.48L188.671 167.2C188.571 167.3 188.441 167.35 188.321 167.35Z" fill="#9AC7F7"></path><path d="M227.041 167.35C226.911 167.35 226.781 167.3 226.681 167.2L187.961 128.48C187.771 128.28 187.771 127.97 187.961 127.77C188.161 127.57 188.481 127.57 188.671 127.77L227.391 166.49C227.591 166.69 227.591 167 227.391 167.2C227.291 167.3 227.161 167.35 227.041 167.35Z" fill="#9AC7F7"></path><path d="M276.63 127.29H236.25V167.67H276.63V127.29Z" fill="#EAF4FE"></path><path d="M276.13 127.79V167.17H236.75V127.79H276.13ZM277.13 126.79H235.75V168.17H277.13V126.79Z" fill="#9AC7F7"></path><path d="M237.08 167.35C236.95 167.35 236.82 167.3 236.73 167.2C236.53 167 236.53 166.69 236.73 166.49L275.46 127.77C275.66 127.57 275.97 127.57 276.17 127.77C276.36 127.97 276.36 128.28 276.17 128.48L237.45 167.2C237.35 167.3 237.22 167.35 237.09 167.35H237.08Z" fill="#9AC7F7"></path><path d="M275.8 167.35C275.67 167.35 275.54 167.3 275.45 167.2L236.72 128.48C236.52 128.28 236.52 127.97 236.72 127.77C236.92 127.57 237.23 127.57 237.43 127.77L276.15 166.49C276.34 166.69 276.34 167 276.15 167.2C276.05 167.3 275.92 167.35 275.79 167.35H275.8Z" fill="#9AC7F7"></path><path d="M178.75 176.61H138.22V178.09H178.75V176.61Z" fill="#9AC7F7"></path><path d="M175.1 180.45H138.22V181.92H175.1V180.45Z" fill="#9AC7F7"></path><path d="M178.75 184.28H138.22V185.76H178.75V184.28Z" fill="#9AC7F7"></path><path d="M170.57 188.11H138.22V189.59H170.57V188.11Z" fill="#9AC7F7"></path><path d="M160.11 172.96H138.22V174.44H160.11V172.96Z" fill="#9AC7F7"></path><path d="M178.75 218.72H138.22V220.19H178.75V218.72Z" fill="#9AC7F7"></path><path d="M175.1 221.59H138.22V223.07H175.1V221.59Z" fill="#9AC7F7"></path><path d="M160.11 215.06H138.22V216.54H160.11V215.06Z" fill="#9AC7F7"></path><path d="M227.53 176.61H186.99V178.09H227.53V176.61Z" fill="#9AC7F7"></path><path d="M223.88 180.45H186.99V181.92H223.88V180.45Z" fill="#9AC7F7"></path><path d="M227.53 184.28H186.99V185.76H227.53V184.28Z" fill="#9AC7F7"></path><path d="M219.34 188.11H186.99V189.59H219.34V188.11Z" fill="#9AC7F7"></path><path d="M208.88 172.96H186.99V174.44H208.88V172.96Z" fill="#9AC7F7"></path><path d="M276.29 176.61H235.75V178.09H276.29V176.61Z" fill="#9AC7F7"></path><path d="M272.64 180.45H235.75V181.92H272.64V180.45Z" fill="#9AC7F7"></path><path d="M276.29 184.28H235.75V185.76H276.29V184.28Z" fill="#9AC7F7"></path><path d="M268.1 188.11H235.75V189.59H268.1V188.11Z" fill="#9AC7F7"></path><path d="M257.65 172.96H235.75V174.44H257.65V172.96Z" fill="#9AC7F7"></path><path d="M277.13 219.07C277.13 220.96 275.6 222.5 273.7 222.5C271.8 222.5 270.27 220.97 270.27 219.07C270.27 217.17 271.8 215.64 273.7 215.64C275.6 215.64 277.13 217.17 277.13 219.07Z" fill="#9AC7F7"></path><path d="M268.29 219.07C268.29 220.96 266.76 222.5 264.86 222.5C262.96 222.5 261.43 220.97 261.43 219.07C261.43 217.17 262.97 215.64 264.86 215.64C266.75 215.64 268.29 217.17 268.29 219.07Z" fill="#9AC7F7"></path><path d="M259.44 219.07C259.44 220.96 257.9 222.5 256.01 222.5C254.12 222.5 252.58 220.97 252.58 219.07C252.58 217.17 254.12 215.64 256.01 215.64C257.9 215.64 259.44 217.17 259.44 219.07Z" fill="#9AC7F7"></path><path d="M146.37 6.50989C146.37 7.67989 145.42 8.62989 144.25 8.62989C143.08 8.62989 142.13 7.67989 142.13 6.50989C142.13 5.33989 143.08 4.38989 144.25 4.38989C145.42 4.38989 146.37 5.33989 146.37 6.50989Z" fill="white"></path><path d="M139.44 6.50989C139.44 7.67989 138.49 8.62989 137.32 8.62989C136.15 8.62989 135.2 7.67989 135.2 6.50989C135.2 5.33989 136.14 4.38989 137.32 4.38989C138.5 4.38989 139.44 5.33989 139.44 6.50989Z" fill="white"></path><path d="M132.53 6.50989C132.53 7.67989 131.58 8.62989 130.41 8.62989C129.24 8.62989 128.29 7.67989 128.29 6.50989C128.29 5.33989 129.24 4.38989 130.41 4.38989C131.58 4.38989 132.53 5.33989 132.53 6.50989Z" fill="white"></path><path d="M111.45 205.29H116.79V195.83H111.45C110.89 195.83 110.44 196.3 110.44 196.87V204.25C110.44 204.82 110.89 205.29 111.45 205.29Z" fill="#FF876C"></path><path d="M111.551 204H116.791V199.99H111.551C111.281 199.99 111.061 200.22 111.061 200.5V203.49C111.061 203.77 111.281 204 111.551 204Z" fill="#FFA38F"></path><path d="M116.79 198.05V195.84H111.45C110.89 195.84 110.44 196.31 110.44 196.88V198.05H116.8H116.79Z" fill="#E36E54"></path><path d="M134.851 205.41H285.031C284.861 204.24 283.991 203.34 282.891 203.19H134.861V205.41H134.851Z" fill="#74B8DC"></path><path d="M134.851 197.93V203.19H282.911L282.891 203.18C284.111 203.02 285.061 201.91 285.071 200.56C285.071 199.22 284.111 198.11 282.891 197.94H282.911H134.851V197.93Z" fill="#7EB3FF"></path><path d="M282.881 197.93C283.981 197.78 284.851 196.88 285.021 195.72H134.841V197.93H282.871H282.881Z" fill="#74B8DC"></path><path d="M285.031 195.72C284.861 196.88 283.991 197.79 282.891 197.94C284.111 198.1 285.071 199.21 285.071 200.56C285.071 201.92 284.111 203.03 282.891 203.18H282.911L282.891 203.19C283.991 203.34 284.861 204.25 285.031 205.41L304.921 200.55L285.031 195.71V195.72Z" fill="#C5E1F9"></path><path d="M285.031 195.72C284.861 196.88 283.991 197.79 282.891 197.94C284.111 198.1 304.921 200.56 304.921 200.56L285.031 195.72Z" fill="#EAF4FE"></path><path d="M134.851 195.78H116.601V205.36H134.851V195.78Z" fill="#F0CA67"></path><path d="M134.85 200.22H116.61V202.18H134.85V200.22Z" fill="#F4DA80"></path><path d="M298.921 199.11C298.861 199.56 298.811 200.02 298.811 200.49C298.811 201.02 298.861 201.53 298.951 202.03L304.911 200.57L298.911 199.12L298.921 199.11Z" fill="#300034"></path><path d="M132.94 204.5H130.32V205.11H132.94V204.5Z" fill="#F4DA80"></path><path d="M132.94 203.09H130.32V203.71H132.94V203.09Z" fill="#F4DA80"></path><path d="M132.94 201.68H130.32V202.3H132.94V201.68Z" fill="#F0CA67"></path><path d="M132.94 200.27H130.32V200.9H132.94V200.27Z" fill="#F0CA67"></path><path d="M132.94 198.86H130.32V199.48H132.94V198.86Z" fill="#F4DA80"></path><path d="M132.94 197.45H130.32V198.07H132.94V197.45Z" fill="#F4DA80"></path><path d="M132.94 196.05H130.32V196.66H132.94V196.05Z" fill="#F4DA80"></path><path d="M121.761 204.5H119.131V205.11H121.761V204.5Z" fill="#F4DA80"></path><path d="M121.761 203.09H119.131V203.71H121.761V203.09Z" fill="#F4DA80"></path><path d="M121.761 201.68H119.131V202.3H121.761V201.68Z" fill="#F0CA67"></path><path d="M121.761 200.27H119.131V200.9H121.761V200.27Z" fill="#F0CA67"></path><path d="M121.761 198.86H119.131V199.48H121.761V198.86Z" fill="#F4DA80"></path><path d="M121.761 197.45H119.131V198.07H121.761V197.45Z" fill="#F4DA80"></path><path d="M121.761 196.05H119.131V196.66H121.761V196.05Z" fill="#F4DA80"></path><path d="M274.991 208.57V191.16L264.611 188.94C264.081 186.81 263.441 184.72 262.671 182.69L270.461 175.65L261.761 160.58L251.011 164.05C249.631 162.6 248.201 161.22 246.681 159.93L250.081 149.41L235.011 140.7L227.341 149.19C225.471 148.6 223.571 148.11 221.621 147.72L219.301 136.88H201.891L199.561 147.72C197.511 148.13 195.491 148.67 193.521 149.31L186.371 141.4L171.301 150.1L174.481 159.95C172.711 161.46 171.061 163.09 169.501 164.81L160.121 161.78L151.421 176.85L158.371 183.12C157.461 185.58 156.681 188.11 156.131 190.72L147.601 192.55V209.95L155.761 211.7C156.261 214.63 156.981 217.48 157.921 220.23L152.131 225.46L160.831 240.53L168.071 238.19C170.091 240.6 172.321 242.82 174.721 244.85L172.501 251.7L187.571 260.4L192.521 254.92C195.501 255.94 198.591 256.7 201.771 257.2L203.281 264.23H220.681L222.291 256.71C225.321 256.06 228.251 255.14 231.081 254.03L236.201 259.7L251.281 251L248.651 242.86C250.691 240.94 252.591 238.89 254.331 236.69L262.451 239.31L271.151 224.24L264.041 217.82C264.731 215.46 265.231 213.03 265.611 210.55L274.991 208.54V208.57ZM232.101 202.3C232.101 214.18 222.471 223.8 210.611 223.8C198.751 223.8 189.101 214.18 189.101 202.3C189.101 190.42 198.731 180.8 210.611 180.8C222.491 180.8 232.101 190.42 232.101 202.3Z" fill="#4DE266"></path><path d="M210.611 166.79C191.001 166.79 175.091 182.7 175.091 202.31C175.091 221.92 190.991 237.82 210.611 237.82C230.231 237.82 246.121 221.92 246.121 202.31C246.121 182.7 230.221 166.79 210.611 166.79ZM210.611 230.46C195.051 230.46 182.451 217.86 182.451 202.31C182.451 186.76 195.051 174.17 210.611 174.17C226.171 174.17 238.751 186.77 238.751 202.31C238.751 217.85 226.151 230.46 210.611 230.46Z" fill="#300034"></path><path d="M212.2 205.41H285.02C284.85 204.24 283.98 203.34 282.88 203.19H212.2V205.41Z" fill="#74B8DC"></path><path d="M212.2 197.93V203.19H282.91L282.89 203.18C284.11 203.02 285.06 201.91 285.07 200.56C285.07 199.22 284.11 198.11 282.89 197.94H282.91H212.2V197.93Z" fill="#7EB3FF"></path><path d="M282.88 197.93C283.98 197.78 284.85 196.88 285.02 195.72H212.2V197.93H282.88Z" fill="#74B8DC"></path><path d="M285.031 195.72C284.861 196.88 283.991 197.79 282.891 197.94C284.111 198.1 285.071 199.21 285.071 200.56C285.071 201.92 284.111 203.03 282.891 203.18H282.911L282.891 203.19C283.991 203.34 284.861 204.25 285.031 205.41L304.921 200.55L285.031 195.71V195.72Z" fill="#C5E1F9"></path><path d="M285.031 195.72C284.861 196.88 283.991 197.79 282.891 197.94C284.111 198.1 304.921 200.56 304.921 200.56L285.031 195.72Z" fill="#EAF4FE"></path><path d="M298.921 199.11C298.861 199.56 298.811 200.02 298.811 200.49C298.811 201.02 298.861 201.53 298.951 202.03L304.911 200.57L298.911 199.12L298.921 199.11Z" fill="#74B8DC"></path><path d="M37.9102 303.46L19.5502 264.25L12.6602 249.05L19.3302 247.13L25.8002 259.75C25.8002 259.75 34.4402 282.83 36.2302 290.4C38.0302 297.98 38.7902 301.31 37.9202 303.46H37.9102Z" fill="#9AC7F7"></path><path d="M37.91 303.46L19.89 264.14L13 248.94L19.67 247.02L26.14 259.64C26.14 259.64 34.78 282.72 36.57 290.29C38.36 297.87 38.78 301.31 37.92 303.46H37.91Z" fill="#CDD5D8"></path><path d="M13.92 250.97L13 248.94L19.67 247.02L20.57 248.78L13.92 250.97Z" fill="#9AC7F7"></path><path d="M37.4703 303.71L26.7203 262.99L28.9103 247.51L21.8103 246.85L19.5703 264.36C19.5703 264.36 26.3203 284.34 29.4103 291.49C32.4903 298.64 35.4903 302.52 37.4603 303.73L37.4703 303.71Z" fill="#DCE4E7"></path><path d="M14.9999 205.92C15.4399 207.25 15.3299 208.43 15.1799 209.88C15.2999 221.34 18.5199 238.82 19.4299 243.58L20.4399 246.96C20.5399 247.29 20.3499 247.64 20.0199 247.73L13.0199 249.81C12.6899 249.91 12.3399 249.72 12.2499 249.39L11.6799 247.48C10.9099 245.36 10.1299 241.76 6.96993 239.48C6.17993 238.91 3.18993 237.61 1.99993 231.16C-1.28007 213.46 0.389926 208.01 0.679926 207.25C1.03993 204.54 2.89993 202.13 5.66993 201.21C9.53993 199.93 13.7099 202.03 14.9999 205.9V205.92ZM2.70993 210.16C1.71993 217.73 2.82993 224.48 5.22993 232.31C6.01993 234.91 8.60993 236.54 10.7099 235.87C11.0299 235.78 11.3499 235.68 11.6599 235.58C13.7599 234.9 14.6699 232.51 13.9499 230.3C11.7499 223.5 11.0299 216.61 11.5699 210.07C11.7399 207.94 10.8299 205.76 8.68993 205.31C8.36993 205.25 7.50993 205.3 7.17993 205.31C4.70993 205.41 2.97993 207.99 2.68993 210.16H2.70993Z" fill="#FEC12F"></path><path d="M2.28989 229.87C3.55989 236.55 6.58989 237.93 7.38989 238.52C10.5999 240.91 11.4299 244.63 12.2299 246.84L12.8199 248.82C12.9199 249.16 13.2699 249.36 13.5999 249.26L20.4699 247.22C20.4299 247.45 20.2699 247.66 20.0299 247.73L13.0299 249.81C12.6999 249.91 12.3499 249.72 12.2599 249.39L11.6899 247.48C10.9199 245.36 10.1399 241.76 6.97989 239.48C6.18989 238.91 3.19989 237.61 2.00989 231.16C-0.0401084 220.16 -0.170108 213.89 0.109892 210.54C0.0698916 214.31 0.499892 220.39 2.29989 229.87H2.28989Z" fill="#FFAB01"></path><path d="M22.4903 261.59C21.1503 262.03 20.4303 263.48 20.8703 264.82C21.3203 266.15 22.7603 266.88 24.0903 266.44C25.4303 266 26.1603 264.55 25.7103 263.21C25.2703 261.87 23.8303 261.15 22.4903 261.59Z" fill="#9AC7F7"></path><path d="M21.7207 262.55C21.9607 262.29 22.2607 262.08 22.6207 261.96C23.7507 261.59 24.9807 262.2 25.3507 263.33C25.4807 263.73 25.4907 264.15 25.3907 264.54L21.7307 262.55H21.7207Z" fill="#DCE4E7"></path><path d="M24.7704 265.57C24.5504 265.78 24.2804 265.95 23.9704 266.05C22.8404 266.43 21.6204 265.81 21.2404 264.68C21.1204 264.32 21.1104 263.96 21.1804 263.62L24.7704 265.56V265.57Z" fill="#DCE4E7"></path><path d="M7.67979 201.88C8.07979 201.85 9.68979 202.18 10.0098 202.4C12.1898 203.78 13.0498 205.75 12.7798 208.17C11.9498 215.61 12.7098 222.41 15.1698 230.06C15.9598 232.55 14.8098 235.28 12.2498 236.11C11.8598 236.23 11.4798 236.35 11.0798 236.47C8.52979 237.27 5.44979 235.51 4.55979 232.57C1.86979 223.75 0.719787 216.12 2.11979 207.5C2.51979 205.03 4.66979 202.06 7.66979 201.88H7.67979ZM2.71979 210.16C1.72979 217.73 2.83979 224.48 5.23979 232.31C6.02979 234.91 8.61979 236.54 10.7198 235.87C11.0398 235.78 11.3598 235.68 11.6698 235.58C13.7698 234.9 14.6798 232.51 13.9598 230.3C11.7598 223.5 11.0398 216.61 11.5798 210.07C11.7498 207.94 10.8398 205.76 8.69979 205.31C8.37979 205.25 7.51979 205.3 7.18979 205.31C4.71979 205.41 2.98979 207.99 2.69979 210.16H2.71979Z" fill="#FFAB01"></path><path d="M28.6996 248.96L21.5996 248.48L21.8096 246.84L28.9096 247.5L28.6996 248.96Z" fill="#CDD5D8"></path><path d="M25.6602 208.97C31.2302 207.13 37.2302 210.15 39.0702 215.71C40.5102 220.07 38.9602 224.69 35.5602 227.38C30.3202 232.28 30.7402 237.58 30.7402 237.58C30.7402 237.58 30.7102 237.58 30.6602 237.6L29.7902 247.61C29.7602 247.95 29.4602 248.2 29.1202 248.17L21.8502 247.54C21.5002 247.51 21.2502 247.21 21.2802 246.86L22.4802 233.09C22.2502 230.29 21.2402 228.04 20.3802 226.77C19.2702 225.13 17.1402 223.93 16.6302 223.24C16.1202 222.55 15.5802 217.76 16.1002 217.02C16.4102 216.57 18.1702 214.3 19.9502 212.64C21.2102 210.94 23.5102 209.69 25.6702 208.98L25.6602 208.97ZM36.6702 217.99C35.3702 214.06 31.1402 211.93 27.2102 213.23C23.2902 214.52 21.1602 218.76 22.4602 222.68C23.7602 226.6 27.9902 228.73 31.9102 227.43C35.8402 226.13 37.9602 221.89 36.6702 217.98V217.99Z" fill="#FEC12F"></path><path d="M28.9707 248.16C29.0707 248.07 29.1507 247.92 29.1607 247.77L30.1107 237.57L30.1907 237.56C30.1907 237.56 29.7907 232.14 35.1707 227.18C38.6707 224.46 40.2707 219.76 38.8307 215.3C38.6507 214.76 38.4307 214.24 38.1807 213.76C38.5307 214.37 38.8307 215.03 39.0607 215.73C40.5007 220.09 38.9507 224.71 35.5507 227.4C30.3107 232.3 30.7307 237.6 30.7307 237.6C30.7307 237.6 30.7007 237.6 30.6507 237.62L29.7807 247.63C29.7507 247.97 29.4507 248.22 29.1107 248.19L28.9707 248.17V248.16Z" fill="#FFAB01"></path><path d="M16.5306 218.34C18.3406 216.45 19.3706 217.22 19.1606 218.05C18.5906 220.24 20.3506 223.82 22.3606 226.45C23.3006 227.66 23.0206 231.32 23.1806 234.12L21.7306 247.51C21.4406 247.43 21.2406 247.17 21.2706 246.87L22.4706 233.1C22.2406 230.3 21.2306 228.05 20.3706 226.78C19.2606 225.14 17.1306 223.94 16.6206 223.25C16.2906 222.81 15.9506 220.67 15.8906 219C16.0606 218.84 16.2706 218.63 16.5306 218.35V218.34Z" fill="#FFAB01"></path><path d="M37.4899 216.56C39.0199 221.2 36.5899 226.18 32.0599 227.67C27.5299 229.17 22.6199 226.63 21.0799 221.99C19.5399 217.35 21.9699 212.37 26.4999 210.88C31.0299 209.38 35.9499 211.92 37.4799 216.56H37.4899ZM22.4599 222.69C23.7599 226.61 27.9899 228.74 31.9099 227.44C35.8399 226.14 37.9599 221.9 36.6699 217.99C35.3699 214.06 31.1399 211.93 27.2099 213.23C23.2899 214.52 21.1599 218.76 22.4599 222.68V222.69Z" fill="#FFAB01"></path><path d="M34.7797 187.97V190.54H30.2197V187.97C30.2197 187.69 30.4397 187.48 30.7197 187.48H34.2697C34.5397 187.48 34.7697 187.7 34.7697 187.97H34.7797Z" fill="#FF876C"></path><path d="M34.1597 188.02V190.54H32.2197V188.02C32.2197 187.88 32.3297 187.78 32.4597 187.78H33.9097C34.0397 187.78 34.1597 187.89 34.1597 188.02Z" fill="#FFA38F"></path><path d="M31.2895 190.55H30.2295V187.98C30.2295 187.7 30.4495 187.49 30.7295 187.49H31.2895V190.55Z" fill="#E36E54"></path><path d="M34.8403 199.25V304.92C34.2803 304.84 33.8403 304.42 33.7803 303.88V199.24H34.8403V199.25Z" fill="#74B8DC"></path><path d="M31.2402 199.25H33.7802V303.89V303.9C33.7002 304.48 33.1702 304.94 32.5102 304.94C31.8502 304.94 31.3302 304.48 31.2502 303.89V199.25H31.2402Z" fill="#7EB3FF"></path><path d="M31.2399 303.89C31.1699 304.42 30.7299 304.84 30.1699 304.93V199.26H31.2399V303.9V303.89Z" fill="#74B8DC"></path><path d="M30.1699 304.93C30.7299 304.85 31.1699 304.43 31.2399 303.89V303.9C31.3199 304.48 31.8499 304.94 32.4999 304.94C33.1499 304.94 33.6899 304.48 33.7699 303.89C33.8399 304.42 34.2799 304.84 34.8399 304.93L32.4999 314.51L30.1699 304.93Z" fill="#C5E1F9"></path><path d="M30.1699 304.93C30.7299 304.85 31.1699 304.43 31.2399 303.89V303.9C31.3199 304.48 32.4999 314.51 32.4999 314.51L30.1699 304.93Z" fill="#EAF4FE"></path><path d="M34.8202 190.46H30.2002V199.26H34.8202V190.46Z" fill="#F0CA67"></path><path d="M33.2898 190.46H32.3398V199.25H33.2898V190.46Z" fill="#F4DA80"></path><path d="M31.7998 311.62C32.0098 311.59 32.2398 311.57 32.4698 311.57C32.7198 311.57 32.9698 311.6 33.2098 311.63L32.4998 314.51L31.7998 311.62Z" fill="#59B3C5"></path><path d="M34.7004 197.06H34.4004V198.33H34.7004V197.06Z" fill="#F4DA80"></path><path d="M34.0097 197.06H33.7197V198.33H34.0097V197.06Z" fill="#F4DA80"></path><path d="M33.33 197.06H33.04V198.33H33.33V197.06Z" fill="#F0CA67"></path><path d="M32.6604 197.06H32.3604V198.33H32.6604V197.06Z" fill="#F0CA67"></path><path d="M31.9797 197.06H31.6797V198.33H31.9797V197.06Z" fill="#F4DA80"></path><path d="M31.3 197.06H31V198.33H31.3V197.06Z" fill="#F4DA80"></path><path d="M30.6301 197.06H30.3301V198.33H30.6301V197.06Z" fill="#F4DA80"></path><path d="M34.7004 191.67H34.4004V192.94H34.7004V191.67Z" fill="#F4DA80"></path><path d="M34.0097 191.67H33.7197V192.94H34.0097V191.67Z" fill="#F4DA80"></path><path d="M33.33 191.67H33.04V192.94H33.33V191.67Z" fill="#F0CA67"></path><path d="M32.6604 191.67H32.3604V192.94H32.6604V191.67Z" fill="#F0CA67"></path><path d="M31.9797 191.67H31.6797V192.94H31.9797V191.67Z" fill="#F4DA80"></path><path d="M31.3 191.67H31V192.94H31.3V191.67Z" fill="#F4DA80"></path><path d="M30.6301 191.67H30.3301V192.94H30.6301V191.67Z" fill="#F4DA80"></path><path d="M41.1997 319.07L40.5797 313.45L39.9697 307.83L40.6397 307.8L41.3097 307.76L41.2497 313.42L41.1997 319.07Z" fill="#2E0032"></path><path d="M40.3604 313.91H40.6804C41.0704 313.91 41.3804 313.6 41.3804 313.21V245.32C41.3804 244.93 41.0704 244.62 40.6804 244.62H38.8104C38.4204 244.62 38.1104 244.93 38.1104 245.32V307.51L40.3604 313.92V313.91Z" fill="#EAF4FE"></path><path d="M40.6897 244.62H40.2197C40.6097 244.62 40.9197 244.93 40.9197 245.32V313.21C40.9197 313.6 40.6097 313.91 40.2197 313.91H40.6897C41.0797 313.91 41.3897 313.6 41.3897 313.21V245.32C41.3897 244.93 41.0797 244.62 40.6897 244.62Z" fill="#9AC7F7"></path><path d="M37.7 302.71H38.07C38.16 302.71 38.24 302.78 38.24 302.88V305.86C38.24 305.95 38.17 306.03 38.07 306.03H37.7C37.61 306.03 37.54 305.96 37.54 305.87V302.89C37.54 302.8 37.61 302.72 37.71 302.72L37.7 302.71Z" fill="#9AC7F7"></path><path d="M37.7 285.36H38.07C38.16 285.36 38.23 285.43 38.23 285.52V288.5C38.23 288.59 38.16 288.66 38.07 288.66H37.7C37.61 288.66 37.54 288.59 37.54 288.5V285.52C37.54 285.43 37.61 285.35 37.71 285.35L37.7 285.36Z" fill="#9AC7F7"></path><path d="M41.6499 286.05H41.1299V287.98H41.6499V286.05Z" fill="#9AC7F7"></path><path d="M40.1305 283.76H39.0205V300.59H40.1305V283.76Z" fill="#9AC7F7"></path><path d="M41.2201 292.09V313.65C41.1001 313.81 40.9001 313.91 40.6901 313.91H40.3701L38.1201 307.5V292.09H41.2301H41.2201Z" fill="#9AC7F7"></path><path d="M42.7704 319.07L43.3604 313.45L43.9504 307.83L43.2704 307.8L42.6104 307.77L42.6903 313.42L42.7704 319.07Z" fill="#9AC7F7"></path><path d="M43.5796 313.91H43.2596C42.8696 313.91 42.5596 313.6 42.5596 313.21V245.32C42.5596 244.93 42.8696 244.62 43.2596 244.62H45.1296C45.5196 244.62 45.8296 244.93 45.8296 245.32V307.51L43.5796 313.92V313.91Z" fill="#EAF4FE"></path><path d="M43.2596 244.62H43.7296C43.3396 244.62 43.0296 244.93 43.0296 245.32V313.21C43.0296 313.6 43.3396 313.91 43.7296 313.91H43.2596C42.8696 313.91 42.5596 313.6 42.5596 313.21V245.32C42.5596 244.93 42.8696 244.62 43.2596 244.62Z" fill="#9AC7F7"></path><path d="M43.8398 222.59H40.5098V237.14H43.8398V222.59Z" fill="#300034"></path><path d="M42.9999 222.59H42.6699V237.14H42.9999V222.59Z" fill="#2E0032"></path><path d="M42.4498 222.59H42.2598V237.14H42.4498V222.59Z" fill="#2E0032"></path><path d="M43.4996 222.59H43.3096V237.14H43.4996V222.59Z" fill="#2E0032"></path><path d="M38.4898 236.61H45.8498C46.2398 236.61 46.5498 236.92 46.5498 237.31V247.13L43.7398 253.7C43.7398 254.09 43.4298 254.4 43.0298 254.4H41.2798C40.8898 254.4 40.5698 254.09 40.5698 253.7L37.7598 247.13V237.31C37.7598 236.92 38.0798 236.61 38.4598 236.61H38.4898Z" fill="#300034"></path><path d="M43.9307 239.77C43.9307 240.11 44.2107 240.38 44.5407 240.38C44.8707 240.38 45.1607 240.1 45.1607 239.77C45.1607 239.44 44.8807 239.16 44.5407 239.16C44.2007 239.16 43.9307 239.43 43.9307 239.77Z" fill="#9AC7F7"></path><path d="M39.2002 239.77C39.2002 240.11 39.4702 240.38 39.8102 240.38C40.1502 240.38 40.4302 240.1 40.4302 239.77C40.4302 239.44 40.1502 239.16 39.8102 239.16C39.4702 239.16 39.2002 239.43 39.2002 239.77Z" fill="#9AC7F7"></path><path d="M45.88 302.81H46.24C46.33 302.81 46.41 302.89 46.41 302.98V305.95C46.41 306.04 46.33 306.12 46.24 306.12H45.88C45.79 306.12 45.71 306.04 45.71 305.95V302.98C45.71 302.89 45.79 302.81 45.88 302.81Z" fill="#9AC7F7"></path><path d="M42.6198 304.87C42.8698 303.54 43.0598 302.27 43.1898 301.09C43.6998 301.34 44.2798 301.51 44.9098 301.6C45.5398 301.69 46.1398 301.68 46.6998 301.59C46.4998 302.75 46.3298 304.03 46.2098 305.38C46.0898 306.74 46.0298 308.03 46.0198 309.19C44.9898 309.64 43.8698 312.25 43.2798 315.64L43.0498 315.61V315.57L43.9498 309.2C44.0998 309.18 44.2298 309.05 44.2598 308.89C44.2898 308.69 44.1398 308.5 43.9498 308.48C43.7498 308.46 43.5598 308.6 43.5398 308.79C43.5198 308.96 43.6098 309.1 43.7498 309.17L42.8498 315.54V315.58L42.6198 315.55C42.9798 312.14 42.6198 309.32 41.7598 308.6C42.0698 307.48 42.3698 306.22 42.6298 304.88L42.6198 304.87Z" fill="#9AC7F7"></path><path d="M42.7301 304.88C42.9801 303.55 43.1701 302.27 43.3001 301.09C43.8101 301.34 44.3801 301.52 45.0101 301.6C45.6401 301.69 46.2401 301.68 46.8001 301.58C46.6001 302.75 46.4301 304.03 46.3101 305.38C46.1901 306.74 46.1301 308.03 46.1201 309.19C45.0901 309.63 43.9701 312.25 43.3801 315.64L43.1601 315.61V315.57L44.0601 309.2C44.2101 309.17 44.3401 309.06 44.3601 308.89C44.3901 308.69 44.2501 308.51 44.0501 308.48C43.8501 308.45 43.6701 308.59 43.6401 308.79C43.6201 308.95 43.7101 309.1 43.8501 309.17L42.9601 315.54V315.59L42.7301 315.56C43.0801 312.14 42.7301 309.32 41.8701 308.61C42.1801 307.49 42.4801 306.24 42.7401 304.9L42.7301 304.88Z" fill="#C5E1F9"></path><path d="M46.0896 305.34C46.1896 304.15 46.3196 303.01 46.4796 301.96L45.4996 301.83L44.0996 312.13C44.5896 310.7 45.3696 309.43 45.9396 309.02L45.9596 307.6C45.9896 306.87 46.0296 306.12 46.0896 305.33V305.34Z" fill="#EAF4FE"></path><path d="M46.0196 301.9H46.1196C45.9996 302.86 45.8896 303.83 45.7896 304.78C45.6596 306.02 45.5496 307.26 45.4496 308.58L45.3796 309.6C45.1996 309.83 45.0296 310.11 44.8496 310.42L46.0096 301.9H46.0196Z" fill="#9AC7F7"></path><path d="M43.6801 301.75C44.0001 301.86 44.3401 301.94 44.6801 302L43.8601 308.05C43.5201 308.11 43.2501 308.38 43.2001 308.73C43.1701 308.96 43.2401 309.18 43.3701 309.35L43.1701 310.79C43.0301 309.8 42.7801 308.97 42.3701 308.46C42.6701 307.34 42.9401 306.16 43.1701 304.96C43.3801 303.87 43.5501 302.79 43.6801 301.74V301.75Z" fill="#EAF4FE"></path><path d="M51.6594 264.65C49.6994 279.08 47.7294 292.3 46.0494 302.92L43.6494 302.59C44.8594 291.89 46.4994 278.63 48.4794 264.21C48.7294 262.33 48.9894 260.46 49.2494 258.61L52.4194 259.04C52.1694 260.89 51.9194 262.76 51.6694 264.64L51.6594 264.65Z" fill="#2E0032"></path><path d="M47.3799 258.06C49.1299 245.71 50.9599 234.19 52.6799 224.61L58.1899 225.36C57.2799 235.04 55.9599 246.64 54.3499 259.01L47.3799 258.06Z" fill="#FFAB01"></path><path d="M49.0801 258.29C50.8101 245.93 52.5101 234.4 54.0301 224.79L56.8501 225.17C55.7501 234.83 54.3001 246.4 52.6601 258.77L49.0901 258.29H49.0801Z" fill="#FEC12F"></path><path d="M53.4302 264.89C51.2502 279.28 48.9202 292.45 46.9302 303.04C45.5302 302.85 44.1402 302.66 42.7402 302.47C43.6502 291.73 44.9302 278.42 46.6902 263.97C46.9202 262.08 47.1502 260.21 47.3802 258.36C49.6802 258.68 51.9702 258.99 54.2702 259.3C54.0002 261.15 53.7202 263.01 53.4302 264.89Z" fill="#FFAB01"></path><path d="M51.7903 264.67C49.7103 279.08 47.6503 292.28 45.9203 302.91C45.2103 302.81 44.4903 302.71 43.7803 302.62C44.9603 291.91 46.5003 278.64 48.3503 264.2C48.5903 262.32 48.8303 260.45 49.0803 258.6C50.2503 258.76 51.4203 258.92 52.5903 259.08C52.3203 260.93 52.0603 262.8 51.7903 264.68V264.67Z" fill="#FEC12F"></path><path d="M58.0596 225.35L52.8096 224.64C53.1296 222.82 53.4496 221.07 53.7596 219.4C55.3196 218.57 57.2796 218.83 58.5496 220.05C58.3996 221.74 58.2396 223.52 58.0596 225.35Z" fill="#C5E1F9"></path><path d="M57.6194 225.29L54.1494 224.82C54.4294 223.07 54.7194 221.37 54.9894 219.77C56.0694 218.91 57.3494 219.08 58.1594 220.2C57.9994 221.83 57.8094 223.53 57.6194 225.3V225.29Z" fill="#EAF4FE"></path><path d="M56.7302 219.8L57.7902 219.95C57.5802 221.63 57.3602 223.4 57.1202 225.23L55.9502 225.07C56.2102 223.24 56.4702 221.49 56.7202 219.81L56.7302 219.8Z" fill="#9AC7F7"></path><path d="M58.2102 225.38L52.6602 224.63C52.6902 224.44 52.7202 224.26 52.7502 224.08L58.2602 224.83C58.2402 225.02 58.2302 225.2 58.2102 225.38Z" fill="#EAF4FE"></path><path d="M55.1304 224.96L53.4404 224.73C53.4704 224.55 53.4904 224.37 53.5204 224.18L55.2004 224.41C55.1704 224.6 55.1504 224.78 55.1304 224.96Z" fill="#C5E1F9"></path><path d="M57.66 225.3L56.71 225.17C56.73 224.99 56.76 224.81 56.78 224.62L57.72 224.75C57.69 224.93 57.67 225.12 57.65 225.3H57.66Z" fill="#9AC7F7"></path><path d="M54.31 259.67L47.25 258.71C47.36 258.01 47.46 257.33 47.56 256.65L54.56 257.6C54.48 258.29 54.39 258.97 54.31 259.67Z" fill="#EAF4FE"></path><path d="M51.8702 259.34L48.2402 258.84C48.3402 258.14 48.4402 257.46 48.5402 256.78L52.1402 257.27C52.0502 257.96 51.9602 258.64 51.8702 259.34Z" fill="#C5E1F9"></path><path d="M53.5996 259.57L52.3896 259.41C52.4896 258.71 52.5796 258.03 52.6796 257.34L53.8797 257.5C53.7897 258.19 53.6996 258.88 53.5996 259.57Z" fill="#9AC7F7"></path><path d="M56.2496 248.27C56.4396 248.3 56.5496 248.68 56.4896 249.11C56.4596 249.36 56.3796 249.56 56.2796 249.7C56.2796 249.7 56.2996 249.7 56.3096 249.7C56.4396 249.72 56.4596 249.95 56.4196 250.23C56.3796 250.51 56.2996 250.74 56.1796 250.73C56.0496 250.71 55.9996 250.45 55.9396 250.23C55.8896 250.01 55.7296 249.46 55.7896 249.02C55.8496 248.58 56.0596 248.25 56.2496 248.27Z" fill="#9AC7F7"></path><path d="M58.9003 224.93C59.7003 225.04 60.2703 225.78 60.1503 226.57C60.1503 226.57 56.9703 249.83 56.9703 249.85C56.9703 249.85 56.7103 250.79 56.1703 250.72C55.8503 250.68 59.7003 226.51 59.7003 226.51C59.7703 225.96 59.3803 225.45 58.8303 225.38C58.7403 225.37 58.6603 225.37 58.5703 225.38L58.6303 224.92C58.7203 224.92 58.8003 224.92 58.8903 224.92L58.9003 224.93Z" fill="#C5E1F9"></path><path d="M58.4603 224.87C59.2603 224.98 59.8203 225.71 59.7103 226.51C59.7103 226.51 56.4903 250.14 56.4803 250.14L56.0303 250.08L59.2603 226.45C59.3303 225.9 58.9503 225.39 58.3903 225.31C58.3003 225.3 58.2103 225.31 58.1303 225.31L58.1903 224.85C58.2803 224.85 58.3703 224.85 58.4503 224.86L58.4603 224.87Z" fill="#EAF4FE"></path><path d="M58.5598 225.22C59.0898 225.29 59.4598 225.87 59.3898 226.35L56.2098 249.65L56.0898 249.63C56.0898 249.63 56.0998 249.61 56.0998 249.6L59.2598 226.45C59.3298 225.9 58.9498 225.39 58.3898 225.31C58.2998 225.3 58.2098 225.31 58.1298 225.31V225.24C58.2698 225.2 58.4098 225.19 58.5598 225.21V225.22Z" fill="#9AC7F7"></path><path d="M56.2298 248.47C56.4298 248.5 56.5398 248.85 56.4798 249.25C56.4498 249.47 56.3698 249.66 56.2798 249.78H56.2998C56.4398 249.79 56.5198 249.87 56.4898 250.13C56.4498 250.39 56.3798 250.75 56.1798 250.73C56.0498 250.71 55.9898 250.48 55.9398 250.27C55.8798 250.07 55.7198 249.56 55.7798 249.16C55.8298 248.76 56.0298 248.45 56.2298 248.48V248.47Z" fill="#EAF4FE"></path><path d="M55.8703 265.8V319.24C55.8703 320.73 54.5103 321.95 52.8203 321.95H22.3603C20.6803 321.95 19.3203 320.74 19.3203 319.24V265.8H55.8703Z" fill="#300034"></path><path d="M41.02 267.25V317.77C41.02 319.26 39.65 320.48 37.96 320.48H47.45C49.04 320.48 50.33 319.33 50.33 317.92V267.26H41.02V267.25Z" fill="#2E0032"></path><path d="M37.8799 300.13V321.94H211.26V300.13H37.8799Z" fill="#F0CA67"></path><path d="M37.8799 299.24V321.05H211.26V299.24H37.8799Z" fill="#FEC12F"></path><path d="M37.8799 299.24V309.52H211.26V299.24H37.8799Z" fill="#FFAB01"></path><path d="M43.07 299.52H42.54V307.57H43.07V299.52Z" fill="#2E0032"></path><path d="M45.2497 299.52H44.7197V304.67H45.2497V299.52Z" fill="#2E0032"></path><path d="M47.4196 299.52H46.8896V304.67H47.4196V299.52Z" fill="#2E0032"></path><path d="M49.6003 299.52H49.0703V304.67H49.6003V299.52Z" fill="#2E0032"></path><path d="M51.7702 299.52H51.2402V304.67H51.7702V299.52Z" fill="#2E0032"></path><path d="M53.9402 299.52H53.4102V307.57H53.9402V299.52Z" fill="#2E0032"></path><path d="M56.1101 299.52H55.5801V304.67H56.1101V299.52Z" fill="#2E0032"></path><path d="M58.2898 299.52H57.7598V304.67H58.2898V299.52Z" fill="#2E0032"></path><path d="M60.4597 299.52H59.9297V304.67H60.4597V299.52Z" fill="#2E0032"></path><path d="M62.6296 299.52H62.0996V304.67H62.6296V299.52Z" fill="#2E0032"></path><path d="M64.8103 299.52H64.2803V307.57H64.8103V299.52Z" fill="#2E0032"></path><path d="M66.9802 299.52H66.4502V304.67H66.9802V299.52Z" fill="#2E0032"></path><path d="M69.1601 299.52H68.6201V304.67H69.1601V299.52Z" fill="#2E0032"></path><path d="M71.3298 299.52H70.7998V304.67H71.3298V299.52Z" fill="#2E0032"></path><path d="M73.4997 299.52H72.9697V304.67H73.4997V299.52Z" fill="#2E0032"></path><path d="M75.6696 299.52H75.1396V307.57H75.6696V299.52Z" fill="#2E0032"></path><path d="M77.8396 299.52H77.3096V304.67H77.8396V299.52Z" fill="#2E0032"></path><path d="M80.0202 299.52H79.4902V304.67H80.0202V299.52Z" fill="#2E0032"></path><path d="M82.2001 299.52H81.6602V304.67H82.2001V299.52Z" fill="#2E0032"></path><path d="M84.3601 299.52H83.8301V304.67H84.3601V299.52Z" fill="#2E0032"></path><path d="M86.5398 299.52H86.0098V307.57H86.5398V299.52Z" fill="#2E0032"></path><path d="M88.7097 299.52H88.1797V304.67H88.7097V299.52Z" fill="#2E0032"></path><path d="M90.8896 299.52H90.3496V304.67H90.8896V299.52Z" fill="#2E0032"></path><path d="M93.0603 299.52H92.5303V304.67H93.0603V299.52Z" fill="#2E0032"></path><path d="M95.2302 299.52H94.7002V304.67H95.2302V299.52Z" fill="#2E0032"></path><path d="M97.4001 299.52H96.8701V307.57H97.4001V299.52Z" fill="#2E0032"></path><path d="M99.58 299.52H99.04V304.67H99.58V299.52Z" fill="#2E0032"></path><path d="M101.75 299.52H101.22V304.67H101.75V299.52Z" fill="#2E0032"></path><path d="M103.92 299.52H103.39V304.67H103.92V299.52Z" fill="#2E0032"></path><path d="M106.09 299.52H105.56V304.67H106.09V299.52Z" fill="#2E0032"></path><path d="M108.27 299.52H107.74V307.57H108.27V299.52Z" fill="#2E0032"></path><path d="M110.44 299.52H109.91V304.67H110.44V299.52Z" fill="#2E0032"></path><path d="M112.61 299.52H112.08V304.67H112.61V299.52Z" fill="#2E0032"></path><path d="M114.79 299.52H114.26V304.67H114.79V299.52Z" fill="#2E0032"></path><path d="M116.96 299.52H116.43V304.67H116.96V299.52Z" fill="#2E0032"></path><path d="M119.13 299.52H118.6V307.57H119.13V299.52Z" fill="#2E0032"></path><path d="M121.31 299.52H120.78V304.67H121.31V299.52Z" fill="#2E0032"></path><path d="M123.48 299.52H122.95V304.67H123.48V299.52Z" fill="#2E0032"></path><path d="M125.65 299.52H125.12V304.67H125.65V299.52Z" fill="#2E0032"></path><path d="M127.82 299.52H127.29V304.67H127.82V299.52Z" fill="#2E0032"></path><path d="M129.99 299.52H129.46V307.57H129.99V299.52Z" fill="#2E0032"></path><path d="M132.17 299.52H131.64V304.67H132.17V299.52Z" fill="#2E0032"></path><path d="M134.35 299.52H133.82V304.67H134.35V299.52Z" fill="#2E0032"></path><path d="M136.52 299.52H135.99V304.67H136.52V299.52Z" fill="#2E0032"></path><path d="M138.69 299.52H138.16V304.67H138.69V299.52Z" fill="#2E0032"></path><path d="M140.86 299.52H140.33V307.57H140.86V299.52Z" fill="#2E0032"></path><path d="M143.04 299.52H142.51V304.67H143.04V299.52Z" fill="#2E0032"></path><path d="M145.204 299.518L144.674 299.518L144.679 304.668L145.209 304.668L145.204 299.518Z" fill="#2E0032"></path><path d="M147.38 299.52H146.85V304.67H147.38V299.52Z" fill="#2E0032"></path><path d="M149.551 299.52H149.021V304.67H149.551V299.52Z" fill="#2E0032"></path><path d="M151.73 299.52H151.2V307.57H151.73V299.52Z" fill="#2E0032"></path><path d="M153.9 299.52H153.37V304.67H153.9V299.52Z" fill="#2E0032"></path><path d="M156.07 299.52H155.54V304.67H156.07V299.52Z" fill="#2E0032"></path><path d="M158.25 299.52H157.72V304.67H158.25V299.52Z" fill="#2E0032"></path><path d="M160.42 299.52H159.89V304.67H160.42V299.52Z" fill="#2E0032"></path><path d="M162.59 299.52H162.06V307.57H162.59V299.52Z" fill="#2E0032"></path><path d="M164.77 299.52H164.24V304.67H164.77V299.52Z" fill="#2E0032"></path><path d="M166.94 299.52H166.41V304.67H166.94V299.52Z" fill="#2E0032"></path><path d="M169.12 299.52H168.59V304.67H169.12V299.52Z" fill="#2E0032"></path><path d="M171.29 299.52H170.76V304.67H171.29V299.52Z" fill="#2E0032"></path><path d="M173.46 299.52H172.93V307.57H173.46V299.52Z" fill="#2E0032"></path><path d="M175.63 299.52H175.1V304.67H175.63V299.52Z" fill="#2E0032"></path><path d="M177.82 299.52H177.28V304.67H177.82V299.52Z" fill="#2E0032"></path><path d="M179.98 299.52H179.45V304.67H179.98V299.52Z" fill="#2E0032"></path><path d="M182.15 299.52H181.62V304.67H182.15V299.52Z" fill="#2E0032"></path><path d="M184.33 299.52H183.8V307.57H184.33V299.52Z" fill="#2E0032"></path><path d="M186.5 299.52H185.97V304.67H186.5V299.52Z" fill="#2E0032"></path><path d="M188.67 299.52H188.14V304.67H188.67V299.52Z" fill="#2E0032"></path><path d="M190.85 299.52H190.31V304.67H190.85V299.52Z" fill="#2E0032"></path><path d="M193.02 299.52H192.49V304.67H193.02V299.52Z" fill="#2E0032"></path><path d="M195.19 299.52H194.66V307.57H195.19V299.52Z" fill="#2E0032"></path><path d="M197.36 299.52H196.83V304.67H197.36V299.52Z" fill="#2E0032"></path><path d="M199.54 299.52H199.01V304.67H199.54V299.52Z" fill="#2E0032"></path><path d="M201.71 299.52H201.18V304.67H201.71V299.52Z" fill="#2E0032"></path><path d="M203.88 299.52H203.35V304.67H203.88V299.52Z" fill="#2E0032"></path><path d="M206.06 299.52H205.53V307.57H206.06V299.52Z" fill="#2E0032"></path></g><defs><clipPath id="clip0_435_243"><rect width="421.27" height="321.94" fill="white"></rect></clipPath></defs></svg>